<?xml version="1.0" encoding="utf-8" standalone="no"?>
<!DOCTYPE svg PUBLIC "-//W3C//DTD SVG 1.1//EN"
  "http://www.w3.org/Graphics/SVG/1.1/DTD/svg11.dtd">
<svg xmlns:xlink="http://www.w3.org/1999/xlink" width="864pt" height="432pt" viewBox="0 0 864 432" xmlns="http://www.w3.org/2000/svg" version="1.1">
 <metadata>
  <rdf:RDF xmlns:dc="http://purl.org/dc/elements/1.1/" xmlns:cc="http://creativecommons.org/ns#" xmlns:rdf="http://www.w3.org/1999/02/22-rdf-syntax-ns#">
   <cc:Work>
    <dc:type rdf:resource="http://purl.org/dc/dcmitype/StillImage"/>
    <dc:date>2024-06-13T13:43:13.609779</dc:date>
    <dc:format>image/svg+xml</dc:format>
    <dc:creator>
     <cc:Agent>
      <dc:title>Matplotlib v3.8.4, https://matplotlib.org/</dc:title>
     </cc:Agent>
    </dc:creator>
   </cc:Work>
  </rdf:RDF>
 </metadata>
 <defs>
  <style type="text/css">*{stroke-linejoin: round; stroke-linecap: butt}</style>
 </defs>
 <g id="figure_1">
  <g id="patch_1">
   <path d="M 0 432 
L 864 432 
L 864 0 
L 0 0 
L 0 432 
z
" style="fill: none"/>
  </g>
  <g id="axes_1">
   <g id="patch_2">
    <path d="M 47.72 390.04 
L 853.2 390.04 
L 853.2 26.88 
L 47.72 26.88 
L 47.72 390.04 
z
" style="fill: none"/>
   </g>
   <g id="matplotlib.axis_1">
    <g id="xtick_1">
     <g id="line2d_1">
      <path d="M 165.694343 390.04 
L 165.694343 26.88 
" clip-path="url(#p0a92d750c5)" style="fill: none; stroke: #b0b0b0; stroke-width: 0.8; stroke-linecap: square"/>
     </g>
     <g id="line2d_2">
      <defs>
       <path id="mead40115ab" d="M 0 0 
L 0 3.5 
" style="stroke: #000000; stroke-width: 0.8"/>
      </defs>
      <g>
       <use xlink:href="#mead40115ab" x="165.694343" y="390.04" style="stroke: #000000; stroke-width: 0.8"/>
      </g>
     </g>
     <g id="text_1">
      <!-- 0.2 -->
      <g transform="translate(157.742781 404.638438) scale(0.1 -0.1)">
       <defs>
        <path id="DejaVuSans-30" d="M 2034 4250 
Q 1547 4250 1301 3770 
Q 1056 3291 1056 2328 
Q 1056 1369 1301 889 
Q 1547 409 2034 409 
Q 2525 409 2770 889 
Q 3016 1369 3016 2328 
Q 3016 3291 2770 3770 
Q 2525 4250 2034 4250 
z
M 2034 4750 
Q 2819 4750 3233 4129 
Q 3647 3509 3647 2328 
Q 3647 1150 3233 529 
Q 2819 -91 2034 -91 
Q 1250 -91 836 529 
Q 422 1150 422 2328 
Q 422 3509 836 4129 
Q 1250 4750 2034 4750 
z
" transform="scale(0.015625)"/>
        <path id="DejaVuSans-2e" d="M 684 794 
L 1344 794 
L 1344 0 
L 684 0 
L 684 794 
z
" transform="scale(0.015625)"/>
        <path id="DejaVuSans-32" d="M 1228 531 
L 3431 531 
L 3431 0 
L 469 0 
L 469 531 
Q 828 903 1448 1529 
Q 2069 2156 2228 2338 
Q 2531 2678 2651 2914 
Q 2772 3150 2772 3378 
Q 2772 3750 2511 3984 
Q 2250 4219 1831 4219 
Q 1534 4219 1204 4116 
Q 875 4013 500 3803 
L 500 4441 
Q 881 4594 1212 4672 
Q 1544 4750 1819 4750 
Q 2544 4750 2975 4387 
Q 3406 4025 3406 3419 
Q 3406 3131 3298 2873 
Q 3191 2616 2906 2266 
Q 2828 2175 2409 1742 
Q 1991 1309 1228 531 
z
" transform="scale(0.015625)"/>
       </defs>
       <use xlink:href="#DejaVuSans-30"/>
       <use xlink:href="#DejaVuSans-2e" x="63.623047"/>
       <use xlink:href="#DejaVuSans-32" x="95.410156"/>
      </g>
     </g>
    </g>
    <g id="xtick_2">
     <g id="line2d_3">
      <path d="M 328.417576 390.04 
L 328.417576 26.88 
" clip-path="url(#p0a92d750c5)" style="fill: none; stroke: #b0b0b0; stroke-width: 0.8; stroke-linecap: square"/>
     </g>
     <g id="line2d_4">
      <g>
       <use xlink:href="#mead40115ab" x="328.417576" y="390.04" style="stroke: #000000; stroke-width: 0.8"/>
      </g>
     </g>
     <g id="text_2">
      <!-- 0.4 -->
      <g transform="translate(320.466013 404.638438) scale(0.1 -0.1)">
       <defs>
        <path id="DejaVuSans-34" d="M 2419 4116 
L 825 1625 
L 2419 1625 
L 2419 4116 
z
M 2253 4666 
L 3047 4666 
L 3047 1625 
L 3713 1625 
L 3713 1100 
L 3047 1100 
L 3047 0 
L 2419 0 
L 2419 1100 
L 313 1100 
L 313 1709 
L 2253 4666 
z
" transform="scale(0.015625)"/>
       </defs>
       <use xlink:href="#DejaVuSans-30"/>
       <use xlink:href="#DejaVuSans-2e" x="63.623047"/>
       <use xlink:href="#DejaVuSans-34" x="95.410156"/>
      </g>
     </g>
    </g>
    <g id="xtick_3">
     <g id="line2d_5">
      <path d="M 491.140808 390.04 
L 491.140808 26.88 
" clip-path="url(#p0a92d750c5)" style="fill: none; stroke: #b0b0b0; stroke-width: 0.8; stroke-linecap: square"/>
     </g>
     <g id="line2d_6">
      <g>
       <use xlink:href="#mead40115ab" x="491.140808" y="390.04" style="stroke: #000000; stroke-width: 0.8"/>
      </g>
     </g>
     <g id="text_3">
      <!-- 0.6 -->
      <g transform="translate(483.189246 404.638438) scale(0.1 -0.1)">
       <defs>
        <path id="DejaVuSans-36" d="M 2113 2584 
Q 1688 2584 1439 2293 
Q 1191 2003 1191 1497 
Q 1191 994 1439 701 
Q 1688 409 2113 409 
Q 2538 409 2786 701 
Q 3034 994 3034 1497 
Q 3034 2003 2786 2293 
Q 2538 2584 2113 2584 
z
M 3366 4563 
L 3366 3988 
Q 3128 4100 2886 4159 
Q 2644 4219 2406 4219 
Q 1781 4219 1451 3797 
Q 1122 3375 1075 2522 
Q 1259 2794 1537 2939 
Q 1816 3084 2150 3084 
Q 2853 3084 3261 2657 
Q 3669 2231 3669 1497 
Q 3669 778 3244 343 
Q 2819 -91 2113 -91 
Q 1303 -91 875 529 
Q 447 1150 447 2328 
Q 447 3434 972 4092 
Q 1497 4750 2381 4750 
Q 2619 4750 2861 4703 
Q 3103 4656 3366 4563 
z
" transform="scale(0.015625)"/>
       </defs>
       <use xlink:href="#DejaVuSans-30"/>
       <use xlink:href="#DejaVuSans-2e" x="63.623047"/>
       <use xlink:href="#DejaVuSans-36" x="95.410156"/>
      </g>
     </g>
    </g>
    <g id="xtick_4">
     <g id="line2d_7">
      <path d="M 653.86404 390.04 
L 653.86404 26.88 
" clip-path="url(#p0a92d750c5)" style="fill: none; stroke: #b0b0b0; stroke-width: 0.8; stroke-linecap: square"/>
     </g>
     <g id="line2d_8">
      <g>
       <use xlink:href="#mead40115ab" x="653.86404" y="390.04" style="stroke: #000000; stroke-width: 0.8"/>
      </g>
     </g>
     <g id="text_4">
      <!-- 0.8 -->
      <g transform="translate(645.912478 404.638438) scale(0.1 -0.1)">
       <defs>
        <path id="DejaVuSans-38" d="M 2034 2216 
Q 1584 2216 1326 1975 
Q 1069 1734 1069 1313 
Q 1069 891 1326 650 
Q 1584 409 2034 409 
Q 2484 409 2743 651 
Q 3003 894 3003 1313 
Q 3003 1734 2745 1975 
Q 2488 2216 2034 2216 
z
M 1403 2484 
Q 997 2584 770 2862 
Q 544 3141 544 3541 
Q 544 4100 942 4425 
Q 1341 4750 2034 4750 
Q 2731 4750 3128 4425 
Q 3525 4100 3525 3541 
Q 3525 3141 3298 2862 
Q 3072 2584 2669 2484 
Q 3125 2378 3379 2068 
Q 3634 1759 3634 1313 
Q 3634 634 3220 271 
Q 2806 -91 2034 -91 
Q 1263 -91 848 271 
Q 434 634 434 1313 
Q 434 1759 690 2068 
Q 947 2378 1403 2484 
z
M 1172 3481 
Q 1172 3119 1398 2916 
Q 1625 2713 2034 2713 
Q 2441 2713 2670 2916 
Q 2900 3119 2900 3481 
Q 2900 3844 2670 4047 
Q 2441 4250 2034 4250 
Q 1625 4250 1398 4047 
Q 1172 3844 1172 3481 
z
" transform="scale(0.015625)"/>
       </defs>
       <use xlink:href="#DejaVuSans-30"/>
       <use xlink:href="#DejaVuSans-2e" x="63.623047"/>
       <use xlink:href="#DejaVuSans-38" x="95.410156"/>
      </g>
     </g>
    </g>
    <g id="xtick_5">
     <g id="line2d_9">
      <path d="M 816.587273 390.04 
L 816.587273 26.88 
" clip-path="url(#p0a92d750c5)" style="fill: none; stroke: #b0b0b0; stroke-width: 0.8; stroke-linecap: square"/>
     </g>
     <g id="line2d_10">
      <g>
       <use xlink:href="#mead40115ab" x="816.587273" y="390.04" style="stroke: #000000; stroke-width: 0.8"/>
      </g>
     </g>
     <g id="text_5">
      <!-- 1.0 -->
      <g transform="translate(808.63571 404.638438) scale(0.1 -0.1)">
       <defs>
        <path id="DejaVuSans-31" d="M 794 531 
L 1825 531 
L 1825 4091 
L 703 3866 
L 703 4441 
L 1819 4666 
L 2450 4666 
L 2450 531 
L 3481 531 
L 3481 0 
L 794 0 
L 794 531 
z
" transform="scale(0.015625)"/>
       </defs>
       <use xlink:href="#DejaVuSans-31"/>
       <use xlink:href="#DejaVuSans-2e" x="63.623047"/>
       <use xlink:href="#DejaVuSans-30" x="95.410156"/>
      </g>
     </g>
    </g>
    <g id="text_6">
     <!-- WSS Threshold -->
     <g transform="translate(412.940469 418.316562) scale(0.1 -0.1)">
      <defs>
       <path id="DejaVuSans-57" d="M 213 4666 
L 850 4666 
L 1831 722 
L 2809 4666 
L 3519 4666 
L 4500 722 
L 5478 4666 
L 6119 4666 
L 4947 0 
L 4153 0 
L 3169 4050 
L 2175 0 
L 1381 0 
L 213 4666 
z
" transform="scale(0.015625)"/>
       <path id="DejaVuSans-53" d="M 3425 4513 
L 3425 3897 
Q 3066 4069 2747 4153 
Q 2428 4238 2131 4238 
Q 1616 4238 1336 4038 
Q 1056 3838 1056 3469 
Q 1056 3159 1242 3001 
Q 1428 2844 1947 2747 
L 2328 2669 
Q 3034 2534 3370 2195 
Q 3706 1856 3706 1288 
Q 3706 609 3251 259 
Q 2797 -91 1919 -91 
Q 1588 -91 1214 -16 
Q 841 59 441 206 
L 441 856 
Q 825 641 1194 531 
Q 1563 422 1919 422 
Q 2459 422 2753 634 
Q 3047 847 3047 1241 
Q 3047 1584 2836 1778 
Q 2625 1972 2144 2069 
L 1759 2144 
Q 1053 2284 737 2584 
Q 422 2884 422 3419 
Q 422 4038 858 4394 
Q 1294 4750 2059 4750 
Q 2388 4750 2728 4690 
Q 3069 4631 3425 4513 
z
" transform="scale(0.015625)"/>
       <path id="DejaVuSans-20" transform="scale(0.015625)"/>
       <path id="DejaVuSans-54" d="M -19 4666 
L 3928 4666 
L 3928 4134 
L 2272 4134 
L 2272 0 
L 1638 0 
L 1638 4134 
L -19 4134 
L -19 4666 
z
" transform="scale(0.015625)"/>
       <path id="DejaVuSans-68" d="M 3513 2113 
L 3513 0 
L 2938 0 
L 2938 2094 
Q 2938 2591 2744 2837 
Q 2550 3084 2163 3084 
Q 1697 3084 1428 2787 
Q 1159 2491 1159 1978 
L 1159 0 
L 581 0 
L 581 4863 
L 1159 4863 
L 1159 2956 
Q 1366 3272 1645 3428 
Q 1925 3584 2291 3584 
Q 2894 3584 3203 3211 
Q 3513 2838 3513 2113 
z
" transform="scale(0.015625)"/>
       <path id="DejaVuSans-72" d="M 2631 2963 
Q 2534 3019 2420 3045 
Q 2306 3072 2169 3072 
Q 1681 3072 1420 2755 
Q 1159 2438 1159 1844 
L 1159 0 
L 581 0 
L 581 3500 
L 1159 3500 
L 1159 2956 
Q 1341 3275 1631 3429 
Q 1922 3584 2338 3584 
Q 2397 3584 2469 3576 
Q 2541 3569 2628 3553 
L 2631 2963 
z
" transform="scale(0.015625)"/>
       <path id="DejaVuSans-65" d="M 3597 1894 
L 3597 1613 
L 953 1613 
Q 991 1019 1311 708 
Q 1631 397 2203 397 
Q 2534 397 2845 478 
Q 3156 559 3463 722 
L 3463 178 
Q 3153 47 2828 -22 
Q 2503 -91 2169 -91 
Q 1331 -91 842 396 
Q 353 884 353 1716 
Q 353 2575 817 3079 
Q 1281 3584 2069 3584 
Q 2775 3584 3186 3129 
Q 3597 2675 3597 1894 
z
M 3022 2063 
Q 3016 2534 2758 2815 
Q 2500 3097 2075 3097 
Q 1594 3097 1305 2825 
Q 1016 2553 972 2059 
L 3022 2063 
z
" transform="scale(0.015625)"/>
       <path id="DejaVuSans-73" d="M 2834 3397 
L 2834 2853 
Q 2591 2978 2328 3040 
Q 2066 3103 1784 3103 
Q 1356 3103 1142 2972 
Q 928 2841 928 2578 
Q 928 2378 1081 2264 
Q 1234 2150 1697 2047 
L 1894 2003 
Q 2506 1872 2764 1633 
Q 3022 1394 3022 966 
Q 3022 478 2636 193 
Q 2250 -91 1575 -91 
Q 1294 -91 989 -36 
Q 684 19 347 128 
L 347 722 
Q 666 556 975 473 
Q 1284 391 1588 391 
Q 1994 391 2212 530 
Q 2431 669 2431 922 
Q 2431 1156 2273 1281 
Q 2116 1406 1581 1522 
L 1381 1569 
Q 847 1681 609 1914 
Q 372 2147 372 2553 
Q 372 3047 722 3315 
Q 1072 3584 1716 3584 
Q 2034 3584 2315 3537 
Q 2597 3491 2834 3397 
z
" transform="scale(0.015625)"/>
       <path id="DejaVuSans-6f" d="M 1959 3097 
Q 1497 3097 1228 2736 
Q 959 2375 959 1747 
Q 959 1119 1226 758 
Q 1494 397 1959 397 
Q 2419 397 2687 759 
Q 2956 1122 2956 1747 
Q 2956 2369 2687 2733 
Q 2419 3097 1959 3097 
z
M 1959 3584 
Q 2709 3584 3137 3096 
Q 3566 2609 3566 1747 
Q 3566 888 3137 398 
Q 2709 -91 1959 -91 
Q 1206 -91 779 398 
Q 353 888 353 1747 
Q 353 2609 779 3096 
Q 1206 3584 1959 3584 
z
" transform="scale(0.015625)"/>
       <path id="DejaVuSans-6c" d="M 603 4863 
L 1178 4863 
L 1178 0 
L 603 0 
L 603 4863 
z
" transform="scale(0.015625)"/>
       <path id="DejaVuSans-64" d="M 2906 2969 
L 2906 4863 
L 3481 4863 
L 3481 0 
L 2906 0 
L 2906 525 
Q 2725 213 2448 61 
Q 2172 -91 1784 -91 
Q 1150 -91 751 415 
Q 353 922 353 1747 
Q 353 2572 751 3078 
Q 1150 3584 1784 3584 
Q 2172 3584 2448 3432 
Q 2725 3281 2906 2969 
z
M 947 1747 
Q 947 1113 1208 752 
Q 1469 391 1925 391 
Q 2381 391 2643 752 
Q 2906 1113 2906 1747 
Q 2906 2381 2643 2742 
Q 2381 3103 1925 3103 
Q 1469 3103 1208 2742 
Q 947 2381 947 1747 
z
" transform="scale(0.015625)"/>
      </defs>
      <use xlink:href="#DejaVuSans-57"/>
      <use xlink:href="#DejaVuSans-53" x="98.876953"/>
      <use xlink:href="#DejaVuSans-53" x="162.353516"/>
      <use xlink:href="#DejaVuSans-20" x="225.830078"/>
      <use xlink:href="#DejaVuSans-54" x="257.617188"/>
      <use xlink:href="#DejaVuSans-68" x="318.701172"/>
      <use xlink:href="#DejaVuSans-72" x="382.080078"/>
      <use xlink:href="#DejaVuSans-65" x="420.943359"/>
      <use xlink:href="#DejaVuSans-73" x="482.466797"/>
      <use xlink:href="#DejaVuSans-68" x="534.566406"/>
      <use xlink:href="#DejaVuSans-6f" x="597.945312"/>
      <use xlink:href="#DejaVuSans-6c" x="659.126953"/>
      <use xlink:href="#DejaVuSans-64" x="686.910156"/>
     </g>
    </g>
   </g>
   <g id="matplotlib.axis_2">
    <g id="ytick_1">
     <g id="line2d_11">
      <path d="M 47.72 384.450858 
L 853.2 384.450858 
" clip-path="url(#p0a92d750c5)" style="fill: none; stroke: #b0b0b0; stroke-width: 0.8; stroke-linecap: square"/>
     </g>
     <g id="line2d_12">
      <defs>
       <path id="mad74700b9e" d="M 0 0 
L -3.5 0 
" style="stroke: #000000; stroke-width: 0.8"/>
      </defs>
      <g>
       <use xlink:href="#mad74700b9e" x="47.72" y="384.450858" style="stroke: #000000; stroke-width: 0.8"/>
      </g>
     </g>
     <g id="text_7">
      <!-- 0.0 -->
      <g transform="translate(24.816875 388.250077) scale(0.1 -0.1)">
       <use xlink:href="#DejaVuSans-30"/>
       <use xlink:href="#DejaVuSans-2e" x="63.623047"/>
       <use xlink:href="#DejaVuSans-30" x="95.410156"/>
      </g>
     </g>
    </g>
    <g id="ytick_2">
     <g id="line2d_13">
      <path d="M 47.72 333.150731 
L 853.2 333.150731 
" clip-path="url(#p0a92d750c5)" style="fill: none; stroke: #b0b0b0; stroke-width: 0.8; stroke-linecap: square"/>
     </g>
     <g id="line2d_14">
      <g>
       <use xlink:href="#mad74700b9e" x="47.72" y="333.150731" style="stroke: #000000; stroke-width: 0.8"/>
      </g>
     </g>
     <g id="text_8">
      <!-- 0.1 -->
      <g transform="translate(24.816875 336.94995) scale(0.1 -0.1)">
       <use xlink:href="#DejaVuSans-30"/>
       <use xlink:href="#DejaVuSans-2e" x="63.623047"/>
       <use xlink:href="#DejaVuSans-31" x="95.410156"/>
      </g>
     </g>
    </g>
    <g id="ytick_3">
     <g id="line2d_15">
      <path d="M 47.72 281.850604 
L 853.2 281.850604 
" clip-path="url(#p0a92d750c5)" style="fill: none; stroke: #b0b0b0; stroke-width: 0.8; stroke-linecap: square"/>
     </g>
     <g id="line2d_16">
      <g>
       <use xlink:href="#mad74700b9e" x="47.72" y="281.850604" style="stroke: #000000; stroke-width: 0.8"/>
      </g>
     </g>
     <g id="text_9">
      <!-- 0.2 -->
      <g transform="translate(24.816875 285.649823) scale(0.1 -0.1)">
       <use xlink:href="#DejaVuSans-30"/>
       <use xlink:href="#DejaVuSans-2e" x="63.623047"/>
       <use xlink:href="#DejaVuSans-32" x="95.410156"/>
      </g>
     </g>
    </g>
    <g id="ytick_4">
     <g id="line2d_17">
      <path d="M 47.72 230.550476 
L 853.2 230.550476 
" clip-path="url(#p0a92d750c5)" style="fill: none; stroke: #b0b0b0; stroke-width: 0.8; stroke-linecap: square"/>
     </g>
     <g id="line2d_18">
      <g>
       <use xlink:href="#mad74700b9e" x="47.72" y="230.550476" style="stroke: #000000; stroke-width: 0.8"/>
      </g>
     </g>
     <g id="text_10">
      <!-- 0.3 -->
      <g transform="translate(24.816875 234.349695) scale(0.1 -0.1)">
       <defs>
        <path id="DejaVuSans-33" d="M 2597 2516 
Q 3050 2419 3304 2112 
Q 3559 1806 3559 1356 
Q 3559 666 3084 287 
Q 2609 -91 1734 -91 
Q 1441 -91 1130 -33 
Q 819 25 488 141 
L 488 750 
Q 750 597 1062 519 
Q 1375 441 1716 441 
Q 2309 441 2620 675 
Q 2931 909 2931 1356 
Q 2931 1769 2642 2001 
Q 2353 2234 1838 2234 
L 1294 2234 
L 1294 2753 
L 1863 2753 
Q 2328 2753 2575 2939 
Q 2822 3125 2822 3475 
Q 2822 3834 2567 4026 
Q 2313 4219 1838 4219 
Q 1578 4219 1281 4162 
Q 984 4106 628 3988 
L 628 4550 
Q 988 4650 1302 4700 
Q 1616 4750 1894 4750 
Q 2613 4750 3031 4423 
Q 3450 4097 3450 3541 
Q 3450 3153 3228 2886 
Q 3006 2619 2597 2516 
z
" transform="scale(0.015625)"/>
       </defs>
       <use xlink:href="#DejaVuSans-30"/>
       <use xlink:href="#DejaVuSans-2e" x="63.623047"/>
       <use xlink:href="#DejaVuSans-33" x="95.410156"/>
      </g>
     </g>
    </g>
    <g id="ytick_5">
     <g id="line2d_19">
      <path d="M 47.72 179.250349 
L 853.2 179.250349 
" clip-path="url(#p0a92d750c5)" style="fill: none; stroke: #b0b0b0; stroke-width: 0.8; stroke-linecap: square"/>
     </g>
     <g id="line2d_20">
      <g>
       <use xlink:href="#mad74700b9e" x="47.72" y="179.250349" style="stroke: #000000; stroke-width: 0.8"/>
      </g>
     </g>
     <g id="text_11">
      <!-- 0.4 -->
      <g transform="translate(24.816875 183.049568) scale(0.1 -0.1)">
       <use xlink:href="#DejaVuSans-30"/>
       <use xlink:href="#DejaVuSans-2e" x="63.623047"/>
       <use xlink:href="#DejaVuSans-34" x="95.410156"/>
      </g>
     </g>
    </g>
    <g id="ytick_6">
     <g id="line2d_21">
      <path d="M 47.72 127.950222 
L 853.2 127.950222 
" clip-path="url(#p0a92d750c5)" style="fill: none; stroke: #b0b0b0; stroke-width: 0.8; stroke-linecap: square"/>
     </g>
     <g id="line2d_22">
      <g>
       <use xlink:href="#mad74700b9e" x="47.72" y="127.950222" style="stroke: #000000; stroke-width: 0.8"/>
      </g>
     </g>
     <g id="text_12">
      <!-- 0.5 -->
      <g transform="translate(24.816875 131.749441) scale(0.1 -0.1)">
       <defs>
        <path id="DejaVuSans-35" d="M 691 4666 
L 3169 4666 
L 3169 4134 
L 1269 4134 
L 1269 2991 
Q 1406 3038 1543 3061 
Q 1681 3084 1819 3084 
Q 2600 3084 3056 2656 
Q 3513 2228 3513 1497 
Q 3513 744 3044 326 
Q 2575 -91 1722 -91 
Q 1428 -91 1123 -41 
Q 819 9 494 109 
L 494 744 
Q 775 591 1075 516 
Q 1375 441 1709 441 
Q 2250 441 2565 725 
Q 2881 1009 2881 1497 
Q 2881 1984 2565 2268 
Q 2250 2553 1709 2553 
Q 1456 2553 1204 2497 
Q 953 2441 691 2322 
L 691 4666 
z
" transform="scale(0.015625)"/>
       </defs>
       <use xlink:href="#DejaVuSans-30"/>
       <use xlink:href="#DejaVuSans-2e" x="63.623047"/>
       <use xlink:href="#DejaVuSans-35" x="95.410156"/>
      </g>
     </g>
    </g>
    <g id="ytick_7">
     <g id="line2d_23">
      <path d="M 47.72 76.650095 
L 853.2 76.650095 
" clip-path="url(#p0a92d750c5)" style="fill: none; stroke: #b0b0b0; stroke-width: 0.8; stroke-linecap: square"/>
     </g>
     <g id="line2d_24">
      <g>
       <use xlink:href="#mad74700b9e" x="47.72" y="76.650095" style="stroke: #000000; stroke-width: 0.8"/>
      </g>
     </g>
     <g id="text_13">
      <!-- 0.6 -->
      <g transform="translate(24.816875 80.449313) scale(0.1 -0.1)">
       <use xlink:href="#DejaVuSans-30"/>
       <use xlink:href="#DejaVuSans-2e" x="63.623047"/>
       <use xlink:href="#DejaVuSans-36" x="95.410156"/>
      </g>
     </g>
    </g>
    <g id="text_14">
     <!-- WSS Value -->
     <g transform="translate(18.737188 235.0725) rotate(-90) scale(0.1 -0.1)">
      <defs>
       <path id="DejaVuSans-56" d="M 1831 0 
L 50 4666 
L 709 4666 
L 2188 738 
L 3669 4666 
L 4325 4666 
L 2547 0 
L 1831 0 
z
" transform="scale(0.015625)"/>
       <path id="DejaVuSans-61" d="M 2194 1759 
Q 1497 1759 1228 1600 
Q 959 1441 959 1056 
Q 959 750 1161 570 
Q 1363 391 1709 391 
Q 2188 391 2477 730 
Q 2766 1069 2766 1631 
L 2766 1759 
L 2194 1759 
z
M 3341 1997 
L 3341 0 
L 2766 0 
L 2766 531 
Q 2569 213 2275 61 
Q 1981 -91 1556 -91 
Q 1019 -91 701 211 
Q 384 513 384 1019 
Q 384 1609 779 1909 
Q 1175 2209 1959 2209 
L 2766 2209 
L 2766 2266 
Q 2766 2663 2505 2880 
Q 2244 3097 1772 3097 
Q 1472 3097 1187 3025 
Q 903 2953 641 2809 
L 641 3341 
Q 956 3463 1253 3523 
Q 1550 3584 1831 3584 
Q 2591 3584 2966 3190 
Q 3341 2797 3341 1997 
z
" transform="scale(0.015625)"/>
       <path id="DejaVuSans-75" d="M 544 1381 
L 544 3500 
L 1119 3500 
L 1119 1403 
Q 1119 906 1312 657 
Q 1506 409 1894 409 
Q 2359 409 2629 706 
Q 2900 1003 2900 1516 
L 2900 3500 
L 3475 3500 
L 3475 0 
L 2900 0 
L 2900 538 
Q 2691 219 2414 64 
Q 2138 -91 1772 -91 
Q 1169 -91 856 284 
Q 544 659 544 1381 
z
M 1991 3584 
L 1991 3584 
z
" transform="scale(0.015625)"/>
      </defs>
      <use xlink:href="#DejaVuSans-57"/>
      <use xlink:href="#DejaVuSans-53" x="98.876953"/>
      <use xlink:href="#DejaVuSans-53" x="162.353516"/>
      <use xlink:href="#DejaVuSans-20" x="225.830078"/>
      <use xlink:href="#DejaVuSans-56" x="257.617188"/>
      <use xlink:href="#DejaVuSans-61" x="318.275391"/>
      <use xlink:href="#DejaVuSans-6c" x="379.554688"/>
      <use xlink:href="#DejaVuSans-75" x="407.337891"/>
      <use xlink:href="#DejaVuSans-65" x="470.716797"/>
     </g>
    </g>
   </g>
   <g id="line2d_25">
    <path d="M 84.332727 360.542897 
L 165.694343 334.235042 
L 247.05596 300.474653 
L 328.417576 262.873313 
L 409.779192 223.835684 
L 491.140808 186.321988 
L 572.502424 158.02547 
L 653.86404 123.443421 
L 735.225657 108.491165 
L 755.566061 105.615628 
L 775.906465 118.508737 
L 796.246869 139.4001 
L 816.587273 219.729626 
" clip-path="url(#p0a92d750c5)" style="fill: none; stroke: #808080; stroke-opacity: 0.2; stroke-linecap: square"/>
   </g>
   <g id="line2d_26">
    <path d="M 84.332727 331.02104 
L 165.694343 307.929531 
L 247.05596 275.475797 
L 328.417576 233.577326 
L 409.779192 187.927779 
L 491.140808 150.238854 
L 572.502424 118.729168 
L 653.86404 88.314515 
L 735.225657 73.389409 
L 755.566061 71.416638 
L 775.906465 70.409762 
L 796.246869 82.687751 
L 816.587273 117.181971 
" clip-path="url(#p0a92d750c5)" style="fill: none; stroke: #808080; stroke-opacity: 0.2; stroke-linecap: square"/>
   </g>
   <g id="line2d_27">
    <path d="M 84.332727 329.224976 
L 165.694343 304.15324 
L 247.05596 276.621649 
L 328.417576 232.421567 
L 409.779192 189.668627 
L 491.140808 151.207028 
L 572.502424 119.250135 
L 653.86404 83.684042 
L 735.225657 66.286157 
L 755.566061 66.850796 
L 775.906465 70.363367 
L 796.246869 84.638144 
L 816.587273 143.602057 
" clip-path="url(#p0a92d750c5)" style="fill: none; stroke: #808080; stroke-opacity: 0.2; stroke-linecap: square"/>
   </g>
   <g id="line2d_28">
    <path d="M 84.332727 344.19675 
L 165.694343 325.459078 
L 247.05596 298.605911 
L 328.417576 263.201592 
L 409.779192 234.372553 
L 491.140808 206.940818 
L 572.502424 179.613106 
L 653.86404 148.073336 
L 735.225657 135.513186 
L 755.566061 132.73268 
L 775.906465 130.819627 
L 796.246869 137.591843 
L 816.587273 181.132023 
" clip-path="url(#p0a92d750c5)" style="fill: none; stroke: #808080; stroke-opacity: 0.2; stroke-linecap: square"/>
   </g>
   <g id="line2d_29">
    <path d="M 84.332727 340.736407 
L 165.694343 309.54896 
L 247.05596 280.789828 
L 328.417576 240.277824 
L 409.779192 202.83883 
L 491.140808 167.333415 
L 572.502424 137.760216 
L 653.86404 105.747067 
L 735.225657 93.82529 
L 755.566061 95.381432 
L 775.906465 98.45347 
L 796.246869 115.901159 
L 816.587273 175.602262 
" clip-path="url(#p0a92d750c5)" style="fill: none; stroke: #808080; stroke-opacity: 0.2; stroke-linecap: square"/>
   </g>
   <g id="line2d_30">
    <path d="M 84.332727 340.693541 
L 165.694343 319.539959 
L 247.05596 285.502798 
L 328.417576 245.391586 
L 409.779192 206.976738 
L 491.140808 168.732833 
L 572.502424 137.159648 
L 653.86404 100.705377 
L 735.225657 87.309104 
L 755.566061 89.193151 
L 775.906465 95.690679 
L 796.246869 106.958822 
L 816.587273 146.136288 
" clip-path="url(#p0a92d750c5)" style="fill: none; stroke: #808080; stroke-opacity: 0.2; stroke-linecap: square"/>
   </g>
   <g id="line2d_31">
    <path d="M 84.332727 331.079346 
L 165.694343 306.40171 
L 247.05596 274.340268 
L 328.417576 232.009684 
L 409.779192 194.157586 
L 491.140808 153.52787 
L 572.502424 119.356215 
L 653.86404 79.806228 
L 735.225657 60.000452 
L 755.566061 61.990021 
L 775.906465 61.769046 
L 796.246869 73.071352 
L 816.587273 151.148785 
" clip-path="url(#p0a92d750c5)" style="fill: none; stroke: #808080; stroke-opacity: 0.2; stroke-linecap: square"/>
   </g>
   <g id="line2d_32">
    <path d="M 84.332727 355.788146 
L 165.694343 327.548401 
L 247.05596 307.046813 
L 328.417576 282.729234 
L 409.779192 269.09897 
L 491.140808 250.587536 
L 572.502424 251.269559 
L 653.86404 250.497529 
L 735.225657 278.028218 
L 755.566061 291.696301 
L 775.906465 307.029979 
L 796.246869 323.051274 
L 816.587273 359.902908 
" clip-path="url(#p0a92d750c5)" style="fill: none; stroke: #808080; stroke-opacity: 0.2; stroke-linecap: square"/>
   </g>
   <g id="line2d_33">
    <path d="M 84.332727 351.332907 
L 165.694343 316.904807 
L 247.05596 282.992229 
L 328.417576 242.13909 
L 409.779192 201.770298 
L 491.140808 172.032894 
L 572.502424 153.517876 
L 653.86404 142.795664 
L 735.225657 176.441429 
L 755.566061 181.419187 
L 775.906465 201.929502 
L 796.246869 218.276047 
L 816.587273 278.611456 
" clip-path="url(#p0a92d750c5)" style="fill: none; stroke: #808080; stroke-opacity: 0.2; stroke-linecap: square"/>
   </g>
   <g id="line2d_34">
    <path d="M 84.332727 355.668394 
L 165.694343 320.984344 
L 247.05596 289.592408 
L 328.417576 249.036808 
L 409.779192 208.869683 
L 491.140808 174.734488 
L 572.502424 143.436518 
L 653.86404 110.313605 
L 735.225657 100.144989 
L 755.566061 98.629879 
L 775.906465 103.246362 
L 796.246869 119.35475 
L 816.587273 156.83374 
" clip-path="url(#p0a92d750c5)" style="fill: none; stroke: #808080; stroke-opacity: 0.2; stroke-linecap: square"/>
   </g>
   <g id="line2d_35">
    <path d="M 84.332727 339.754307 
L 165.694343 319.035468 
L 247.05596 290.837139 
L 328.417576 248.822987 
L 409.779192 206.420345 
L 491.140808 170.211719 
L 572.502424 141.672382 
L 653.86404 106.71081 
L 735.225657 94.580889 
L 755.566061 92.777817 
L 775.906465 93.652826 
L 796.246869 107.911069 
L 816.587273 175.9793 
" clip-path="url(#p0a92d750c5)" style="fill: none; stroke: #808080; stroke-opacity: 0.2; stroke-linecap: square"/>
   </g>
   <g id="line2d_36">
    <path d="M 84.332727 350.970711 
L 165.694343 323.145838 
L 247.05596 296.040562 
L 328.417576 257.668761 
L 409.779192 223.82876 
L 491.140808 190.127931 
L 572.502424 165.011539 
L 653.86404 135.314882 
L 735.225657 130.261795 
L 755.566061 134.402042 
L 775.906465 145.466188 
L 796.246869 157.260903 
L 816.587273 225.770541 
" clip-path="url(#p0a92d750c5)" style="fill: none; stroke: #808080; stroke-opacity: 0.2; stroke-linecap: square"/>
   </g>
   <g id="line2d_37">
    <path d="M 84.332727 335.710964 
L 165.694343 317.428521 
L 247.05596 289.277589 
L 328.417576 250.311999 
L 409.779192 222.413087 
L 491.140808 190.739095 
L 572.502424 162.652336 
L 653.86404 129.258091 
L 735.225657 109.850656 
L 755.566061 110.877655 
L 775.906465 124.944608 
L 796.246869 142.854485 
L 816.587273 211.937316 
" clip-path="url(#p0a92d750c5)" style="fill: none; stroke: #808080; stroke-opacity: 0.2; stroke-linecap: square"/>
   </g>
   <g id="line2d_38">
    <path d="M 84.332727 335.543793 
L 165.694343 312.960412 
L 247.05596 271.7271 
L 328.417576 226.535843 
L 409.779192 185.411286 
L 491.140808 144.073041 
L 572.502424 110.753597 
L 653.86404 82.873265 
L 735.225657 59.666476 
L 755.566061 56.866117 
L 775.906465 60.098737 
L 796.246869 65.286327 
L 816.587273 158.333177 
" clip-path="url(#p0a92d750c5)" style="fill: none; stroke: #808080; stroke-opacity: 0.2; stroke-linecap: square"/>
   </g>
   <g id="line2d_39">
    <path d="M 84.332727 353.946522 
L 165.694343 329.287864 
L 247.05596 295.336446 
L 328.417576 256.290741 
L 409.779192 217.590143 
L 491.140808 185.207951 
L 572.502424 158.551285 
L 653.86404 130.392189 
L 735.225657 123.382138 
L 755.566061 125.189511 
L 775.906465 135.527734 
L 796.246869 159.489231 
L 816.587273 203.58131 
" clip-path="url(#p0a92d750c5)" style="fill: none; stroke: #808080; stroke-opacity: 0.2; stroke-linecap: square"/>
   </g>
   <g id="line2d_40">
    <path d="M 84.332727 335.743924 
L 165.694343 311.185803 
L 247.05596 271.497133 
L 328.417576 228.503668 
L 409.779192 189.282403 
L 491.140808 151.358428 
L 572.502424 118.616683 
L 653.86404 81.33076 
L 735.225657 60.199508 
L 755.566061 57.674109 
L 775.906465 56.772286 
L 796.246869 65.312082 
L 816.587273 120.309077 
" clip-path="url(#p0a92d750c5)" style="fill: none; stroke: #808080; stroke-opacity: 0.2; stroke-linecap: square"/>
   </g>
   <g id="line2d_41">
    <path d="M 84.332727 333.728713 
L 165.694343 312.241914 
L 247.05596 285.740884 
L 328.417576 245.190413 
L 409.779192 202.330247 
L 491.140808 165.168714 
L 572.502424 134.373996 
L 653.86404 98.930093 
L 735.225657 85.041379 
L 755.566061 87.877175 
L 775.906465 87.422766 
L 796.246869 102.169315 
L 816.587273 159.535868 
" clip-path="url(#p0a92d750c5)" style="fill: none; stroke: #808080; stroke-opacity: 0.2; stroke-linecap: square"/>
   </g>
   <g id="line2d_42">
    <path d="M 84.332727 336.710403 
L 165.694343 312.877918 
L 247.05596 272.300104 
L 328.417576 229.741208 
L 409.779192 199.226517 
L 491.140808 160.541562 
L 572.502424 126.581741 
L 653.86404 89.126625 
L 735.225657 70.139401 
L 755.566061 67.178998 
L 775.906465 65.228118 
L 796.246869 74.235411 
L 816.587273 115.178911 
" clip-path="url(#p0a92d750c5)" style="fill: none; stroke: #808080; stroke-opacity: 0.2; stroke-linecap: square"/>
   </g>
   <g id="line2d_43">
    <path d="M 84.332727 342.654392 
L 165.694343 319.046738 
L 247.05596 281.848406 
L 328.417576 240.775533 
L 409.779192 195.788898 
L 491.140808 156.710902 
L 572.502424 124.372866 
L 653.86404 93.615291 
L 735.225657 83.446491 
L 755.566061 86.148394 
L 775.906465 86.754124 
L 796.246869 98.416493 
L 816.587273 162.952387 
" clip-path="url(#p0a92d750c5)" style="fill: none; stroke: #808080; stroke-opacity: 0.2; stroke-linecap: square"/>
   </g>
   <g id="line2d_44">
    <path d="M 84.332727 336.405725 
L 165.694343 314.191738 
L 247.05596 282.27146 
L 328.417576 242.64925 
L 409.779192 205.419426 
L 491.140808 170.051045 
L 572.502424 139.072911 
L 653.86404 104.495468 
L 735.225657 98.09579 
L 755.566061 94.634108 
L 775.906465 100.316359 
L 796.246869 112.191324 
L 816.587273 192.297631 
" clip-path="url(#p0a92d750c5)" style="fill: none; stroke: #808080; stroke-opacity: 0.2; stroke-linecap: square"/>
   </g>
   <g id="line2d_45">
    <path d="M 84.332727 348.792305 
L 165.694343 317.991199 
L 247.05596 292.679993 
L 328.417576 257.502975 
L 409.779192 221.004226 
L 491.140808 191.100886 
L 572.502424 169.550076 
L 653.86404 157.291509 
L 735.225657 160.90533 
L 755.566061 163.632646 
L 775.906465 172.590399 
L 796.246869 188.803715 
L 816.587273 239.965878 
" clip-path="url(#p0a92d750c5)" style="fill: none; stroke: #808080; stroke-opacity: 0.2; stroke-linecap: square"/>
   </g>
   <g id="line2d_46">
    <path d="M 84.332727 338.506808 
L 165.694343 310.416463 
L 247.05596 274.912493 
L 328.417576 234.551257 
L 409.779192 193.448971 
L 491.140808 153.858429 
L 572.502424 120.235181 
L 653.86404 81.115805 
L 735.225657 67.84626 
L 755.566061 72.748066 
L 775.906465 75.435436 
L 796.246869 82.997585 
L 816.587273 136.7064 
" clip-path="url(#p0a92d750c5)" style="fill: none; stroke: #808080; stroke-opacity: 0.2; stroke-linecap: square"/>
   </g>
   <g id="line2d_47">
    <path d="M 84.332727 331.369313 
L 165.694343 309.158795 
L 247.05596 279.080699 
L 328.417576 235.694832 
L 409.779192 190.470168 
L 491.140808 152.410009 
L 572.502424 119.283339 
L 653.86404 85.656579 
L 735.225657 66.699801 
L 755.566061 65.235436 
L 775.906465 65.522021 
L 796.246869 72.339192 
L 816.587273 108.138886 
" clip-path="url(#p0a92d750c5)" style="fill: none; stroke: #808080; stroke-opacity: 0.2; stroke-linecap: square"/>
   </g>
   <g id="line2d_48">
    <path d="M 84.332727 334.359382 
L 165.694343 312.534986 
L 247.05596 291.970814 
L 328.417576 252.944027 
L 409.779192 207.36109 
L 491.140808 168.821666 
L 572.502424 135.253833 
L 653.86404 100.00906 
L 735.225657 81.284628 
L 755.566061 80.841318 
L 775.906465 79.472614 
L 796.246869 87.775954 
L 816.587273 123.239314 
" clip-path="url(#p0a92d750c5)" style="fill: none; stroke: #808080; stroke-opacity: 0.2; stroke-linecap: square"/>
   </g>
   <g id="line2d_49">
    <path d="M 84.332727 353.157965 
L 165.694343 317.236788 
L 247.05596 297.685454 
L 328.417576 261.90611 
L 409.779192 230.771653 
L 491.140808 197.109904 
L 572.502424 177.6254 
L 653.86404 154.565801 
L 735.225657 144.688095 
L 755.566061 143.779185 
L 775.906465 146.729378 
L 796.246869 162.358656 
L 816.587273 229.824612 
" clip-path="url(#p0a92d750c5)" style="fill: none; stroke: #808080; stroke-opacity: 0.2; stroke-linecap: square"/>
   </g>
   <g id="line2d_50">
    <path d="M 84.332727 355.187453 
L 165.694343 317.503347 
L 247.05596 284.521195 
L 328.417576 244.317655 
L 409.779192 208.241392 
L 491.140808 171.637943 
L 572.502424 143.765101 
L 653.86404 108.747453 
L 735.225657 95.243618 
L 755.566061 100.103183 
L 775.906465 108.773084 
L 796.246869 138.043824 
L 816.587273 243.886415 
" clip-path="url(#p0a92d750c5)" style="fill: none; stroke: #808080; stroke-opacity: 0.2; stroke-linecap: square"/>
   </g>
   <g id="line2d_51">
    <path d="M 84.332727 340.531042 
L 165.694343 316.739473 
L 247.05596 274.125475 
L 328.417576 231.994426 
L 409.779192 203.91796 
L 491.140808 166.487618 
L 572.502424 135.012605 
L 653.86404 97.907019 
L 735.225657 86.772479 
L 755.566061 83.463308 
L 775.906465 83.313321 
L 796.246869 95.16876 
L 816.587273 128.52453 
" clip-path="url(#p0a92d750c5)" style="fill: none; stroke: #808080; stroke-opacity: 0.2; stroke-linecap: square"/>
   </g>
   <g id="line2d_52">
    <path d="M 84.332727 331.067545 
L 165.694343 307.744756 
L 247.05596 274.442459 
L 328.417576 229.433666 
L 409.779192 183.517804 
L 491.140808 142.226034 
L 572.502424 108.478557 
L 653.86404 76.067781 
L 735.225657 58.388573 
L 755.566061 53.865546 
L 775.906465 57.845272 
L 796.246869 63.186309 
L 816.587273 120.755576 
" clip-path="url(#p0a92d750c5)" style="fill: none; stroke: #808080; stroke-opacity: 0.2; stroke-linecap: square"/>
   </g>
   <g id="line2d_53">
    <path d="M 84.332727 341.466993 
L 165.694343 317.736554 
L 247.05596 278.690432 
L 328.417576 234.268725 
L 409.779192 194.050801 
L 491.140808 157.056107 
L 572.502424 125.136924 
L 653.86404 92.899909 
L 735.225657 75.732992 
L 755.566061 74.622471 
L 775.906465 75.902789 
L 796.246869 89.066825 
L 816.587273 147.514824 
" clip-path="url(#p0a92d750c5)" style="fill: none; stroke: #808080; stroke-opacity: 0.2; stroke-linecap: square"/>
   </g>
   <g id="line2d_54">
    <path d="M 84.332727 334.389356 
L 165.694343 309.252975 
L 247.05596 271.539908 
L 328.417576 229.461759 
L 409.779192 194.70757 
L 491.140808 155.747951 
L 572.502424 124.237652 
L 653.86404 92.614518 
L 735.225657 86.863842 
L 755.566061 90.393796 
L 775.906465 97.122205 
L 796.246869 102.210471 
L 816.587273 203.613104 
" clip-path="url(#p0a92d750c5)" style="fill: none; stroke: #808080; stroke-opacity: 0.2; stroke-linecap: square"/>
   </g>
   <g id="line2d_55">
    <path d="M 84.332727 328.249868 
L 165.694343 303.053589 
L 247.05596 272.995755 
L 328.417576 230.517398 
L 409.779192 187.998267 
L 491.140808 148.708051 
L 572.502424 118.62165 
L 653.86404 82.423022 
L 735.225657 68.701791 
L 755.566061 68.275272 
L 775.906465 66.052115 
L 796.246869 71.905558 
L 816.587273 117.949786 
" clip-path="url(#p0a92d750c5)" style="fill: none; stroke: #808080; stroke-opacity: 0.2; stroke-linecap: square"/>
   </g>
   <g id="line2d_56">
    <path d="M 84.332727 341.561444 
L 165.694343 314.826776 
L 247.05596 278.782708 
L 328.417576 235.828276 
L 409.779192 198.040686 
L 491.140808 159.210935 
L 572.502424 130.128046 
L 653.86404 93.936228 
L 735.225657 81.507258 
L 755.566061 80.894343 
L 775.906465 92.859762 
L 796.246869 119.203147 
L 816.587273 170.835341 
" clip-path="url(#p0a92d750c5)" style="fill: none; stroke: #808080; stroke-opacity: 0.2; stroke-linecap: square"/>
   </g>
   <g id="line2d_57">
    <path d="M 84.332727 336.076531 
L 165.694343 311.190442 
L 247.05596 277.276124 
L 328.417576 233.541979 
L 409.779192 193.784973 
L 491.140808 154.142747 
L 572.502424 124.27272 
L 653.86404 88.979791 
L 735.225657 72.180617 
L 755.566061 74.083588 
L 775.906465 75.313624 
L 796.246869 86.120308 
L 816.587273 141.579952 
" clip-path="url(#p0a92d750c5)" style="fill: none; stroke: #808080; stroke-opacity: 0.2; stroke-linecap: square"/>
   </g>
   <g id="line2d_58">
    <path d="M 84.332727 349.80744 
L 165.694343 316.292078 
L 247.05596 283.312896 
L 328.417576 242.379201 
L 409.779192 199.920215 
L 491.140808 164.311815 
L 572.502424 135.312549 
L 653.86404 112.361139 
L 735.225657 109.140356 
L 755.566061 106.941765 
L 775.906465 125.902814 
L 796.246869 140.690174 
L 816.587273 201.390369 
" clip-path="url(#p0a92d750c5)" style="fill: none; stroke: #808080; stroke-opacity: 0.2; stroke-linecap: square"/>
   </g>
   <g id="line2d_59">
    <path d="M 84.332727 336.781051 
L 165.694343 312.660054 
L 247.05596 286.632127 
L 328.417576 243.238584 
L 409.779192 200.27823 
L 491.140808 166.388391 
L 572.502424 138.988524 
L 653.86404 110.926543 
L 735.225657 110.562661 
L 755.566061 117.340441 
L 775.906465 124.073418 
L 796.246869 145.446222 
L 816.587273 232.786228 
" clip-path="url(#p0a92d750c5)" style="fill: none; stroke: #808080; stroke-opacity: 0.2; stroke-linecap: square"/>
   </g>
   <g id="line2d_60">
    <path d="M 84.332727 350.614729 
L 165.694343 321.77329 
L 247.05596 288.27032 
L 328.417576 249.44221 
L 409.779192 206.370874 
L 491.140808 170.781126 
L 572.502424 148.15442 
L 653.86404 121.946223 
L 735.225657 108.235213 
L 755.566061 114.166103 
L 775.906465 122.409383 
L 796.246869 137.48905 
L 816.587273 219.942759 
" clip-path="url(#p0a92d750c5)" style="fill: none; stroke: #808080; stroke-opacity: 0.2; stroke-linecap: square"/>
   </g>
   <g id="line2d_61">
    <path d="M 84.332727 349.298959 
L 165.694343 320.210435 
L 247.05596 289.363958 
L 328.417576 250.792098 
L 409.779192 212.835377 
L 491.140808 176.277314 
L 572.502424 146.453137 
L 653.86404 113.826353 
L 735.225657 104.106851 
L 755.566061 103.776208 
L 775.906465 105.617063 
L 796.246869 124.552341 
L 816.587273 208.107755 
" clip-path="url(#p0a92d750c5)" style="fill: none; stroke: #808080; stroke-opacity: 0.2; stroke-linecap: square"/>
   </g>
   <g id="line2d_62">
    <path d="M 84.332727 347.359959 
L 165.694343 320.093816 
L 247.05596 286.815499 
L 328.417576 247.882446 
L 409.779192 207.690578 
L 491.140808 170.459953 
L 572.502424 138.909187 
L 653.86404 104.568969 
L 735.225657 92.389206 
L 755.566061 91.556296 
L 775.906465 89.003249 
L 796.246869 96.416336 
L 816.587273 148.805608 
" clip-path="url(#p0a92d750c5)" style="fill: none; stroke: #808080; stroke-opacity: 0.2; stroke-linecap: square"/>
   </g>
   <g id="line2d_63">
    <path d="M 84.332727 330.74396 
L 165.694343 307.116065 
L 247.05596 282.946999 
L 328.417576 243.062258 
L 409.779192 199.499359 
L 491.140808 163.088876 
L 572.502424 132.514681 
L 653.86404 98.101687 
L 735.225657 80.505378 
L 755.566061 78.23536 
L 775.906465 82.131166 
L 796.246869 99.611143 
L 816.587273 147.237877 
" clip-path="url(#p0a92d750c5)" style="fill: none; stroke: #808080; stroke-opacity: 0.2; stroke-linecap: square"/>
   </g>
   <g id="line2d_64">
    <path d="M 84.332727 345.868545 
L 165.694343 318.055042 
L 247.05596 294.650077 
L 328.417576 259.514957 
L 409.779192 222.147914 
L 491.140808 194.08281 
L 572.502424 164.913652 
L 653.86404 141.423279 
L 735.225657 139.372599 
L 755.566061 145.488189 
L 775.906465 151.959238 
L 796.246869 176.433788 
L 816.587273 236.836572 
" clip-path="url(#p0a92d750c5)" style="fill: none; stroke: #808080; stroke-opacity: 0.2; stroke-linecap: square"/>
   </g>
   <g id="line2d_65">
    <path d="M 84.332727 338.336925 
L 165.694343 313.062262 
L 247.05596 276.861293 
L 328.417576 233.292815 
L 409.779192 188.713392 
L 491.140808 148.625355 
L 572.502424 114.706314 
L 653.86404 76.663353 
L 735.225657 62.250861 
L 755.566061 67.933135 
L 775.906465 66.497346 
L 796.246869 82.854687 
L 816.587273 126.560438 
" clip-path="url(#p0a92d750c5)" style="fill: none; stroke: #808080; stroke-opacity: 0.2; stroke-linecap: square"/>
   </g>
   <g id="line2d_66">
    <path d="M 84.332727 341.617059 
L 165.694343 318.132435 
L 247.05596 287.486702 
L 328.417576 246.264782 
L 409.779192 204.286913 
L 491.140808 166.471885 
L 572.502424 136.684035 
L 653.86404 107.549653 
L 735.225657 94.585642 
L 755.566061 94.843774 
L 775.906465 99.926194 
L 796.246869 114.739801 
L 816.587273 161.971293 
" clip-path="url(#p0a92d750c5)" style="fill: none; stroke: #808080; stroke-opacity: 0.2; stroke-linecap: square"/>
   </g>
   <g id="line2d_67">
    <path d="M 84.332727 373.129874 
L 165.694343 344.116384 
L 247.05596 314.008338 
L 328.417576 276.490458 
L 409.779192 241.552839 
L 491.140808 211.840342 
L 572.502424 186.955003 
L 653.86404 177.027302 
L 735.225657 163.282546 
L 755.566061 162.352132 
L 775.906465 177.149327 
L 796.246869 192.517108 
L 816.587273 224.096486 
" clip-path="url(#p0a92d750c5)" style="fill: none; stroke: #808080; stroke-opacity: 0.2; stroke-linecap: square"/>
   </g>
   <g id="line2d_68">
    <path d="M 84.332727 359.078503 
L 165.694343 315.588976 
L 247.05596 284.171874 
L 328.417576 244.658686 
L 409.779192 205.732238 
L 491.140808 168.842848 
L 572.502424 142.491837 
L 653.86404 117.602318 
L 735.225657 122.84408 
L 755.566061 124.408503 
L 775.906465 136.657311 
L 796.246869 165.506008 
L 816.587273 265.147815 
" clip-path="url(#p0a92d750c5)" style="fill: none; stroke: #808080; stroke-opacity: 0.2; stroke-linecap: square"/>
   </g>
   <g id="line2d_69">
    <path d="M 84.332727 366.171944 
L 165.694343 342.907953 
L 247.05596 326.47382 
L 328.417576 297.583689 
L 409.779192 269.240861 
L 491.140808 243.072695 
L 572.502424 226.799456 
L 653.86404 214.801686 
L 735.225657 223.916183 
L 755.566061 239.741887 
L 775.906465 243.493761 
L 796.246869 260.584102 
L 816.587273 316.845329 
" clip-path="url(#p0a92d750c5)" style="fill: none; stroke: #808080; stroke-opacity: 0.2; stroke-linecap: square"/>
   </g>
   <g id="line2d_70">
    <path d="M 84.332727 345.321782 
L 165.694343 320.702647 
L 247.05596 282.531113 
L 328.417576 242.1975 
L 409.779192 208.146258 
L 491.140808 169.786755 
L 572.502424 139.01152 
L 653.86404 103.071779 
L 735.225657 88.74288 
L 755.566061 91.83289 
L 775.906465 96.612557 
L 796.246869 113.067639 
L 816.587273 159.433073 
" clip-path="url(#p0a92d750c5)" style="fill: none; stroke: #808080; stroke-opacity: 0.2; stroke-linecap: square"/>
   </g>
   <g id="line2d_71">
    <path d="M 84.332727 365.127376 
L 165.694343 329.230522 
L 247.05596 311.609103 
L 328.417576 278.121301 
L 409.779192 239.720394 
L 491.140808 209.64066 
L 572.502424 185.808602 
L 653.86404 154.466603 
L 735.225657 144.315649 
L 755.566061 146.204343 
L 775.906465 152.891609 
L 796.246869 155.2238 
L 816.587273 210.712895 
" clip-path="url(#p0a92d750c5)" style="fill: none; stroke: #808080; stroke-opacity: 0.2; stroke-linecap: square"/>
   </g>
   <g id="line2d_72">
    <path d="M 84.332727 334.368117 
L 165.694343 308.8615 
L 247.05596 270.511562 
L 328.417576 228.948001 
L 409.779192 193.618347 
L 491.140808 155.283264 
L 572.502424 128.768088 
L 653.86404 93.852179 
L 735.225657 76.242973 
L 755.566061 76.126049 
L 775.906465 79.767433 
L 796.246869 98.119314 
L 816.587273 180.937785 
" clip-path="url(#p0a92d750c5)" style="fill: none; stroke: #808080; stroke-opacity: 0.2; stroke-linecap: square"/>
   </g>
   <g id="line2d_73">
    <path d="M 84.332727 336.786854 
L 165.694343 319.52783 
L 247.05596 291.088812 
L 328.417576 251.811545 
L 409.779192 220.166242 
L 491.140808 185.326732 
L 572.502424 160.864069 
L 653.86404 129.538636 
L 735.225657 110.460239 
L 755.566061 108.615581 
L 775.906465 116.950107 
L 796.246869 129.565457 
L 816.587273 188.2327 
" clip-path="url(#p0a92d750c5)" style="fill: none; stroke: #808080; stroke-opacity: 0.2; stroke-linecap: square"/>
   </g>
   <g id="line2d_74">
    <path d="M 84.332727 357.450028 
L 165.694343 327.858427 
L 247.05596 297.209878 
L 328.417576 256.766099 
L 409.779192 217.389493 
L 491.140808 184.702993 
L 572.502424 154.353958 
L 653.86404 132.966301 
L 735.225657 126.500433 
L 755.566061 126.810235 
L 775.906465 145.670663 
L 796.246869 154.604915 
L 816.587273 191.718757 
" clip-path="url(#p0a92d750c5)" style="fill: none; stroke: #808080; stroke-opacity: 0.2; stroke-linecap: square"/>
   </g>
   <g id="line2d_75">
    <path d="M 84.332727 337.457612 
L 165.694343 312.106442 
L 247.05596 270.758279 
L 328.417576 227.911202 
L 409.779192 200.021199 
L 491.140808 162.179853 
L 572.502424 126.368044 
L 653.86404 86.363285 
L 735.225657 67.346778 
L 755.566061 62.295693 
L 775.906465 63.278461 
L 796.246869 71.94388 
L 816.587273 114.489755 
" clip-path="url(#p0a92d750c5)" style="fill: none; stroke: #808080; stroke-opacity: 0.2; stroke-linecap: square"/>
   </g>
   <g id="line2d_76">
    <path d="M 84.332727 360.817341 
L 165.694343 330.221175 
L 247.05596 309.596926 
L 328.417576 275.045747 
L 409.779192 243.243217 
L 491.140808 216.681382 
L 572.502424 192.878366 
L 653.86404 162.777923 
L 735.225657 152.170577 
L 755.566061 152.723479 
L 775.906465 156.968306 
L 796.246869 164.111752 
L 816.587273 238.966214 
" clip-path="url(#p0a92d750c5)" style="fill: none; stroke: #808080; stroke-opacity: 0.2; stroke-linecap: square"/>
   </g>
   <g id="line2d_77">
    <path d="M 84.332727 354.90516 
L 165.694343 321.557616 
L 247.05596 296.895358 
L 328.417576 260.113506 
L 409.779192 227.051562 
L 491.140808 198.264304 
L 572.502424 173.571016 
L 653.86404 157.092513 
L 735.225657 170.461585 
L 755.566061 181.128042 
L 775.906465 190.798207 
L 796.246869 217.733604 
L 816.587273 272.977883 
" clip-path="url(#p0a92d750c5)" style="fill: none; stroke: #808080; stroke-opacity: 0.2; stroke-linecap: square"/>
   </g>
   <g id="line2d_78">
    <path d="M 84.332727 339.790708 
L 165.694343 315.553125 
L 247.05596 273.504065 
L 328.417576 231.086622 
L 409.779192 201.952416 
L 491.140808 163.583144 
L 572.502424 131.469403 
L 653.86404 93.911683 
L 735.225657 73.862744 
L 755.566061 70.229318 
L 775.906465 73.188729 
L 796.246869 89.465117 
L 816.587273 140.635831 
" clip-path="url(#p0a92d750c5)" style="fill: none; stroke: #808080; stroke-opacity: 0.2; stroke-linecap: square"/>
   </g>
   <g id="line2d_79">
    <path d="M 84.332727 335.312016 
L 165.694343 314.340965 
L 247.05596 288.737467 
L 328.417576 246.473152 
L 409.779192 199.162564 
L 491.140808 161.320218 
L 572.502424 128.571071 
L 653.86404 93.269259 
L 735.225657 75.121177 
L 755.566061 76.601838 
L 775.906465 77.686913 
L 796.246869 84.308103 
L 816.587273 121.630243 
" clip-path="url(#p0a92d750c5)" style="fill: none; stroke: #808080; stroke-opacity: 0.2; stroke-linecap: square"/>
   </g>
   <g id="line2d_80">
    <path d="M 84.332727 350.716151 
L 165.694343 316.309734 
L 247.05596 282.025458 
L 328.417576 238.718776 
L 409.779192 204.134923 
L 491.140808 166.018832 
L 572.502424 135.846874 
L 653.86404 100.369863 
L 735.225657 86.297044 
L 755.566061 86.485696 
L 775.906465 89.184551 
L 796.246869 96.865257 
L 816.587273 162.985992 
" clip-path="url(#p0a92d750c5)" style="fill: none; stroke: #808080; stroke-opacity: 0.2; stroke-linecap: square"/>
   </g>
   <g id="line2d_81">
    <path d="M 84.332727 347.335262 
L 165.694343 324.040938 
L 247.05596 297.152138 
L 328.417576 262.373617 
L 409.779192 225.669366 
L 491.140808 193.801344 
L 572.502424 170.141436 
L 653.86404 150.764373 
L 735.225657 157.851751 
L 755.566061 158.818931 
L 775.906465 162.48876 
L 796.246869 166.023453 
L 816.587273 224.896604 
" clip-path="url(#p0a92d750c5)" style="fill: none; stroke: #808080; stroke-opacity: 0.2; stroke-linecap: square"/>
   </g>
   <g id="line2d_82">
    <path d="M 84.332727 331.641116 
L 165.694343 307.913685 
L 247.05596 278.572234 
L 328.417576 235.526555 
L 409.779192 192.143833 
L 491.140808 154.169698 
L 572.502424 120.714991 
L 653.86404 86.048779 
L 735.225657 75.317221 
L 755.566061 77.455616 
L 775.906465 77.227091 
L 796.246869 89.737278 
L 816.587273 161.539525 
" clip-path="url(#p0a92d750c5)" style="fill: none; stroke: #808080; stroke-opacity: 0.2; stroke-linecap: square"/>
   </g>
   <g id="line2d_83">
    <path d="M 84.332727 340.375079 
L 165.694343 321.174043 
L 247.05596 299.990402 
L 328.417576 265.136161 
L 409.779192 236.015309 
L 491.140808 201.71428 
L 572.502424 174.379012 
L 653.86404 139.475439 
L 735.225657 129.19351 
L 755.566061 126.14733 
L 775.906465 122.620862 
L 796.246869 133.120082 
L 816.587273 180.032119 
" clip-path="url(#p0a92d750c5)" style="fill: none; stroke: #808080; stroke-opacity: 0.2; stroke-linecap: square"/>
   </g>
   <g id="line2d_84">
    <path d="M 84.332727 341.021525 
L 165.694343 317.030632 
L 247.05596 277.428024 
L 328.417576 235.204622 
L 409.779192 196.727181 
L 491.140808 162.064489 
L 572.502424 134.056516 
L 653.86404 97.565821 
L 735.225657 95.566539 
L 755.566061 93.748595 
L 775.906465 95.211241 
L 796.246869 118.053827 
L 816.587273 172.869912 
" clip-path="url(#p0a92d750c5)" style="fill: none; stroke: #808080; stroke-opacity: 0.2; stroke-linecap: square"/>
   </g>
   <g id="line2d_85">
    <path d="M 84.332727 332.12173 
L 165.694343 309.100388 
L 247.05596 275.658901 
L 328.417576 230.661558 
L 409.779192 183.42284 
L 491.140808 143.342321 
L 572.502424 110.453864 
L 653.86404 81.303038 
L 735.225657 63.175045 
L 755.566061 61.269789 
L 775.906465 64.518497 
L 796.246869 74.282921 
L 816.587273 149.110525 
" clip-path="url(#p0a92d750c5)" style="fill: none; stroke: #808080; stroke-opacity: 0.2; stroke-linecap: square"/>
   </g>
   <g id="line2d_86">
    <path d="M 84.332727 336.150981 
L 165.694343 308.928848 
L 247.05596 282.045681 
L 328.417576 240.933645 
L 409.779192 197.679388 
L 491.140808 158.387057 
L 572.502424 125.408015 
L 653.86404 93.952442 
L 735.225657 73.950595 
L 755.566061 74.437659 
L 775.906465 77.804988 
L 796.246869 87.340337 
L 816.587273 136.897591 
" clip-path="url(#p0a92d750c5)" style="fill: none; stroke: #808080; stroke-opacity: 0.2; stroke-linecap: square"/>
   </g>
   <g id="line2d_87">
    <path d="M 84.332727 332.657598 
L 165.694343 305.772637 
L 247.05596 275.692395 
L 328.417576 234.47607 
L 409.779192 192.426953 
L 491.140808 156.105295 
L 572.502424 125.738649 
L 653.86404 91.343048 
L 735.225657 77.922896 
L 755.566061 75.393264 
L 775.906465 79.950931 
L 796.246869 85.294508 
L 816.587273 164.988146 
" clip-path="url(#p0a92d750c5)" style="fill: none; stroke: #808080; stroke-opacity: 0.2; stroke-linecap: square"/>
   </g>
   <g id="line2d_88">
    <path d="M 84.332727 345.251323 
L 165.694343 321.035747 
L 247.05596 288.072385 
L 328.417576 247.173158 
L 409.779192 210.002775 
L 491.140808 176.1794 
L 572.502424 147.180482 
L 653.86404 122.973075 
L 735.225657 111.504862 
L 755.566061 119.072537 
L 775.906465 119.744222 
L 796.246869 120.185859 
L 816.587273 150.691431 
" clip-path="url(#p0a92d750c5)" style="fill: none; stroke: #808080; stroke-opacity: 0.2; stroke-linecap: square"/>
   </g>
   <g id="line2d_89">
    <path d="M 84.332727 351.558122 
L 165.694343 325.281506 
L 247.05596 290.873281 
L 328.417576 250.899957 
L 409.779192 214.532242 
L 491.140808 177.567133 
L 572.502424 147.89042 
L 653.86404 112.87338 
L 735.225657 100.162914 
L 755.566061 99.320079 
L 775.906465 99.06795 
L 796.246869 107.801923 
L 816.587273 183.01652 
" clip-path="url(#p0a92d750c5)" style="fill: none; stroke: #808080; stroke-opacity: 0.2; stroke-linecap: square"/>
   </g>
   <g id="line2d_90">
    <path d="M 84.332727 330.409011 
L 165.694343 305.883777 
L 247.05596 279.741526 
L 328.417576 238.023942 
L 409.779192 193.688987 
L 491.140808 157.671687 
L 572.502424 124.576257 
L 653.86404 89.487822 
L 735.225657 74.812813 
L 755.566061 75.427197 
L 775.906465 76.011324 
L 796.246869 79.558626 
L 816.587273 152.084444 
" clip-path="url(#p0a92d750c5)" style="fill: none; stroke: #808080; stroke-opacity: 0.2; stroke-linecap: square"/>
   </g>
   <g id="line2d_91">
    <path d="M 84.332727 367.499892 
L 165.694343 327.828558 
L 247.05596 290.173879 
L 328.417576 249.930449 
L 409.779192 218.156591 
L 491.140808 183.054978 
L 572.502424 150.064909 
L 653.86404 130.705995 
L 735.225657 122.501783 
L 755.566061 119.320983 
L 775.906465 133.471706 
L 796.246869 173.810907 
L 816.587273 256.431163 
" clip-path="url(#p0a92d750c5)" style="fill: none; stroke: #808080; stroke-opacity: 0.2; stroke-linecap: square"/>
   </g>
   <g id="line2d_92">
    <path d="M 84.332727 328.603959 
L 165.694343 306.122135 
L 247.05596 275.627574 
L 328.417576 233.635116 
L 409.779192 190.065855 
L 491.140808 150.726974 
L 572.502424 118.277832 
L 653.86404 85.164436 
L 735.225657 67.03971 
L 755.566061 63.789591 
L 775.906465 63.304571 
L 796.246869 77.878461 
L 816.587273 143.152223 
" clip-path="url(#p0a92d750c5)" style="fill: none; stroke: #808080; stroke-opacity: 0.2; stroke-linecap: square"/>
   </g>
   <g id="line2d_93">
    <path d="M 84.332727 338.308056 
L 165.694343 314.707259 
L 247.05596 282.878595 
L 328.417576 240.44366 
L 409.779192 196.363682 
L 491.140808 157.188912 
L 572.502424 123.61213 
L 653.86404 89.873551 
L 735.225657 75.05898 
L 755.566061 75.685736 
L 775.906465 75.435212 
L 796.246869 83.66534 
L 816.587273 174.050776 
" clip-path="url(#p0a92d750c5)" style="fill: none; stroke: #808080; stroke-opacity: 0.2; stroke-linecap: square"/>
   </g>
   <g id="line2d_94">
    <path d="M 84.332727 373.532727 
L 165.694343 341.269102 
L 247.05596 308.722456 
L 328.417576 268.27816 
L 409.779192 232.975977 
L 491.140808 198.737938 
L 572.502424 167.516237 
L 653.86404 142.387917 
L 735.225657 136.468588 
L 755.566061 132.944636 
L 775.906465 138.448566 
L 796.246869 150.499726 
L 816.587273 193.171133 
" clip-path="url(#p0a92d750c5)" style="fill: none; stroke: #808080; stroke-opacity: 0.2; stroke-linecap: square"/>
   </g>
   <g id="line2d_95">
    <path d="M 84.332727 360.085294 
L 165.694343 342.464046 
L 247.05596 317.013927 
L 328.417576 289.372237 
L 409.779192 265.697281 
L 491.140808 244.765659 
L 572.502424 228.985439 
L 653.86404 227.109976 
L 735.225657 227.279993 
L 755.566061 233.326403 
L 775.906465 246.379096 
L 796.246869 273.332193 
L 816.587273 306.066506 
" clip-path="url(#p0a92d750c5)" style="fill: none; stroke: #808080; stroke-opacity: 0.2; stroke-linecap: square"/>
   </g>
   <g id="line2d_96">
    <path d="M 84.332727 347.89555 
L 165.694343 332.871201 
L 247.05596 305.633467 
L 328.417576 272.014154 
L 409.779192 242.010101 
L 491.140808 215.003059 
L 572.502424 191.542276 
L 653.86404 154.981709 
L 735.225657 142.995815 
L 755.566061 143.300083 
L 775.906465 148.483824 
L 796.246869 158.32228 
L 816.587273 208.566515 
" clip-path="url(#p0a92d750c5)" style="fill: none; stroke: #808080; stroke-opacity: 0.2; stroke-linecap: square"/>
   </g>
   <g id="line2d_97">
    <path d="M 84.332727 336.589399 
L 165.694343 313.442811 
L 247.05596 282.447936 
L 328.417576 239.808843 
L 409.779192 201.001446 
L 491.140808 167.14505 
L 572.502424 137.749689 
L 653.86404 118.294831 
L 735.225657 116.225456 
L 755.566061 122.277974 
L 775.906465 125.206682 
L 796.246869 146.097371 
L 816.587273 214.287443 
" clip-path="url(#p0a92d750c5)" style="fill: none; stroke: #808080; stroke-opacity: 0.2; stroke-linecap: square"/>
   </g>
   <g id="line2d_98">
    <path d="M 84.332727 328.168302 
L 165.694343 302.35499 
L 247.05596 273.141855 
L 328.417576 231.957879 
L 409.779192 186.499585 
L 491.140808 147.982289 
L 572.502424 114.2523 
L 653.86404 80.014246 
L 735.225657 63.372953 
L 755.566061 64.806154 
L 775.906465 65.828234 
L 796.246869 71.116006 
L 816.587273 130.563844 
" clip-path="url(#p0a92d750c5)" style="fill: none; stroke: #808080; stroke-opacity: 0.2; stroke-linecap: square"/>
   </g>
   <g id="line2d_99">
    <path d="M 84.332727 350.415727 
L 165.694343 311.759917 
L 247.05596 281.176256 
L 328.417576 237.860095 
L 409.779192 195.208687 
L 491.140808 159.654365 
L 572.502424 128.128684 
L 653.86404 101.262366 
L 735.225657 90.747748 
L 755.566061 90.293306 
L 775.906465 95.185146 
L 796.246869 108.743083 
L 816.587273 178.082549 
" clip-path="url(#p0a92d750c5)" style="fill: none; stroke: #808080; stroke-opacity: 0.2; stroke-linecap: square"/>
   </g>
   <g id="line2d_100">
    <path d="M 84.332727 369.408549 
L 165.694343 337.095111 
L 247.05596 299.296113 
L 328.417576 264.694471 
L 409.779192 233.799393 
L 491.140808 197.478965 
L 572.502424 169.079188 
L 653.86404 134.440095 
L 735.225657 126.865951 
L 755.566061 127.619289 
L 775.906465 142.76795 
L 796.246869 156.725593 
L 816.587273 236.708057 
" clip-path="url(#p0a92d750c5)" style="fill: none; stroke: #808080; stroke-opacity: 0.2; stroke-linecap: square"/>
   </g>
   <g id="line2d_101">
    <path d="M 84.332727 333.049591 
L 165.694343 310.26152 
L 247.05596 285.742181 
L 328.417576 242.437536 
L 409.779192 198.654906 
L 491.140808 162.899009 
L 572.502424 128.330875 
L 653.86404 89.942659 
L 735.225657 72.936604 
L 755.566061 71.851569 
L 775.906465 71.819798 
L 796.246869 82.265854 
L 816.587273 116.82659 
" clip-path="url(#p0a92d750c5)" style="fill: none; stroke: #808080; stroke-opacity: 0.2; stroke-linecap: square"/>
   </g>
   <g id="line2d_102">
    <path d="M 84.332727 328.951671 
L 165.694343 305.217367 
L 247.05596 273.20253 
L 328.417576 228.196768 
L 409.779192 182.363237 
L 491.140808 142.86606 
L 572.502424 108.803997 
L 653.86404 76.933924 
L 735.225657 61.684365 
L 755.566061 58.30539 
L 775.906465 58.858784 
L 796.246869 65.747596 
L 816.587273 133.50578 
" clip-path="url(#p0a92d750c5)" style="fill: none; stroke: #808080; stroke-opacity: 0.2; stroke-linecap: square"/>
   </g>
   <g id="line2d_103">
    <path d="M 84.332727 327.274671 
L 165.694343 303.319171 
L 247.05596 272.009359 
L 328.417576 227.818041 
L 409.779192 186.539622 
L 491.140808 145.583774 
L 572.502424 110.622993 
L 653.86404 71.259506 
L 735.225657 53.66942 
L 755.566061 52.933733 
L 775.906465 56.127465 
L 796.246869 75.221619 
L 816.587273 149.838175 
" clip-path="url(#p0a92d750c5)" style="fill: none; stroke: #808080; stroke-opacity: 0.2; stroke-linecap: square"/>
   </g>
   <g id="line2d_104">
    <path d="M 84.332727 336.307747 
L 165.694343 314.534136 
L 247.05596 279.285466 
L 328.417576 235.250215 
L 409.779192 198.851399 
L 491.140808 158.166776 
L 572.502424 127.238344 
L 653.86404 92.772421 
L 735.225657 86.869965 
L 755.566061 85.645237 
L 775.906465 88.45685 
L 796.246869 103.503563 
L 816.587273 158.835414 
" clip-path="url(#p0a92d750c5)" style="fill: none; stroke: #808080; stroke-opacity: 0.2; stroke-linecap: square"/>
   </g>
   <g id="line2d_105">
    <path d="M 84.332727 342.084294 
L 165.694343 309.966501 
L 247.05596 281.414781 
L 328.417576 239.860359 
L 409.779192 196.319797 
L 491.140808 158.039378 
L 572.502424 127.506348 
L 653.86404 94.336291 
L 735.225657 81.029432 
L 755.566061 77.882436 
L 775.906465 78.730014 
L 796.246869 87.283571 
L 816.587273 144.657523 
" clip-path="url(#p0a92d750c5)" style="fill: none; stroke: #808080; stroke-opacity: 0.2; stroke-linecap: square"/>
   </g>
   <g id="line2d_106">
    <path d="M 84.332727 342.133224 
L 165.694343 326.104917 
L 247.05596 306.106529 
L 328.417576 271.569272 
L 409.779192 236.10808 
L 491.140808 207.692853 
L 572.502424 182.148103 
L 653.86404 148.407932 
L 735.225657 140.597868 
L 755.566061 138.399676 
L 775.906465 144.632678 
L 796.246869 162.798104 
L 816.587273 219.173815 
" clip-path="url(#p0a92d750c5)" style="fill: none; stroke: #808080; stroke-opacity: 0.2; stroke-linecap: square"/>
   </g>
   <g id="line2d_107">
    <path d="M 84.332727 337.765068 
L 165.694343 313.317992 
L 247.05596 277.89037 
L 328.417576 233.121245 
L 409.779192 192.630478 
L 491.140808 154.793419 
L 572.502424 121.697101 
L 653.86404 88.090062 
L 735.225657 85.60513 
L 755.566061 86.443507 
L 775.906465 91.130073 
L 796.246869 104.198674 
L 816.587273 165.1805 
" clip-path="url(#p0a92d750c5)" style="fill: none; stroke: #808080; stroke-opacity: 0.2; stroke-linecap: square"/>
   </g>
   <g id="line2d_108">
    <path d="M 84.332727 346.978408 
L 165.694343 324.532475 
L 247.05596 287.36479 
L 328.417576 247.35066 
L 409.779192 214.063443 
L 491.140808 179.395659 
L 572.502424 147.607275 
L 653.86404 116.50168 
L 735.225657 107.816512 
L 755.566061 108.663418 
L 775.906465 118.084227 
L 796.246869 145.3981 
L 816.587273 212.370049 
" clip-path="url(#p0a92d750c5)" style="fill: none; stroke: #808080; stroke-opacity: 0.2; stroke-linecap: square"/>
   </g>
   <g id="line2d_109">
    <path d="M 84.332727 335.768368 
L 165.694343 308.85892 
L 247.05596 280.046511 
L 328.417576 239.642192 
L 409.779192 200.312508 
L 491.140808 164.412945 
L 572.502424 137.397785 
L 653.86404 98.685422 
L 735.225657 82.475055 
L 755.566061 83.979085 
L 775.906465 88.3477 
L 796.246869 107.995975 
L 816.587273 168.728909 
" clip-path="url(#p0a92d750c5)" style="fill: none; stroke: #808080; stroke-opacity: 0.2; stroke-linecap: square"/>
   </g>
   <g id="line2d_110">
    <path d="M 84.332727 345.402939 
L 165.694343 308.74701 
L 247.05596 274.643393 
L 328.417576 231.439305 
L 409.779192 196.924525 
L 491.140808 161.390513 
L 572.502424 134.35381 
L 653.86404 129.628871 
L 735.225657 140.184653 
L 755.566061 146.196377 
L 775.906465 170.566338 
L 796.246869 201.580761 
L 816.587273 263.581979 
" clip-path="url(#p0a92d750c5)" style="fill: none; stroke: #8000ff; stroke-width: 1.5; stroke-linecap: square"/>
    <defs>
     <path id="m7a4a56a35a" d="M 0 3 
C 0.795609 3 1.55874 2.683901 2.12132 2.12132 
C 2.683901 1.55874 3 0.795609 3 0 
C 3 -0.795609 2.683901 -1.55874 2.12132 -2.12132 
C 1.55874 -2.683901 0.795609 -3 0 -3 
C -0.795609 -3 -1.55874 -2.683901 -2.12132 -2.12132 
C -2.683901 -1.55874 -3 -0.795609 -3 0 
C -3 0.795609 -2.683901 1.55874 -2.12132 2.12132 
C -1.55874 2.683901 -0.795609 3 0 3 
z
" style="stroke: #ffffff; stroke-width: 0.75"/>
    </defs>
    <g clip-path="url(#p0a92d750c5)">
     <use xlink:href="#m7a4a56a35a" x="84.332727" y="345.402939" style="fill: #8000ff; stroke: #ffffff; stroke-width: 0.75"/>
     <use xlink:href="#m7a4a56a35a" x="165.694343" y="308.74701" style="fill: #8000ff; stroke: #ffffff; stroke-width: 0.75"/>
     <use xlink:href="#m7a4a56a35a" x="247.05596" y="274.643393" style="fill: #8000ff; stroke: #ffffff; stroke-width: 0.75"/>
     <use xlink:href="#m7a4a56a35a" x="328.417576" y="231.439305" style="fill: #8000ff; stroke: #ffffff; stroke-width: 0.75"/>
     <use xlink:href="#m7a4a56a35a" x="409.779192" y="196.924525" style="fill: #8000ff; stroke: #ffffff; stroke-width: 0.75"/>
     <use xlink:href="#m7a4a56a35a" x="491.140808" y="161.390513" style="fill: #8000ff; stroke: #ffffff; stroke-width: 0.75"/>
     <use xlink:href="#m7a4a56a35a" x="572.502424" y="134.35381" style="fill: #8000ff; stroke: #ffffff; stroke-width: 0.75"/>
     <use xlink:href="#m7a4a56a35a" x="653.86404" y="129.628871" style="fill: #8000ff; stroke: #ffffff; stroke-width: 0.75"/>
     <use xlink:href="#m7a4a56a35a" x="735.225657" y="140.184653" style="fill: #8000ff; stroke: #ffffff; stroke-width: 0.75"/>
     <use xlink:href="#m7a4a56a35a" x="755.566061" y="146.196377" style="fill: #8000ff; stroke: #ffffff; stroke-width: 0.75"/>
     <use xlink:href="#m7a4a56a35a" x="775.906465" y="170.566338" style="fill: #8000ff; stroke: #ffffff; stroke-width: 0.75"/>
     <use xlink:href="#m7a4a56a35a" x="796.246869" y="201.580761" style="fill: #8000ff; stroke: #ffffff; stroke-width: 0.75"/>
     <use xlink:href="#m7a4a56a35a" x="816.587273" y="263.581979" style="fill: #8000ff; stroke: #ffffff; stroke-width: 0.75"/>
    </g>
   </g>
   <g id="line2d_111"/>
   <g id="line2d_112">
    <path d="M 84.332727 340.4816 
L 165.694343 316.016516 
L 247.05596 275.77761 
L 328.417576 231.880678 
L 409.779192 193.30158 
L 491.140808 157.172127 
L 572.502424 125.844809 
L 653.86404 87.89148 
L 735.225657 69.869576 
L 755.566061 70.236015 
L 775.906465 69.634163 
L 796.246869 81.063788 
L 816.587273 122.558185 
" clip-path="url(#p0a92d750c5)" style="fill: none; stroke: #2c7ef7; stroke-width: 1.5; stroke-linecap: square"/>
    <defs>
     <path id="ma2c8e2c5a5" d="M 0 3 
C 0.795609 3 1.55874 2.683901 2.12132 2.12132 
C 2.683901 1.55874 3 0.795609 3 0 
C 3 -0.795609 2.683901 -1.55874 2.12132 -2.12132 
C 1.55874 -2.683901 0.795609 -3 0 -3 
C -0.795609 -3 -1.55874 -2.683901 -2.12132 -2.12132 
C -2.683901 -1.55874 -3 -0.795609 -3 0 
C -3 0.795609 -2.683901 1.55874 -2.12132 2.12132 
C -1.55874 2.683901 -0.795609 3 0 3 
z
" style="stroke: #ffffff; stroke-width: 0.75"/>
    </defs>
    <g clip-path="url(#p0a92d750c5)">
     <use xlink:href="#ma2c8e2c5a5" x="84.332727" y="340.4816" style="fill: #2c7ef7; stroke: #ffffff; stroke-width: 0.75"/>
     <use xlink:href="#ma2c8e2c5a5" x="165.694343" y="316.016516" style="fill: #2c7ef7; stroke: #ffffff; stroke-width: 0.75"/>
     <use xlink:href="#ma2c8e2c5a5" x="247.05596" y="275.77761" style="fill: #2c7ef7; stroke: #ffffff; stroke-width: 0.75"/>
     <use xlink:href="#ma2c8e2c5a5" x="328.417576" y="231.880678" style="fill: #2c7ef7; stroke: #ffffff; stroke-width: 0.75"/>
     <use xlink:href="#ma2c8e2c5a5" x="409.779192" y="193.30158" style="fill: #2c7ef7; stroke: #ffffff; stroke-width: 0.75"/>
     <use xlink:href="#ma2c8e2c5a5" x="491.140808" y="157.172127" style="fill: #2c7ef7; stroke: #ffffff; stroke-width: 0.75"/>
     <use xlink:href="#ma2c8e2c5a5" x="572.502424" y="125.844809" style="fill: #2c7ef7; stroke: #ffffff; stroke-width: 0.75"/>
     <use xlink:href="#ma2c8e2c5a5" x="653.86404" y="87.89148" style="fill: #2c7ef7; stroke: #ffffff; stroke-width: 0.75"/>
     <use xlink:href="#ma2c8e2c5a5" x="735.225657" y="69.869576" style="fill: #2c7ef7; stroke: #ffffff; stroke-width: 0.75"/>
     <use xlink:href="#ma2c8e2c5a5" x="755.566061" y="70.236015" style="fill: #2c7ef7; stroke: #ffffff; stroke-width: 0.75"/>
     <use xlink:href="#ma2c8e2c5a5" x="775.906465" y="69.634163" style="fill: #2c7ef7; stroke: #ffffff; stroke-width: 0.75"/>
     <use xlink:href="#ma2c8e2c5a5" x="796.246869" y="81.063788" style="fill: #2c7ef7; stroke: #ffffff; stroke-width: 0.75"/>
     <use xlink:href="#ma2c8e2c5a5" x="816.587273" y="122.558185" style="fill: #2c7ef7; stroke: #ffffff; stroke-width: 0.75"/>
    </g>
   </g>
   <g id="line2d_113"/>
   <g id="line2d_114">
    <path d="M 84.332727 339.282473 
L 165.694343 315.806539 
L 247.05596 276.509609 
L 328.417576 232.310594 
L 409.779192 189.42147 
L 491.140808 154.512631 
L 572.502424 120.45659 
L 653.86404 82.858186 
L 735.225657 62.587374 
L 755.566061 59.928776 
L 775.906465 58.881319 
L 796.246869 68.197226 
L 816.587273 116.491123 
" clip-path="url(#p0a92d750c5)" style="fill: none; stroke: #2adddd; stroke-width: 1.5; stroke-linecap: square"/>
    <defs>
     <path id="mb787036af4" d="M 0 3 
C 0.795609 3 1.55874 2.683901 2.12132 2.12132 
C 2.683901 1.55874 3 0.795609 3 0 
C 3 -0.795609 2.683901 -1.55874 2.12132 -2.12132 
C 1.55874 -2.683901 0.795609 -3 0 -3 
C -0.795609 -3 -1.55874 -2.683901 -2.12132 -2.12132 
C -2.683901 -1.55874 -3 -0.795609 -3 0 
C -3 0.795609 -2.683901 1.55874 -2.12132 2.12132 
C -1.55874 2.683901 -0.795609 3 0 3 
z
" style="stroke: #ffffff; stroke-width: 0.75"/>
    </defs>
    <g clip-path="url(#p0a92d750c5)">
     <use xlink:href="#mb787036af4" x="84.332727" y="339.282473" style="fill: #2adddd; stroke: #ffffff; stroke-width: 0.75"/>
     <use xlink:href="#mb787036af4" x="165.694343" y="315.806539" style="fill: #2adddd; stroke: #ffffff; stroke-width: 0.75"/>
     <use xlink:href="#mb787036af4" x="247.05596" y="276.509609" style="fill: #2adddd; stroke: #ffffff; stroke-width: 0.75"/>
     <use xlink:href="#mb787036af4" x="328.417576" y="232.310594" style="fill: #2adddd; stroke: #ffffff; stroke-width: 0.75"/>
     <use xlink:href="#mb787036af4" x="409.779192" y="189.42147" style="fill: #2adddd; stroke: #ffffff; stroke-width: 0.75"/>
     <use xlink:href="#mb787036af4" x="491.140808" y="154.512631" style="fill: #2adddd; stroke: #ffffff; stroke-width: 0.75"/>
     <use xlink:href="#mb787036af4" x="572.502424" y="120.45659" style="fill: #2adddd; stroke: #ffffff; stroke-width: 0.75"/>
     <use xlink:href="#mb787036af4" x="653.86404" y="82.858186" style="fill: #2adddd; stroke: #ffffff; stroke-width: 0.75"/>
     <use xlink:href="#mb787036af4" x="735.225657" y="62.587374" style="fill: #2adddd; stroke: #ffffff; stroke-width: 0.75"/>
     <use xlink:href="#mb787036af4" x="755.566061" y="59.928776" style="fill: #2adddd; stroke: #ffffff; stroke-width: 0.75"/>
     <use xlink:href="#mb787036af4" x="775.906465" y="58.881319" style="fill: #2adddd; stroke: #ffffff; stroke-width: 0.75"/>
     <use xlink:href="#mb787036af4" x="796.246869" y="68.197226" style="fill: #2adddd; stroke: #ffffff; stroke-width: 0.75"/>
     <use xlink:href="#mb787036af4" x="816.587273" y="116.491123" style="fill: #2adddd; stroke: #ffffff; stroke-width: 0.75"/>
    </g>
   </g>
   <g id="line2d_115"/>
   <g id="line2d_116">
    <path d="M 84.332727 341.350223 
L 165.694343 325.136705 
L 247.05596 301.09371 
L 328.417576 267.020682 
L 409.779192 230.370449 
L 491.140808 203.422198 
L 572.502424 175.66063 
L 653.86404 150.930949 
L 735.225657 135.353306 
L 755.566061 130.622261 
L 775.906465 128.919263 
L 796.246869 126.436075 
L 816.587273 148.274679 
" clip-path="url(#p0a92d750c5)" style="fill: none; stroke: #80ffb4; stroke-width: 1.5; stroke-linecap: square"/>
    <defs>
     <path id="mb75ce71d9a" d="M 0 3 
C 0.795609 3 1.55874 2.683901 2.12132 2.12132 
C 2.683901 1.55874 3 0.795609 3 0 
C 3 -0.795609 2.683901 -1.55874 2.12132 -2.12132 
C 1.55874 -2.683901 0.795609 -3 0 -3 
C -0.795609 -3 -1.55874 -2.683901 -2.12132 -2.12132 
C -2.683901 -1.55874 -3 -0.795609 -3 0 
C -3 0.795609 -2.683901 1.55874 -2.12132 2.12132 
C -1.55874 2.683901 -0.795609 3 0 3 
z
" style="stroke: #ffffff; stroke-width: 0.75"/>
    </defs>
    <g clip-path="url(#p0a92d750c5)">
     <use xlink:href="#mb75ce71d9a" x="84.332727" y="341.350223" style="fill: #80ffb4; stroke: #ffffff; stroke-width: 0.75"/>
     <use xlink:href="#mb75ce71d9a" x="165.694343" y="325.136705" style="fill: #80ffb4; stroke: #ffffff; stroke-width: 0.75"/>
     <use xlink:href="#mb75ce71d9a" x="247.05596" y="301.09371" style="fill: #80ffb4; stroke: #ffffff; stroke-width: 0.75"/>
     <use xlink:href="#mb75ce71d9a" x="328.417576" y="267.020682" style="fill: #80ffb4; stroke: #ffffff; stroke-width: 0.75"/>
     <use xlink:href="#mb75ce71d9a" x="409.779192" y="230.370449" style="fill: #80ffb4; stroke: #ffffff; stroke-width: 0.75"/>
     <use xlink:href="#mb75ce71d9a" x="491.140808" y="203.422198" style="fill: #80ffb4; stroke: #ffffff; stroke-width: 0.75"/>
     <use xlink:href="#mb75ce71d9a" x="572.502424" y="175.66063" style="fill: #80ffb4; stroke: #ffffff; stroke-width: 0.75"/>
     <use xlink:href="#mb75ce71d9a" x="653.86404" y="150.930949" style="fill: #80ffb4; stroke: #ffffff; stroke-width: 0.75"/>
     <use xlink:href="#mb75ce71d9a" x="735.225657" y="135.353306" style="fill: #80ffb4; stroke: #ffffff; stroke-width: 0.75"/>
     <use xlink:href="#mb75ce71d9a" x="755.566061" y="130.622261" style="fill: #80ffb4; stroke: #ffffff; stroke-width: 0.75"/>
     <use xlink:href="#mb75ce71d9a" x="775.906465" y="128.919263" style="fill: #80ffb4; stroke: #ffffff; stroke-width: 0.75"/>
     <use xlink:href="#mb75ce71d9a" x="796.246869" y="126.436075" style="fill: #80ffb4; stroke: #ffffff; stroke-width: 0.75"/>
     <use xlink:href="#mb75ce71d9a" x="816.587273" y="148.274679" style="fill: #80ffb4; stroke: #ffffff; stroke-width: 0.75"/>
    </g>
   </g>
   <g id="line2d_117"/>
   <g id="line2d_118">
    <path d="M 84.332727 345.770857 
L 165.694343 318.337792 
L 247.05596 278.183721 
L 328.417576 239.084774 
L 409.779192 198.099259 
L 491.140808 158.669317 
L 572.502424 128.016301 
L 653.86404 94.075129 
L 735.225657 76.952225 
L 755.566061 74.778852 
L 775.906465 71.698782 
L 796.246869 84.927379 
L 816.587273 134.891829 
" clip-path="url(#p0a92d750c5)" style="fill: none; stroke: #d4dd80; stroke-width: 1.5; stroke-linecap: square"/>
    <defs>
     <path id="med484a4877" d="M 0 3 
C 0.795609 3 1.55874 2.683901 2.12132 2.12132 
C 2.683901 1.55874 3 0.795609 3 0 
C 3 -0.795609 2.683901 -1.55874 2.12132 -2.12132 
C 1.55874 -2.683901 0.795609 -3 0 -3 
C -0.795609 -3 -1.55874 -2.683901 -2.12132 -2.12132 
C -2.683901 -1.55874 -3 -0.795609 -3 0 
C -3 0.795609 -2.683901 1.55874 -2.12132 2.12132 
C -1.55874 2.683901 -0.795609 3 0 3 
z
" style="stroke: #ffffff; stroke-width: 0.75"/>
    </defs>
    <g clip-path="url(#p0a92d750c5)">
     <use xlink:href="#med484a4877" x="84.332727" y="345.770857" style="fill: #d4dd80; stroke: #ffffff; stroke-width: 0.75"/>
     <use xlink:href="#med484a4877" x="165.694343" y="318.337792" style="fill: #d4dd80; stroke: #ffffff; stroke-width: 0.75"/>
     <use xlink:href="#med484a4877" x="247.05596" y="278.183721" style="fill: #d4dd80; stroke: #ffffff; stroke-width: 0.75"/>
     <use xlink:href="#med484a4877" x="328.417576" y="239.084774" style="fill: #d4dd80; stroke: #ffffff; stroke-width: 0.75"/>
     <use xlink:href="#med484a4877" x="409.779192" y="198.099259" style="fill: #d4dd80; stroke: #ffffff; stroke-width: 0.75"/>
     <use xlink:href="#med484a4877" x="491.140808" y="158.669317" style="fill: #d4dd80; stroke: #ffffff; stroke-width: 0.75"/>
     <use xlink:href="#med484a4877" x="572.502424" y="128.016301" style="fill: #d4dd80; stroke: #ffffff; stroke-width: 0.75"/>
     <use xlink:href="#med484a4877" x="653.86404" y="94.075129" style="fill: #d4dd80; stroke: #ffffff; stroke-width: 0.75"/>
     <use xlink:href="#med484a4877" x="735.225657" y="76.952225" style="fill: #d4dd80; stroke: #ffffff; stroke-width: 0.75"/>
     <use xlink:href="#med484a4877" x="755.566061" y="74.778852" style="fill: #d4dd80; stroke: #ffffff; stroke-width: 0.75"/>
     <use xlink:href="#med484a4877" x="775.906465" y="71.698782" style="fill: #d4dd80; stroke: #ffffff; stroke-width: 0.75"/>
     <use xlink:href="#med484a4877" x="796.246869" y="84.927379" style="fill: #d4dd80; stroke: #ffffff; stroke-width: 0.75"/>
     <use xlink:href="#med484a4877" x="816.587273" y="134.891829" style="fill: #d4dd80; stroke: #ffffff; stroke-width: 0.75"/>
    </g>
   </g>
   <g id="line2d_119"/>
   <g id="line2d_120">
    <path d="M 84.332727 333.171237 
L 165.694343 307.397452 
L 247.05596 277.563031 
L 328.417576 235.759783 
L 409.779192 192.156672 
L 491.140808 155.301492 
L 572.502424 122.331341 
L 653.86404 85.228077 
L 735.225657 62.859479 
L 755.566061 58.349919 
L 775.906465 58.546852 
L 796.246869 71.489067 
L 816.587273 109.908728 
" clip-path="url(#p0a92d750c5)" style="fill: none; stroke: #ff7e41; stroke-width: 1.5; stroke-linecap: square"/>
    <defs>
     <path id="meab487dfbc" d="M 0 3 
C 0.795609 3 1.55874 2.683901 2.12132 2.12132 
C 2.683901 1.55874 3 0.795609 3 0 
C 3 -0.795609 2.683901 -1.55874 2.12132 -2.12132 
C 1.55874 -2.683901 0.795609 -3 0 -3 
C -0.795609 -3 -1.55874 -2.683901 -2.12132 -2.12132 
C -2.683901 -1.55874 -3 -0.795609 -3 0 
C -3 0.795609 -2.683901 1.55874 -2.12132 2.12132 
C -1.55874 2.683901 -0.795609 3 0 3 
z
" style="stroke: #ffffff; stroke-width: 0.75"/>
    </defs>
    <g clip-path="url(#p0a92d750c5)">
     <use xlink:href="#meab487dfbc" x="84.332727" y="333.171237" style="fill: #ff7e41; stroke: #ffffff; stroke-width: 0.75"/>
     <use xlink:href="#meab487dfbc" x="165.694343" y="307.397452" style="fill: #ff7e41; stroke: #ffffff; stroke-width: 0.75"/>
     <use xlink:href="#meab487dfbc" x="247.05596" y="277.563031" style="fill: #ff7e41; stroke: #ffffff; stroke-width: 0.75"/>
     <use xlink:href="#meab487dfbc" x="328.417576" y="235.759783" style="fill: #ff7e41; stroke: #ffffff; stroke-width: 0.75"/>
     <use xlink:href="#meab487dfbc" x="409.779192" y="192.156672" style="fill: #ff7e41; stroke: #ffffff; stroke-width: 0.75"/>
     <use xlink:href="#meab487dfbc" x="491.140808" y="155.301492" style="fill: #ff7e41; stroke: #ffffff; stroke-width: 0.75"/>
     <use xlink:href="#meab487dfbc" x="572.502424" y="122.331341" style="fill: #ff7e41; stroke: #ffffff; stroke-width: 0.75"/>
     <use xlink:href="#meab487dfbc" x="653.86404" y="85.228077" style="fill: #ff7e41; stroke: #ffffff; stroke-width: 0.75"/>
     <use xlink:href="#meab487dfbc" x="735.225657" y="62.859479" style="fill: #ff7e41; stroke: #ffffff; stroke-width: 0.75"/>
     <use xlink:href="#meab487dfbc" x="755.566061" y="58.349919" style="fill: #ff7e41; stroke: #ffffff; stroke-width: 0.75"/>
     <use xlink:href="#meab487dfbc" x="775.906465" y="58.546852" style="fill: #ff7e41; stroke: #ffffff; stroke-width: 0.75"/>
     <use xlink:href="#meab487dfbc" x="796.246869" y="71.489067" style="fill: #ff7e41; stroke: #ffffff; stroke-width: 0.75"/>
     <use xlink:href="#meab487dfbc" x="816.587273" y="109.908728" style="fill: #ff7e41; stroke: #ffffff; stroke-width: 0.75"/>
    </g>
   </g>
   <g id="line2d_121"/>
   <g id="line2d_122">
    <path d="M 84.332727 337.999098 
L 165.694343 311.742028 
L 247.05596 271.849373 
L 328.417576 226.674734 
L 409.779192 184.413619 
L 491.140808 144.774147 
L 572.502424 110.571508 
L 653.86404 69.979708 
L 735.225657 51.876298 
L 755.566061 48.100901 
L 775.906465 43.387273 
L 796.246869 52.409391 
L 816.587273 98.204489 
" clip-path="url(#p0a92d750c5)" style="fill: none; stroke: #ff0000; stroke-width: 1.5; stroke-linecap: square"/>
    <defs>
     <path id="mb2a6b82a51" d="M 0 3 
C 0.795609 3 1.55874 2.683901 2.12132 2.12132 
C 2.683901 1.55874 3 0.795609 3 0 
C 3 -0.795609 2.683901 -1.55874 2.12132 -2.12132 
C 1.55874 -2.683901 0.795609 -3 0 -3 
C -0.795609 -3 -1.55874 -2.683901 -2.12132 -2.12132 
C -2.683901 -1.55874 -3 -0.795609 -3 0 
C -3 0.795609 -2.683901 1.55874 -2.12132 2.12132 
C -1.55874 2.683901 -0.795609 3 0 3 
z
" style="stroke: #ffffff; stroke-width: 0.75"/>
    </defs>
    <g clip-path="url(#p0a92d750c5)">
     <use xlink:href="#mb2a6b82a51" x="84.332727" y="337.999098" style="fill: #ff0000; stroke: #ffffff; stroke-width: 0.75"/>
     <use xlink:href="#mb2a6b82a51" x="165.694343" y="311.742028" style="fill: #ff0000; stroke: #ffffff; stroke-width: 0.75"/>
     <use xlink:href="#mb2a6b82a51" x="247.05596" y="271.849373" style="fill: #ff0000; stroke: #ffffff; stroke-width: 0.75"/>
     <use xlink:href="#mb2a6b82a51" x="328.417576" y="226.674734" style="fill: #ff0000; stroke: #ffffff; stroke-width: 0.75"/>
     <use xlink:href="#mb2a6b82a51" x="409.779192" y="184.413619" style="fill: #ff0000; stroke: #ffffff; stroke-width: 0.75"/>
     <use xlink:href="#mb2a6b82a51" x="491.140808" y="144.774147" style="fill: #ff0000; stroke: #ffffff; stroke-width: 0.75"/>
     <use xlink:href="#mb2a6b82a51" x="572.502424" y="110.571508" style="fill: #ff0000; stroke: #ffffff; stroke-width: 0.75"/>
     <use xlink:href="#mb2a6b82a51" x="653.86404" y="69.979708" style="fill: #ff0000; stroke: #ffffff; stroke-width: 0.75"/>
     <use xlink:href="#mb2a6b82a51" x="735.225657" y="51.876298" style="fill: #ff0000; stroke: #ffffff; stroke-width: 0.75"/>
     <use xlink:href="#mb2a6b82a51" x="755.566061" y="48.100901" style="fill: #ff0000; stroke: #ffffff; stroke-width: 0.75"/>
     <use xlink:href="#mb2a6b82a51" x="775.906465" y="43.387273" style="fill: #ff0000; stroke: #ffffff; stroke-width: 0.75"/>
     <use xlink:href="#mb2a6b82a51" x="796.246869" y="52.409391" style="fill: #ff0000; stroke: #ffffff; stroke-width: 0.75"/>
     <use xlink:href="#mb2a6b82a51" x="816.587273" y="98.204489" style="fill: #ff0000; stroke: #ffffff; stroke-width: 0.75"/>
    </g>
   </g>
   <g id="line2d_123"/>
   <g id="patch_3">
    <path d="M 47.72 390.04 
L 47.72 26.88 
" style="fill: none; stroke: #000000; stroke-width: 0.8; stroke-linejoin: miter; stroke-linecap: square"/>
   </g>
   <g id="patch_4">
    <path d="M 853.2 390.04 
L 853.2 26.88 
" style="fill: none; stroke: #000000; stroke-width: 0.8; stroke-linejoin: miter; stroke-linecap: square"/>
   </g>
   <g id="patch_5">
    <path d="M 47.72 390.04 
L 853.2 390.04 
" style="fill: none; stroke: #000000; stroke-width: 0.8; stroke-linejoin: miter; stroke-linecap: square"/>
   </g>
   <g id="patch_6">
    <path d="M 47.72 26.88 
L 853.2 26.88 
" style="fill: none; stroke: #000000; stroke-width: 0.8; stroke-linejoin: miter; stroke-linecap: square"/>
   </g>
   <g id="text_15">
    <!-- WSS Value Progression for Each Combination -->
    <g transform="translate(315.184375 20.88) scale(0.12 -0.12)">
     <defs>
      <path id="DejaVuSans-50" d="M 1259 4147 
L 1259 2394 
L 2053 2394 
Q 2494 2394 2734 2622 
Q 2975 2850 2975 3272 
Q 2975 3691 2734 3919 
Q 2494 4147 2053 4147 
L 1259 4147 
z
M 628 4666 
L 2053 4666 
Q 2838 4666 3239 4311 
Q 3641 3956 3641 3272 
Q 3641 2581 3239 2228 
Q 2838 1875 2053 1875 
L 1259 1875 
L 1259 0 
L 628 0 
L 628 4666 
z
" transform="scale(0.015625)"/>
      <path id="DejaVuSans-67" d="M 2906 1791 
Q 2906 2416 2648 2759 
Q 2391 3103 1925 3103 
Q 1463 3103 1205 2759 
Q 947 2416 947 1791 
Q 947 1169 1205 825 
Q 1463 481 1925 481 
Q 2391 481 2648 825 
Q 2906 1169 2906 1791 
z
M 3481 434 
Q 3481 -459 3084 -895 
Q 2688 -1331 1869 -1331 
Q 1566 -1331 1297 -1286 
Q 1028 -1241 775 -1147 
L 775 -588 
Q 1028 -725 1275 -790 
Q 1522 -856 1778 -856 
Q 2344 -856 2625 -561 
Q 2906 -266 2906 331 
L 2906 616 
Q 2728 306 2450 153 
Q 2172 0 1784 0 
Q 1141 0 747 490 
Q 353 981 353 1791 
Q 353 2603 747 3093 
Q 1141 3584 1784 3584 
Q 2172 3584 2450 3431 
Q 2728 3278 2906 2969 
L 2906 3500 
L 3481 3500 
L 3481 434 
z
" transform="scale(0.015625)"/>
      <path id="DejaVuSans-69" d="M 603 3500 
L 1178 3500 
L 1178 0 
L 603 0 
L 603 3500 
z
M 603 4863 
L 1178 4863 
L 1178 4134 
L 603 4134 
L 603 4863 
z
" transform="scale(0.015625)"/>
      <path id="DejaVuSans-6e" d="M 3513 2113 
L 3513 0 
L 2938 0 
L 2938 2094 
Q 2938 2591 2744 2837 
Q 2550 3084 2163 3084 
Q 1697 3084 1428 2787 
Q 1159 2491 1159 1978 
L 1159 0 
L 581 0 
L 581 3500 
L 1159 3500 
L 1159 2956 
Q 1366 3272 1645 3428 
Q 1925 3584 2291 3584 
Q 2894 3584 3203 3211 
Q 3513 2838 3513 2113 
z
" transform="scale(0.015625)"/>
      <path id="DejaVuSans-66" d="M 2375 4863 
L 2375 4384 
L 1825 4384 
Q 1516 4384 1395 4259 
Q 1275 4134 1275 3809 
L 1275 3500 
L 2222 3500 
L 2222 3053 
L 1275 3053 
L 1275 0 
L 697 0 
L 697 3053 
L 147 3053 
L 147 3500 
L 697 3500 
L 697 3744 
Q 697 4328 969 4595 
Q 1241 4863 1831 4863 
L 2375 4863 
z
" transform="scale(0.015625)"/>
      <path id="DejaVuSans-45" d="M 628 4666 
L 3578 4666 
L 3578 4134 
L 1259 4134 
L 1259 2753 
L 3481 2753 
L 3481 2222 
L 1259 2222 
L 1259 531 
L 3634 531 
L 3634 0 
L 628 0 
L 628 4666 
z
" transform="scale(0.015625)"/>
      <path id="DejaVuSans-63" d="M 3122 3366 
L 3122 2828 
Q 2878 2963 2633 3030 
Q 2388 3097 2138 3097 
Q 1578 3097 1268 2742 
Q 959 2388 959 1747 
Q 959 1106 1268 751 
Q 1578 397 2138 397 
Q 2388 397 2633 464 
Q 2878 531 3122 666 
L 3122 134 
Q 2881 22 2623 -34 
Q 2366 -91 2075 -91 
Q 1284 -91 818 406 
Q 353 903 353 1747 
Q 353 2603 823 3093 
Q 1294 3584 2113 3584 
Q 2378 3584 2631 3529 
Q 2884 3475 3122 3366 
z
" transform="scale(0.015625)"/>
      <path id="DejaVuSans-43" d="M 4122 4306 
L 4122 3641 
Q 3803 3938 3442 4084 
Q 3081 4231 2675 4231 
Q 1875 4231 1450 3742 
Q 1025 3253 1025 2328 
Q 1025 1406 1450 917 
Q 1875 428 2675 428 
Q 3081 428 3442 575 
Q 3803 722 4122 1019 
L 4122 359 
Q 3791 134 3420 21 
Q 3050 -91 2638 -91 
Q 1578 -91 968 557 
Q 359 1206 359 2328 
Q 359 3453 968 4101 
Q 1578 4750 2638 4750 
Q 3056 4750 3426 4639 
Q 3797 4528 4122 4306 
z
" transform="scale(0.015625)"/>
      <path id="DejaVuSans-6d" d="M 3328 2828 
Q 3544 3216 3844 3400 
Q 4144 3584 4550 3584 
Q 5097 3584 5394 3201 
Q 5691 2819 5691 2113 
L 5691 0 
L 5113 0 
L 5113 2094 
Q 5113 2597 4934 2840 
Q 4756 3084 4391 3084 
Q 3944 3084 3684 2787 
Q 3425 2491 3425 1978 
L 3425 0 
L 2847 0 
L 2847 2094 
Q 2847 2600 2669 2842 
Q 2491 3084 2119 3084 
Q 1678 3084 1418 2786 
Q 1159 2488 1159 1978 
L 1159 0 
L 581 0 
L 581 3500 
L 1159 3500 
L 1159 2956 
Q 1356 3278 1631 3431 
Q 1906 3584 2284 3584 
Q 2666 3584 2933 3390 
Q 3200 3197 3328 2828 
z
" transform="scale(0.015625)"/>
      <path id="DejaVuSans-62" d="M 3116 1747 
Q 3116 2381 2855 2742 
Q 2594 3103 2138 3103 
Q 1681 3103 1420 2742 
Q 1159 2381 1159 1747 
Q 1159 1113 1420 752 
Q 1681 391 2138 391 
Q 2594 391 2855 752 
Q 3116 1113 3116 1747 
z
M 1159 2969 
Q 1341 3281 1617 3432 
Q 1894 3584 2278 3584 
Q 2916 3584 3314 3078 
Q 3713 2572 3713 1747 
Q 3713 922 3314 415 
Q 2916 -91 2278 -91 
Q 1894 -91 1617 61 
Q 1341 213 1159 525 
L 1159 0 
L 581 0 
L 581 4863 
L 1159 4863 
L 1159 2969 
z
" transform="scale(0.015625)"/>
      <path id="DejaVuSans-74" d="M 1172 4494 
L 1172 3500 
L 2356 3500 
L 2356 3053 
L 1172 3053 
L 1172 1153 
Q 1172 725 1289 603 
Q 1406 481 1766 481 
L 2356 481 
L 2356 0 
L 1766 0 
Q 1100 0 847 248 
Q 594 497 594 1153 
L 594 3053 
L 172 3053 
L 172 3500 
L 594 3500 
L 594 4494 
L 1172 4494 
z
" transform="scale(0.015625)"/>
     </defs>
     <use xlink:href="#DejaVuSans-57"/>
     <use xlink:href="#DejaVuSans-53" x="98.876953"/>
     <use xlink:href="#DejaVuSans-53" x="162.353516"/>
     <use xlink:href="#DejaVuSans-20" x="225.830078"/>
     <use xlink:href="#DejaVuSans-56" x="257.617188"/>
     <use xlink:href="#DejaVuSans-61" x="318.275391"/>
     <use xlink:href="#DejaVuSans-6c" x="379.554688"/>
     <use xlink:href="#DejaVuSans-75" x="407.337891"/>
     <use xlink:href="#DejaVuSans-65" x="470.716797"/>
     <use xlink:href="#DejaVuSans-20" x="532.240234"/>
     <use xlink:href="#DejaVuSans-50" x="564.027344"/>
     <use xlink:href="#DejaVuSans-72" x="622.580078"/>
     <use xlink:href="#DejaVuSans-6f" x="661.443359"/>
     <use xlink:href="#DejaVuSans-67" x="722.625"/>
     <use xlink:href="#DejaVuSans-72" x="786.101562"/>
     <use xlink:href="#DejaVuSans-65" x="824.964844"/>
     <use xlink:href="#DejaVuSans-73" x="886.488281"/>
     <use xlink:href="#DejaVuSans-73" x="938.587891"/>
     <use xlink:href="#DejaVuSans-69" x="990.6875"/>
     <use xlink:href="#DejaVuSans-6f" x="1018.470703"/>
     <use xlink:href="#DejaVuSans-6e" x="1079.652344"/>
     <use xlink:href="#DejaVuSans-20" x="1143.03125"/>
     <use xlink:href="#DejaVuSans-66" x="1174.818359"/>
     <use xlink:href="#DejaVuSans-6f" x="1210.023438"/>
     <use xlink:href="#DejaVuSans-72" x="1271.205078"/>
     <use xlink:href="#DejaVuSans-20" x="1312.318359"/>
     <use xlink:href="#DejaVuSans-45" x="1344.105469"/>
     <use xlink:href="#DejaVuSans-61" x="1407.289062"/>
     <use xlink:href="#DejaVuSans-63" x="1468.568359"/>
     <use xlink:href="#DejaVuSans-68" x="1523.548828"/>
     <use xlink:href="#DejaVuSans-20" x="1586.927734"/>
     <use xlink:href="#DejaVuSans-43" x="1618.714844"/>
     <use xlink:href="#DejaVuSans-6f" x="1688.539062"/>
     <use xlink:href="#DejaVuSans-6d" x="1749.720703"/>
     <use xlink:href="#DejaVuSans-62" x="1847.132812"/>
     <use xlink:href="#DejaVuSans-69" x="1910.609375"/>
     <use xlink:href="#DejaVuSans-6e" x="1938.392578"/>
     <use xlink:href="#DejaVuSans-61" x="2001.771484"/>
     <use xlink:href="#DejaVuSans-74" x="2063.050781"/>
     <use xlink:href="#DejaVuSans-69" x="2102.259766"/>
     <use xlink:href="#DejaVuSans-6f" x="2130.042969"/>
     <use xlink:href="#DejaVuSans-6e" x="2191.224609"/>
    </g>
   </g>
   <g id="legend_1">
    <g id="patch_7">
     <path d="M 54.72 137.626875 
L 183.712187 137.626875 
Q 185.712187 137.626875 185.712187 135.626875 
L 185.712187 33.88 
Q 185.712187 31.88 183.712187 31.88 
L 54.72 31.88 
Q 52.72 31.88 52.72 33.88 
L 52.72 135.626875 
Q 52.72 137.626875 54.72 137.626875 
z
" style="fill: #ffffff; opacity: 0.8; stroke: #cccccc; stroke-linejoin: miter"/>
    </g>
    <g id="line2d_124">
     <path d="M 56.72 39.978437 
L 66.72 39.978437 
L 76.72 39.978437 
" style="fill: none; stroke: #8000ff; stroke-width: 1.5; stroke-linecap: square"/>
     <g>
      <use xlink:href="#m7a4a56a35a" x="66.72" y="39.978437" style="fill: #8000ff; stroke: #ffffff; stroke-width: 0.75"/>
     </g>
    </g>
    <g id="text_16">
     <!-- nn-2-layer + mxbai -->
     <g transform="translate(84.72 43.478437) scale(0.1 -0.1)">
      <defs>
       <path id="DejaVuSans-2d" d="M 313 2009 
L 1997 2009 
L 1997 1497 
L 313 1497 
L 313 2009 
z
" transform="scale(0.015625)"/>
       <path id="DejaVuSans-79" d="M 2059 -325 
Q 1816 -950 1584 -1140 
Q 1353 -1331 966 -1331 
L 506 -1331 
L 506 -850 
L 844 -850 
Q 1081 -850 1212 -737 
Q 1344 -625 1503 -206 
L 1606 56 
L 191 3500 
L 800 3500 
L 1894 763 
L 2988 3500 
L 3597 3500 
L 2059 -325 
z
" transform="scale(0.015625)"/>
       <path id="DejaVuSans-2b" d="M 2944 4013 
L 2944 2272 
L 4684 2272 
L 4684 1741 
L 2944 1741 
L 2944 0 
L 2419 0 
L 2419 1741 
L 678 1741 
L 678 2272 
L 2419 2272 
L 2419 4013 
L 2944 4013 
z
" transform="scale(0.015625)"/>
       <path id="DejaVuSans-78" d="M 3513 3500 
L 2247 1797 
L 3578 0 
L 2900 0 
L 1881 1375 
L 863 0 
L 184 0 
L 1544 1831 
L 300 3500 
L 978 3500 
L 1906 2253 
L 2834 3500 
L 3513 3500 
z
" transform="scale(0.015625)"/>
      </defs>
      <use xlink:href="#DejaVuSans-6e"/>
      <use xlink:href="#DejaVuSans-6e" x="63.378906"/>
      <use xlink:href="#DejaVuSans-2d" x="126.757812"/>
      <use xlink:href="#DejaVuSans-32" x="162.841797"/>
      <use xlink:href="#DejaVuSans-2d" x="226.464844"/>
      <use xlink:href="#DejaVuSans-6c" x="262.548828"/>
      <use xlink:href="#DejaVuSans-61" x="290.332031"/>
      <use xlink:href="#DejaVuSans-79" x="351.611328"/>
      <use xlink:href="#DejaVuSans-65" x="410.791016"/>
      <use xlink:href="#DejaVuSans-72" x="472.314453"/>
      <use xlink:href="#DejaVuSans-20" x="513.427734"/>
      <use xlink:href="#DejaVuSans-2b" x="545.214844"/>
      <use xlink:href="#DejaVuSans-20" x="629.003906"/>
      <use xlink:href="#DejaVuSans-6d" x="660.791016"/>
      <use xlink:href="#DejaVuSans-78" x="758.203125"/>
      <use xlink:href="#DejaVuSans-62" x="817.382812"/>
      <use xlink:href="#DejaVuSans-61" x="880.859375"/>
      <use xlink:href="#DejaVuSans-69" x="942.138672"/>
     </g>
    </g>
    <g id="line2d_125">
     <path d="M 56.72 54.656563 
L 66.72 54.656563 
L 76.72 54.656563 
" style="fill: none; stroke: #2c7ef7; stroke-width: 1.5; stroke-linecap: square"/>
     <g>
      <use xlink:href="#ma2c8e2c5a5" x="66.72" y="54.656563" style="fill: #2c7ef7; stroke: #ffffff; stroke-width: 0.75"/>
     </g>
    </g>
    <g id="text_17">
     <!-- svm + mxbai -->
     <g transform="translate(84.72 58.156563) scale(0.1 -0.1)">
      <defs>
       <path id="DejaVuSans-76" d="M 191 3500 
L 800 3500 
L 1894 563 
L 2988 3500 
L 3597 3500 
L 2284 0 
L 1503 0 
L 191 3500 
z
" transform="scale(0.015625)"/>
      </defs>
      <use xlink:href="#DejaVuSans-73"/>
      <use xlink:href="#DejaVuSans-76" x="52.099609"/>
      <use xlink:href="#DejaVuSans-6d" x="111.279297"/>
      <use xlink:href="#DejaVuSans-20" x="208.691406"/>
      <use xlink:href="#DejaVuSans-2b" x="240.478516"/>
      <use xlink:href="#DejaVuSans-20" x="324.267578"/>
      <use xlink:href="#DejaVuSans-6d" x="356.054688"/>
      <use xlink:href="#DejaVuSans-78" x="453.466797"/>
      <use xlink:href="#DejaVuSans-62" x="512.646484"/>
      <use xlink:href="#DejaVuSans-61" x="576.123047"/>
      <use xlink:href="#DejaVuSans-69" x="637.402344"/>
     </g>
    </g>
    <g id="line2d_126">
     <path d="M 56.72 69.334687 
L 66.72 69.334687 
L 76.72 69.334687 
" style="fill: none; stroke: #2adddd; stroke-width: 1.5; stroke-linecap: square"/>
     <g>
      <use xlink:href="#mb787036af4" x="66.72" y="69.334687" style="fill: #2adddd; stroke: #ffffff; stroke-width: 0.75"/>
     </g>
    </g>
    <g id="text_18">
     <!-- logistic + mxbai -->
     <g transform="translate(84.72 72.834687) scale(0.1 -0.1)">
      <use xlink:href="#DejaVuSans-6c"/>
      <use xlink:href="#DejaVuSans-6f" x="27.783203"/>
      <use xlink:href="#DejaVuSans-67" x="88.964844"/>
      <use xlink:href="#DejaVuSans-69" x="152.441406"/>
      <use xlink:href="#DejaVuSans-73" x="180.224609"/>
      <use xlink:href="#DejaVuSans-74" x="232.324219"/>
      <use xlink:href="#DejaVuSans-69" x="271.533203"/>
      <use xlink:href="#DejaVuSans-63" x="299.316406"/>
      <use xlink:href="#DejaVuSans-20" x="354.296875"/>
      <use xlink:href="#DejaVuSans-2b" x="386.083984"/>
      <use xlink:href="#DejaVuSans-20" x="469.873047"/>
      <use xlink:href="#DejaVuSans-6d" x="501.660156"/>
      <use xlink:href="#DejaVuSans-78" x="599.072266"/>
      <use xlink:href="#DejaVuSans-62" x="658.251953"/>
      <use xlink:href="#DejaVuSans-61" x="721.728516"/>
      <use xlink:href="#DejaVuSans-69" x="783.007812"/>
     </g>
    </g>
    <g id="line2d_127">
     <path d="M 56.72 84.012812 
L 66.72 84.012812 
L 76.72 84.012812 
" style="fill: none; stroke: #80ffb4; stroke-width: 1.5; stroke-linecap: square"/>
     <g>
      <use xlink:href="#mb75ce71d9a" x="66.72" y="84.012812" style="fill: #80ffb4; stroke: #ffffff; stroke-width: 0.75"/>
     </g>
    </g>
    <g id="text_19">
     <!-- knn + mxbai -->
     <g transform="translate(84.72 87.512812) scale(0.1 -0.1)">
      <defs>
       <path id="DejaVuSans-6b" d="M 581 4863 
L 1159 4863 
L 1159 1991 
L 2875 3500 
L 3609 3500 
L 1753 1863 
L 3688 0 
L 2938 0 
L 1159 1709 
L 1159 0 
L 581 0 
L 581 4863 
z
" transform="scale(0.015625)"/>
      </defs>
      <use xlink:href="#DejaVuSans-6b"/>
      <use xlink:href="#DejaVuSans-6e" x="57.910156"/>
      <use xlink:href="#DejaVuSans-6e" x="121.289062"/>
      <use xlink:href="#DejaVuSans-20" x="184.667969"/>
      <use xlink:href="#DejaVuSans-2b" x="216.455078"/>
      <use xlink:href="#DejaVuSans-20" x="300.244141"/>
      <use xlink:href="#DejaVuSans-6d" x="332.03125"/>
      <use xlink:href="#DejaVuSans-78" x="429.443359"/>
      <use xlink:href="#DejaVuSans-62" x="488.623047"/>
      <use xlink:href="#DejaVuSans-61" x="552.099609"/>
      <use xlink:href="#DejaVuSans-69" x="613.378906"/>
     </g>
    </g>
    <g id="line2d_128">
     <path d="M 56.72 98.690938 
L 66.72 98.690938 
L 76.72 98.690938 
" style="fill: none; stroke: #d4dd80; stroke-width: 1.5; stroke-linecap: square"/>
     <g>
      <use xlink:href="#med484a4877" x="66.72" y="98.690938" style="fill: #d4dd80; stroke: #ffffff; stroke-width: 0.75"/>
     </g>
    </g>
    <g id="text_20">
     <!-- adaboost + mxbai -->
     <g transform="translate(84.72 102.190938) scale(0.1 -0.1)">
      <use xlink:href="#DejaVuSans-61"/>
      <use xlink:href="#DejaVuSans-64" x="61.279297"/>
      <use xlink:href="#DejaVuSans-61" x="124.755859"/>
      <use xlink:href="#DejaVuSans-62" x="186.035156"/>
      <use xlink:href="#DejaVuSans-6f" x="249.511719"/>
      <use xlink:href="#DejaVuSans-6f" x="310.693359"/>
      <use xlink:href="#DejaVuSans-73" x="371.875"/>
      <use xlink:href="#DejaVuSans-74" x="423.974609"/>
      <use xlink:href="#DejaVuSans-20" x="463.183594"/>
      <use xlink:href="#DejaVuSans-2b" x="494.970703"/>
      <use xlink:href="#DejaVuSans-20" x="578.759766"/>
      <use xlink:href="#DejaVuSans-6d" x="610.546875"/>
      <use xlink:href="#DejaVuSans-78" x="707.958984"/>
      <use xlink:href="#DejaVuSans-62" x="767.138672"/>
      <use xlink:href="#DejaVuSans-61" x="830.615234"/>
      <use xlink:href="#DejaVuSans-69" x="891.894531"/>
     </g>
    </g>
    <g id="line2d_129">
     <path d="M 56.72 113.369062 
L 66.72 113.369062 
L 76.72 113.369062 
" style="fill: none; stroke: #ff7e41; stroke-width: 1.5; stroke-linecap: square"/>
     <g>
      <use xlink:href="#meab487dfbc" x="66.72" y="113.369062" style="fill: #ff7e41; stroke: #ffffff; stroke-width: 0.75"/>
     </g>
    </g>
    <g id="text_21">
     <!-- xgboost + mxbai -->
     <g transform="translate(84.72 116.869062) scale(0.1 -0.1)">
      <use xlink:href="#DejaVuSans-78"/>
      <use xlink:href="#DejaVuSans-67" x="59.179688"/>
      <use xlink:href="#DejaVuSans-62" x="122.65625"/>
      <use xlink:href="#DejaVuSans-6f" x="186.132812"/>
      <use xlink:href="#DejaVuSans-6f" x="247.314453"/>
      <use xlink:href="#DejaVuSans-73" x="308.496094"/>
      <use xlink:href="#DejaVuSans-74" x="360.595703"/>
      <use xlink:href="#DejaVuSans-20" x="399.804688"/>
      <use xlink:href="#DejaVuSans-2b" x="431.591797"/>
      <use xlink:href="#DejaVuSans-20" x="515.380859"/>
      <use xlink:href="#DejaVuSans-6d" x="547.167969"/>
      <use xlink:href="#DejaVuSans-78" x="644.580078"/>
      <use xlink:href="#DejaVuSans-62" x="703.759766"/>
      <use xlink:href="#DejaVuSans-61" x="767.236328"/>
      <use xlink:href="#DejaVuSans-69" x="828.515625"/>
     </g>
    </g>
    <g id="line2d_130">
     <path d="M 56.72 128.047187 
L 66.72 128.047187 
L 76.72 128.047187 
" style="fill: none; stroke: #ff0000; stroke-width: 1.5; stroke-linecap: square"/>
     <g>
      <use xlink:href="#mb2a6b82a51" x="66.72" y="128.047187" style="fill: #ff0000; stroke: #ffffff; stroke-width: 0.75"/>
     </g>
    </g>
    <g id="text_22">
     <!-- rf + mxbai -->
     <g transform="translate(84.72 131.547187) scale(0.1 -0.1)">
      <use xlink:href="#DejaVuSans-72"/>
      <use xlink:href="#DejaVuSans-66" x="41.113281"/>
      <use xlink:href="#DejaVuSans-20" x="76.318359"/>
      <use xlink:href="#DejaVuSans-2b" x="108.105469"/>
      <use xlink:href="#DejaVuSans-20" x="191.894531"/>
      <use xlink:href="#DejaVuSans-6d" x="223.681641"/>
      <use xlink:href="#DejaVuSans-78" x="321.09375"/>
      <use xlink:href="#DejaVuSans-62" x="380.273438"/>
      <use xlink:href="#DejaVuSans-61" x="443.75"/>
      <use xlink:href="#DejaVuSans-69" x="505.029297"/>
     </g>
    </g>
   </g>
  </g>
 </g>
 <defs>
  <clipPath id="p0a92d750c5">
   <rect x="47.72" y="26.88" width="805.48" height="363.16"/>
  </clipPath>
 </defs>
</svg>
