<?xml version="1.0" encoding="utf-8" standalone="no"?>
<!DOCTYPE svg PUBLIC "-//W3C//DTD SVG 1.1//EN"
  "http://www.w3.org/Graphics/SVG/1.1/DTD/svg11.dtd">
<svg xmlns:xlink="http://www.w3.org/1999/xlink" width="864pt" height="432pt" viewBox="0 0 864 432" xmlns="http://www.w3.org/2000/svg" version="1.1">
 <metadata>
  <rdf:RDF xmlns:dc="http://purl.org/dc/elements/1.1/" xmlns:cc="http://creativecommons.org/ns#" xmlns:rdf="http://www.w3.org/1999/02/22-rdf-syntax-ns#">
   <cc:Work>
    <dc:type rdf:resource="http://purl.org/dc/dcmitype/StillImage"/>
    <dc:date>2024-05-28T12:22:51.865910</dc:date>
    <dc:format>image/svg+xml</dc:format>
    <dc:creator>
     <cc:Agent>
      <dc:title>Matplotlib v3.8.4, https://matplotlib.org/</dc:title>
     </cc:Agent>
    </dc:creator>
   </cc:Work>
  </rdf:RDF>
 </metadata>
 <defs>
  <style type="text/css">*{stroke-linejoin: round; stroke-linecap: butt}</style>
 </defs>
 <g id="figure_1">
  <g id="patch_1">
   <path d="M 0 432 
L 864 432 
L 864 0 
L 0 0 
L 0 432 
z
" style="fill: none"/>
  </g>
  <g id="axes_1">
   <g id="patch_2">
    <path d="M 47.72 390.04 
L 853.2 390.04 
L 853.2 26.88 
L 47.72 26.88 
L 47.72 390.04 
z
" style="fill: none"/>
   </g>
   <g id="matplotlib.axis_1">
    <g id="xtick_1">
     <g id="line2d_1">
      <path d="M 165.694343 390.04 
L 165.694343 26.88 
" clip-path="url(#p2c149cc9da)" style="fill: none; stroke: #b0b0b0; stroke-width: 0.8; stroke-linecap: square"/>
     </g>
     <g id="line2d_2">
      <defs>
       <path id="maaa73ee5f1" d="M 0 0 
L 0 3.5 
" style="stroke: #000000; stroke-width: 0.8"/>
      </defs>
      <g>
       <use xlink:href="#maaa73ee5f1" x="165.694343" y="390.04" style="stroke: #000000; stroke-width: 0.8"/>
      </g>
     </g>
     <g id="text_1">
      <!-- 0.2 -->
      <g transform="translate(157.742781 404.638438) scale(0.1 -0.1)">
       <defs>
        <path id="DejaVuSans-30" d="M 2034 4250 
Q 1547 4250 1301 3770 
Q 1056 3291 1056 2328 
Q 1056 1369 1301 889 
Q 1547 409 2034 409 
Q 2525 409 2770 889 
Q 3016 1369 3016 2328 
Q 3016 3291 2770 3770 
Q 2525 4250 2034 4250 
z
M 2034 4750 
Q 2819 4750 3233 4129 
Q 3647 3509 3647 2328 
Q 3647 1150 3233 529 
Q 2819 -91 2034 -91 
Q 1250 -91 836 529 
Q 422 1150 422 2328 
Q 422 3509 836 4129 
Q 1250 4750 2034 4750 
z
" transform="scale(0.015625)"/>
        <path id="DejaVuSans-2e" d="M 684 794 
L 1344 794 
L 1344 0 
L 684 0 
L 684 794 
z
" transform="scale(0.015625)"/>
        <path id="DejaVuSans-32" d="M 1228 531 
L 3431 531 
L 3431 0 
L 469 0 
L 469 531 
Q 828 903 1448 1529 
Q 2069 2156 2228 2338 
Q 2531 2678 2651 2914 
Q 2772 3150 2772 3378 
Q 2772 3750 2511 3984 
Q 2250 4219 1831 4219 
Q 1534 4219 1204 4116 
Q 875 4013 500 3803 
L 500 4441 
Q 881 4594 1212 4672 
Q 1544 4750 1819 4750 
Q 2544 4750 2975 4387 
Q 3406 4025 3406 3419 
Q 3406 3131 3298 2873 
Q 3191 2616 2906 2266 
Q 2828 2175 2409 1742 
Q 1991 1309 1228 531 
z
" transform="scale(0.015625)"/>
       </defs>
       <use xlink:href="#DejaVuSans-30"/>
       <use xlink:href="#DejaVuSans-2e" x="63.623047"/>
       <use xlink:href="#DejaVuSans-32" x="95.410156"/>
      </g>
     </g>
    </g>
    <g id="xtick_2">
     <g id="line2d_3">
      <path d="M 328.417576 390.04 
L 328.417576 26.88 
" clip-path="url(#p2c149cc9da)" style="fill: none; stroke: #b0b0b0; stroke-width: 0.8; stroke-linecap: square"/>
     </g>
     <g id="line2d_4">
      <g>
       <use xlink:href="#maaa73ee5f1" x="328.417576" y="390.04" style="stroke: #000000; stroke-width: 0.8"/>
      </g>
     </g>
     <g id="text_2">
      <!-- 0.4 -->
      <g transform="translate(320.466013 404.638438) scale(0.1 -0.1)">
       <defs>
        <path id="DejaVuSans-34" d="M 2419 4116 
L 825 1625 
L 2419 1625 
L 2419 4116 
z
M 2253 4666 
L 3047 4666 
L 3047 1625 
L 3713 1625 
L 3713 1100 
L 3047 1100 
L 3047 0 
L 2419 0 
L 2419 1100 
L 313 1100 
L 313 1709 
L 2253 4666 
z
" transform="scale(0.015625)"/>
       </defs>
       <use xlink:href="#DejaVuSans-30"/>
       <use xlink:href="#DejaVuSans-2e" x="63.623047"/>
       <use xlink:href="#DejaVuSans-34" x="95.410156"/>
      </g>
     </g>
    </g>
    <g id="xtick_3">
     <g id="line2d_5">
      <path d="M 491.140808 390.04 
L 491.140808 26.88 
" clip-path="url(#p2c149cc9da)" style="fill: none; stroke: #b0b0b0; stroke-width: 0.8; stroke-linecap: square"/>
     </g>
     <g id="line2d_6">
      <g>
       <use xlink:href="#maaa73ee5f1" x="491.140808" y="390.04" style="stroke: #000000; stroke-width: 0.8"/>
      </g>
     </g>
     <g id="text_3">
      <!-- 0.6 -->
      <g transform="translate(483.189246 404.638438) scale(0.1 -0.1)">
       <defs>
        <path id="DejaVuSans-36" d="M 2113 2584 
Q 1688 2584 1439 2293 
Q 1191 2003 1191 1497 
Q 1191 994 1439 701 
Q 1688 409 2113 409 
Q 2538 409 2786 701 
Q 3034 994 3034 1497 
Q 3034 2003 2786 2293 
Q 2538 2584 2113 2584 
z
M 3366 4563 
L 3366 3988 
Q 3128 4100 2886 4159 
Q 2644 4219 2406 4219 
Q 1781 4219 1451 3797 
Q 1122 3375 1075 2522 
Q 1259 2794 1537 2939 
Q 1816 3084 2150 3084 
Q 2853 3084 3261 2657 
Q 3669 2231 3669 1497 
Q 3669 778 3244 343 
Q 2819 -91 2113 -91 
Q 1303 -91 875 529 
Q 447 1150 447 2328 
Q 447 3434 972 4092 
Q 1497 4750 2381 4750 
Q 2619 4750 2861 4703 
Q 3103 4656 3366 4563 
z
" transform="scale(0.015625)"/>
       </defs>
       <use xlink:href="#DejaVuSans-30"/>
       <use xlink:href="#DejaVuSans-2e" x="63.623047"/>
       <use xlink:href="#DejaVuSans-36" x="95.410156"/>
      </g>
     </g>
    </g>
    <g id="xtick_4">
     <g id="line2d_7">
      <path d="M 653.86404 390.04 
L 653.86404 26.88 
" clip-path="url(#p2c149cc9da)" style="fill: none; stroke: #b0b0b0; stroke-width: 0.8; stroke-linecap: square"/>
     </g>
     <g id="line2d_8">
      <g>
       <use xlink:href="#maaa73ee5f1" x="653.86404" y="390.04" style="stroke: #000000; stroke-width: 0.8"/>
      </g>
     </g>
     <g id="text_4">
      <!-- 0.8 -->
      <g transform="translate(645.912478 404.638438) scale(0.1 -0.1)">
       <defs>
        <path id="DejaVuSans-38" d="M 2034 2216 
Q 1584 2216 1326 1975 
Q 1069 1734 1069 1313 
Q 1069 891 1326 650 
Q 1584 409 2034 409 
Q 2484 409 2743 651 
Q 3003 894 3003 1313 
Q 3003 1734 2745 1975 
Q 2488 2216 2034 2216 
z
M 1403 2484 
Q 997 2584 770 2862 
Q 544 3141 544 3541 
Q 544 4100 942 4425 
Q 1341 4750 2034 4750 
Q 2731 4750 3128 4425 
Q 3525 4100 3525 3541 
Q 3525 3141 3298 2862 
Q 3072 2584 2669 2484 
Q 3125 2378 3379 2068 
Q 3634 1759 3634 1313 
Q 3634 634 3220 271 
Q 2806 -91 2034 -91 
Q 1263 -91 848 271 
Q 434 634 434 1313 
Q 434 1759 690 2068 
Q 947 2378 1403 2484 
z
M 1172 3481 
Q 1172 3119 1398 2916 
Q 1625 2713 2034 2713 
Q 2441 2713 2670 2916 
Q 2900 3119 2900 3481 
Q 2900 3844 2670 4047 
Q 2441 4250 2034 4250 
Q 1625 4250 1398 4047 
Q 1172 3844 1172 3481 
z
" transform="scale(0.015625)"/>
       </defs>
       <use xlink:href="#DejaVuSans-30"/>
       <use xlink:href="#DejaVuSans-2e" x="63.623047"/>
       <use xlink:href="#DejaVuSans-38" x="95.410156"/>
      </g>
     </g>
    </g>
    <g id="xtick_5">
     <g id="line2d_9">
      <path d="M 816.587273 390.04 
L 816.587273 26.88 
" clip-path="url(#p2c149cc9da)" style="fill: none; stroke: #b0b0b0; stroke-width: 0.8; stroke-linecap: square"/>
     </g>
     <g id="line2d_10">
      <g>
       <use xlink:href="#maaa73ee5f1" x="816.587273" y="390.04" style="stroke: #000000; stroke-width: 0.8"/>
      </g>
     </g>
     <g id="text_5">
      <!-- 1.0 -->
      <g transform="translate(808.63571 404.638438) scale(0.1 -0.1)">
       <defs>
        <path id="DejaVuSans-31" d="M 794 531 
L 1825 531 
L 1825 4091 
L 703 3866 
L 703 4441 
L 1819 4666 
L 2450 4666 
L 2450 531 
L 3481 531 
L 3481 0 
L 794 0 
L 794 531 
z
" transform="scale(0.015625)"/>
       </defs>
       <use xlink:href="#DejaVuSans-31"/>
       <use xlink:href="#DejaVuSans-2e" x="63.623047"/>
       <use xlink:href="#DejaVuSans-30" x="95.410156"/>
      </g>
     </g>
    </g>
    <g id="text_6">
     <!-- WSS Threshold -->
     <g transform="translate(412.940469 418.316562) scale(0.1 -0.1)">
      <defs>
       <path id="DejaVuSans-57" d="M 213 4666 
L 850 4666 
L 1831 722 
L 2809 4666 
L 3519 4666 
L 4500 722 
L 5478 4666 
L 6119 4666 
L 4947 0 
L 4153 0 
L 3169 4050 
L 2175 0 
L 1381 0 
L 213 4666 
z
" transform="scale(0.015625)"/>
       <path id="DejaVuSans-53" d="M 3425 4513 
L 3425 3897 
Q 3066 4069 2747 4153 
Q 2428 4238 2131 4238 
Q 1616 4238 1336 4038 
Q 1056 3838 1056 3469 
Q 1056 3159 1242 3001 
Q 1428 2844 1947 2747 
L 2328 2669 
Q 3034 2534 3370 2195 
Q 3706 1856 3706 1288 
Q 3706 609 3251 259 
Q 2797 -91 1919 -91 
Q 1588 -91 1214 -16 
Q 841 59 441 206 
L 441 856 
Q 825 641 1194 531 
Q 1563 422 1919 422 
Q 2459 422 2753 634 
Q 3047 847 3047 1241 
Q 3047 1584 2836 1778 
Q 2625 1972 2144 2069 
L 1759 2144 
Q 1053 2284 737 2584 
Q 422 2884 422 3419 
Q 422 4038 858 4394 
Q 1294 4750 2059 4750 
Q 2388 4750 2728 4690 
Q 3069 4631 3425 4513 
z
" transform="scale(0.015625)"/>
       <path id="DejaVuSans-20" transform="scale(0.015625)"/>
       <path id="DejaVuSans-54" d="M -19 4666 
L 3928 4666 
L 3928 4134 
L 2272 4134 
L 2272 0 
L 1638 0 
L 1638 4134 
L -19 4134 
L -19 4666 
z
" transform="scale(0.015625)"/>
       <path id="DejaVuSans-68" d="M 3513 2113 
L 3513 0 
L 2938 0 
L 2938 2094 
Q 2938 2591 2744 2837 
Q 2550 3084 2163 3084 
Q 1697 3084 1428 2787 
Q 1159 2491 1159 1978 
L 1159 0 
L 581 0 
L 581 4863 
L 1159 4863 
L 1159 2956 
Q 1366 3272 1645 3428 
Q 1925 3584 2291 3584 
Q 2894 3584 3203 3211 
Q 3513 2838 3513 2113 
z
" transform="scale(0.015625)"/>
       <path id="DejaVuSans-72" d="M 2631 2963 
Q 2534 3019 2420 3045 
Q 2306 3072 2169 3072 
Q 1681 3072 1420 2755 
Q 1159 2438 1159 1844 
L 1159 0 
L 581 0 
L 581 3500 
L 1159 3500 
L 1159 2956 
Q 1341 3275 1631 3429 
Q 1922 3584 2338 3584 
Q 2397 3584 2469 3576 
Q 2541 3569 2628 3553 
L 2631 2963 
z
" transform="scale(0.015625)"/>
       <path id="DejaVuSans-65" d="M 3597 1894 
L 3597 1613 
L 953 1613 
Q 991 1019 1311 708 
Q 1631 397 2203 397 
Q 2534 397 2845 478 
Q 3156 559 3463 722 
L 3463 178 
Q 3153 47 2828 -22 
Q 2503 -91 2169 -91 
Q 1331 -91 842 396 
Q 353 884 353 1716 
Q 353 2575 817 3079 
Q 1281 3584 2069 3584 
Q 2775 3584 3186 3129 
Q 3597 2675 3597 1894 
z
M 3022 2063 
Q 3016 2534 2758 2815 
Q 2500 3097 2075 3097 
Q 1594 3097 1305 2825 
Q 1016 2553 972 2059 
L 3022 2063 
z
" transform="scale(0.015625)"/>
       <path id="DejaVuSans-73" d="M 2834 3397 
L 2834 2853 
Q 2591 2978 2328 3040 
Q 2066 3103 1784 3103 
Q 1356 3103 1142 2972 
Q 928 2841 928 2578 
Q 928 2378 1081 2264 
Q 1234 2150 1697 2047 
L 1894 2003 
Q 2506 1872 2764 1633 
Q 3022 1394 3022 966 
Q 3022 478 2636 193 
Q 2250 -91 1575 -91 
Q 1294 -91 989 -36 
Q 684 19 347 128 
L 347 722 
Q 666 556 975 473 
Q 1284 391 1588 391 
Q 1994 391 2212 530 
Q 2431 669 2431 922 
Q 2431 1156 2273 1281 
Q 2116 1406 1581 1522 
L 1381 1569 
Q 847 1681 609 1914 
Q 372 2147 372 2553 
Q 372 3047 722 3315 
Q 1072 3584 1716 3584 
Q 2034 3584 2315 3537 
Q 2597 3491 2834 3397 
z
" transform="scale(0.015625)"/>
       <path id="DejaVuSans-6f" d="M 1959 3097 
Q 1497 3097 1228 2736 
Q 959 2375 959 1747 
Q 959 1119 1226 758 
Q 1494 397 1959 397 
Q 2419 397 2687 759 
Q 2956 1122 2956 1747 
Q 2956 2369 2687 2733 
Q 2419 3097 1959 3097 
z
M 1959 3584 
Q 2709 3584 3137 3096 
Q 3566 2609 3566 1747 
Q 3566 888 3137 398 
Q 2709 -91 1959 -91 
Q 1206 -91 779 398 
Q 353 888 353 1747 
Q 353 2609 779 3096 
Q 1206 3584 1959 3584 
z
" transform="scale(0.015625)"/>
       <path id="DejaVuSans-6c" d="M 603 4863 
L 1178 4863 
L 1178 0 
L 603 0 
L 603 4863 
z
" transform="scale(0.015625)"/>
       <path id="DejaVuSans-64" d="M 2906 2969 
L 2906 4863 
L 3481 4863 
L 3481 0 
L 2906 0 
L 2906 525 
Q 2725 213 2448 61 
Q 2172 -91 1784 -91 
Q 1150 -91 751 415 
Q 353 922 353 1747 
Q 353 2572 751 3078 
Q 1150 3584 1784 3584 
Q 2172 3584 2448 3432 
Q 2725 3281 2906 2969 
z
M 947 1747 
Q 947 1113 1208 752 
Q 1469 391 1925 391 
Q 2381 391 2643 752 
Q 2906 1113 2906 1747 
Q 2906 2381 2643 2742 
Q 2381 3103 1925 3103 
Q 1469 3103 1208 2742 
Q 947 2381 947 1747 
z
" transform="scale(0.015625)"/>
      </defs>
      <use xlink:href="#DejaVuSans-57"/>
      <use xlink:href="#DejaVuSans-53" x="98.876953"/>
      <use xlink:href="#DejaVuSans-53" x="162.353516"/>
      <use xlink:href="#DejaVuSans-20" x="225.830078"/>
      <use xlink:href="#DejaVuSans-54" x="257.617188"/>
      <use xlink:href="#DejaVuSans-68" x="318.701172"/>
      <use xlink:href="#DejaVuSans-72" x="382.080078"/>
      <use xlink:href="#DejaVuSans-65" x="420.943359"/>
      <use xlink:href="#DejaVuSans-73" x="482.466797"/>
      <use xlink:href="#DejaVuSans-68" x="534.566406"/>
      <use xlink:href="#DejaVuSans-6f" x="597.945312"/>
      <use xlink:href="#DejaVuSans-6c" x="659.126953"/>
      <use xlink:href="#DejaVuSans-64" x="686.910156"/>
     </g>
    </g>
   </g>
   <g id="matplotlib.axis_2">
    <g id="ytick_1">
     <g id="line2d_11">
      <path d="M 47.72 383.964046 
L 853.2 383.964046 
" clip-path="url(#p2c149cc9da)" style="fill: none; stroke: #b0b0b0; stroke-width: 0.8; stroke-linecap: square"/>
     </g>
     <g id="line2d_12">
      <defs>
       <path id="ma4d4acb4f9" d="M 0 0 
L -3.5 0 
" style="stroke: #000000; stroke-width: 0.8"/>
      </defs>
      <g>
       <use xlink:href="#ma4d4acb4f9" x="47.72" y="383.964046" style="stroke: #000000; stroke-width: 0.8"/>
      </g>
     </g>
     <g id="text_7">
      <!-- 0.0 -->
      <g transform="translate(24.816875 387.763265) scale(0.1 -0.1)">
       <use xlink:href="#DejaVuSans-30"/>
       <use xlink:href="#DejaVuSans-2e" x="63.623047"/>
       <use xlink:href="#DejaVuSans-30" x="95.410156"/>
      </g>
     </g>
    </g>
    <g id="ytick_2">
     <g id="line2d_13">
      <path d="M 47.72 331.878178 
L 853.2 331.878178 
" clip-path="url(#p2c149cc9da)" style="fill: none; stroke: #b0b0b0; stroke-width: 0.8; stroke-linecap: square"/>
     </g>
     <g id="line2d_14">
      <g>
       <use xlink:href="#ma4d4acb4f9" x="47.72" y="331.878178" style="stroke: #000000; stroke-width: 0.8"/>
      </g>
     </g>
     <g id="text_8">
      <!-- 0.1 -->
      <g transform="translate(24.816875 335.677397) scale(0.1 -0.1)">
       <use xlink:href="#DejaVuSans-30"/>
       <use xlink:href="#DejaVuSans-2e" x="63.623047"/>
       <use xlink:href="#DejaVuSans-31" x="95.410156"/>
      </g>
     </g>
    </g>
    <g id="ytick_3">
     <g id="line2d_15">
      <path d="M 47.72 279.79231 
L 853.2 279.79231 
" clip-path="url(#p2c149cc9da)" style="fill: none; stroke: #b0b0b0; stroke-width: 0.8; stroke-linecap: square"/>
     </g>
     <g id="line2d_16">
      <g>
       <use xlink:href="#ma4d4acb4f9" x="47.72" y="279.79231" style="stroke: #000000; stroke-width: 0.8"/>
      </g>
     </g>
     <g id="text_9">
      <!-- 0.2 -->
      <g transform="translate(24.816875 283.591529) scale(0.1 -0.1)">
       <use xlink:href="#DejaVuSans-30"/>
       <use xlink:href="#DejaVuSans-2e" x="63.623047"/>
       <use xlink:href="#DejaVuSans-32" x="95.410156"/>
      </g>
     </g>
    </g>
    <g id="ytick_4">
     <g id="line2d_17">
      <path d="M 47.72 227.706443 
L 853.2 227.706443 
" clip-path="url(#p2c149cc9da)" style="fill: none; stroke: #b0b0b0; stroke-width: 0.8; stroke-linecap: square"/>
     </g>
     <g id="line2d_18">
      <g>
       <use xlink:href="#ma4d4acb4f9" x="47.72" y="227.706443" style="stroke: #000000; stroke-width: 0.8"/>
      </g>
     </g>
     <g id="text_10">
      <!-- 0.3 -->
      <g transform="translate(24.816875 231.505661) scale(0.1 -0.1)">
       <defs>
        <path id="DejaVuSans-33" d="M 2597 2516 
Q 3050 2419 3304 2112 
Q 3559 1806 3559 1356 
Q 3559 666 3084 287 
Q 2609 -91 1734 -91 
Q 1441 -91 1130 -33 
Q 819 25 488 141 
L 488 750 
Q 750 597 1062 519 
Q 1375 441 1716 441 
Q 2309 441 2620 675 
Q 2931 909 2931 1356 
Q 2931 1769 2642 2001 
Q 2353 2234 1838 2234 
L 1294 2234 
L 1294 2753 
L 1863 2753 
Q 2328 2753 2575 2939 
Q 2822 3125 2822 3475 
Q 2822 3834 2567 4026 
Q 2313 4219 1838 4219 
Q 1578 4219 1281 4162 
Q 984 4106 628 3988 
L 628 4550 
Q 988 4650 1302 4700 
Q 1616 4750 1894 4750 
Q 2613 4750 3031 4423 
Q 3450 4097 3450 3541 
Q 3450 3153 3228 2886 
Q 3006 2619 2597 2516 
z
" transform="scale(0.015625)"/>
       </defs>
       <use xlink:href="#DejaVuSans-30"/>
       <use xlink:href="#DejaVuSans-2e" x="63.623047"/>
       <use xlink:href="#DejaVuSans-33" x="95.410156"/>
      </g>
     </g>
    </g>
    <g id="ytick_5">
     <g id="line2d_19">
      <path d="M 47.72 175.620575 
L 853.2 175.620575 
" clip-path="url(#p2c149cc9da)" style="fill: none; stroke: #b0b0b0; stroke-width: 0.8; stroke-linecap: square"/>
     </g>
     <g id="line2d_20">
      <g>
       <use xlink:href="#ma4d4acb4f9" x="47.72" y="175.620575" style="stroke: #000000; stroke-width: 0.8"/>
      </g>
     </g>
     <g id="text_11">
      <!-- 0.4 -->
      <g transform="translate(24.816875 179.419794) scale(0.1 -0.1)">
       <use xlink:href="#DejaVuSans-30"/>
       <use xlink:href="#DejaVuSans-2e" x="63.623047"/>
       <use xlink:href="#DejaVuSans-34" x="95.410156"/>
      </g>
     </g>
    </g>
    <g id="ytick_6">
     <g id="line2d_21">
      <path d="M 47.72 123.534707 
L 853.2 123.534707 
" clip-path="url(#p2c149cc9da)" style="fill: none; stroke: #b0b0b0; stroke-width: 0.8; stroke-linecap: square"/>
     </g>
     <g id="line2d_22">
      <g>
       <use xlink:href="#ma4d4acb4f9" x="47.72" y="123.534707" style="stroke: #000000; stroke-width: 0.8"/>
      </g>
     </g>
     <g id="text_12">
      <!-- 0.5 -->
      <g transform="translate(24.816875 127.333926) scale(0.1 -0.1)">
       <defs>
        <path id="DejaVuSans-35" d="M 691 4666 
L 3169 4666 
L 3169 4134 
L 1269 4134 
L 1269 2991 
Q 1406 3038 1543 3061 
Q 1681 3084 1819 3084 
Q 2600 3084 3056 2656 
Q 3513 2228 3513 1497 
Q 3513 744 3044 326 
Q 2575 -91 1722 -91 
Q 1428 -91 1123 -41 
Q 819 9 494 109 
L 494 744 
Q 775 591 1075 516 
Q 1375 441 1709 441 
Q 2250 441 2565 725 
Q 2881 1009 2881 1497 
Q 2881 1984 2565 2268 
Q 2250 2553 1709 2553 
Q 1456 2553 1204 2497 
Q 953 2441 691 2322 
L 691 4666 
z
" transform="scale(0.015625)"/>
       </defs>
       <use xlink:href="#DejaVuSans-30"/>
       <use xlink:href="#DejaVuSans-2e" x="63.623047"/>
       <use xlink:href="#DejaVuSans-35" x="95.410156"/>
      </g>
     </g>
    </g>
    <g id="ytick_7">
     <g id="line2d_23">
      <path d="M 47.72 71.44884 
L 853.2 71.44884 
" clip-path="url(#p2c149cc9da)" style="fill: none; stroke: #b0b0b0; stroke-width: 0.8; stroke-linecap: square"/>
     </g>
     <g id="line2d_24">
      <g>
       <use xlink:href="#ma4d4acb4f9" x="47.72" y="71.44884" style="stroke: #000000; stroke-width: 0.8"/>
      </g>
     </g>
     <g id="text_13">
      <!-- 0.6 -->
      <g transform="translate(24.816875 75.248058) scale(0.1 -0.1)">
       <use xlink:href="#DejaVuSans-30"/>
       <use xlink:href="#DejaVuSans-2e" x="63.623047"/>
       <use xlink:href="#DejaVuSans-36" x="95.410156"/>
      </g>
     </g>
    </g>
    <g id="text_14">
     <!-- WSS Value -->
     <g transform="translate(18.737188 235.0725) rotate(-90) scale(0.1 -0.1)">
      <defs>
       <path id="DejaVuSans-56" d="M 1831 0 
L 50 4666 
L 709 4666 
L 2188 738 
L 3669 4666 
L 4325 4666 
L 2547 0 
L 1831 0 
z
" transform="scale(0.015625)"/>
       <path id="DejaVuSans-61" d="M 2194 1759 
Q 1497 1759 1228 1600 
Q 959 1441 959 1056 
Q 959 750 1161 570 
Q 1363 391 1709 391 
Q 2188 391 2477 730 
Q 2766 1069 2766 1631 
L 2766 1759 
L 2194 1759 
z
M 3341 1997 
L 3341 0 
L 2766 0 
L 2766 531 
Q 2569 213 2275 61 
Q 1981 -91 1556 -91 
Q 1019 -91 701 211 
Q 384 513 384 1019 
Q 384 1609 779 1909 
Q 1175 2209 1959 2209 
L 2766 2209 
L 2766 2266 
Q 2766 2663 2505 2880 
Q 2244 3097 1772 3097 
Q 1472 3097 1187 3025 
Q 903 2953 641 2809 
L 641 3341 
Q 956 3463 1253 3523 
Q 1550 3584 1831 3584 
Q 2591 3584 2966 3190 
Q 3341 2797 3341 1997 
z
" transform="scale(0.015625)"/>
       <path id="DejaVuSans-75" d="M 544 1381 
L 544 3500 
L 1119 3500 
L 1119 1403 
Q 1119 906 1312 657 
Q 1506 409 1894 409 
Q 2359 409 2629 706 
Q 2900 1003 2900 1516 
L 2900 3500 
L 3475 3500 
L 3475 0 
L 2900 0 
L 2900 538 
Q 2691 219 2414 64 
Q 2138 -91 1772 -91 
Q 1169 -91 856 284 
Q 544 659 544 1381 
z
M 1991 3584 
L 1991 3584 
z
" transform="scale(0.015625)"/>
      </defs>
      <use xlink:href="#DejaVuSans-57"/>
      <use xlink:href="#DejaVuSans-53" x="98.876953"/>
      <use xlink:href="#DejaVuSans-53" x="162.353516"/>
      <use xlink:href="#DejaVuSans-20" x="225.830078"/>
      <use xlink:href="#DejaVuSans-56" x="257.617188"/>
      <use xlink:href="#DejaVuSans-61" x="318.275391"/>
      <use xlink:href="#DejaVuSans-6c" x="379.554688"/>
      <use xlink:href="#DejaVuSans-75" x="407.337891"/>
      <use xlink:href="#DejaVuSans-65" x="470.716797"/>
     </g>
    </g>
   </g>
   <g id="line2d_25">
    <path d="M 84.332727 360.242117 
L 165.694343 334.453664 
L 247.05596 300.930218 
L 328.417576 263.016962 
L 409.779192 223.906498 
L 491.140808 186.440246 
L 572.502424 158.378792 
L 653.86404 123.933934 
L 735.225657 109.646156 
L 755.566061 106.813411 
L 775.906465 120.078608 
L 796.246869 140.726324 
L 816.587273 213.976314 
" clip-path="url(#p2c149cc9da)" style="fill: none; stroke: #808080; stroke-opacity: 0.2; stroke-linecap: square"/>
   </g>
   <g id="line2d_26">
    <path d="M 84.332727 329.155881 
L 165.694343 306.974174 
L 247.05596 274.897043 
L 328.417576 232.463542 
L 409.779192 186.407452 
L 491.140808 148.734798 
L 572.502424 117.193571 
L 653.86404 87.188139 
L 735.225657 73.375097 
L 755.566061 71.645812 
L 775.906465 70.838393 
L 796.246869 83.646131 
L 816.587273 119.719529 
" clip-path="url(#p2c149cc9da)" style="fill: none; stroke: #808080; stroke-opacity: 0.2; stroke-linecap: square"/>
   </g>
   <g id="line2d_27">
    <path d="M 84.332727 327.26487 
L 165.694343 303.019022 
L 247.05596 276.172718 
L 328.417576 231.276503 
L 409.779192 188.327788 
L 491.140808 149.8818 
L 572.502424 117.881268 
L 653.86404 82.384842 
L 735.225657 65.843178 
L 755.566061 66.787259 
L 775.906465 70.231084 
L 796.246869 85.661628 
L 816.587273 144.526718 
" clip-path="url(#p2c149cc9da)" style="fill: none; stroke: #808080; stroke-opacity: 0.2; stroke-linecap: square"/>
   </g>
   <g id="line2d_28">
    <path d="M 84.332727 342.901675 
L 165.694343 325.252906 
L 247.05596 299.032407 
L 328.417576 263.395486 
L 409.779192 235.063048 
L 491.140808 208.182795 
L 572.502424 181.024637 
L 653.86404 149.841221 
L 735.225657 138.597763 
L 755.566061 135.90597 
L 775.906465 134.386809 
L 796.246869 141.863687 
L 816.587273 184.341114 
" clip-path="url(#p2c149cc9da)" style="fill: none; stroke: #808080; stroke-opacity: 0.2; stroke-linecap: square"/>
   </g>
   <g id="line2d_29">
    <path d="M 84.332727 344.368764 
L 165.694343 307.875213 
L 247.05596 274.077055 
L 328.417576 230.277517 
L 409.779192 196.046783 
L 491.140808 160.727264 
L 572.502424 134.008469 
L 653.86404 131.232271 
L 735.225657 135.981086 
L 755.566061 139.475669 
L 775.906465 162.713287 
L 796.246869 195.277266 
L 816.587273 257.797848 
" clip-path="url(#p2c149cc9da)" style="fill: none; stroke: #808080; stroke-opacity: 0.2; stroke-linecap: square"/>
   </g>
   <g id="line2d_30">
    <path d="M 84.332727 339.378085 
L 165.694343 308.641915 
L 247.05596 280.483667 
L 328.417576 239.514815 
L 409.779192 202.120735 
L 491.140808 166.787029 
L 572.502424 137.331467 
L 653.86404 105.567077 
L 735.225657 95.136627 
L 755.566061 97.086619 
L 775.906465 100.201809 
L 796.246869 118.207696 
L 816.587273 181.3181 
" clip-path="url(#p2c149cc9da)" style="fill: none; stroke: #808080; stroke-opacity: 0.2; stroke-linecap: square"/>
   </g>
   <g id="line2d_31">
    <path d="M 84.332727 339.352686 
L 165.694343 319.23823 
L 247.05596 285.445419 
L 328.417576 244.911846 
L 409.779192 206.497075 
L 491.140808 168.251134 
L 572.502424 136.687179 
L 653.86404 100.263929 
L 735.225657 87.994901 
L 755.566061 90.341251 
L 775.906465 97.823252 
L 796.246869 109.80505 
L 816.587273 150.094444 
" clip-path="url(#p2c149cc9da)" style="fill: none; stroke: #808080; stroke-opacity: 0.2; stroke-linecap: square"/>
   </g>
   <g id="line2d_32">
    <path d="M 84.332727 329.211851 
L 165.694343 305.375976 
L 247.05596 273.713172 
L 328.417576 230.80728 
L 409.779192 193.006482 
L 491.140808 152.299916 
L 572.502424 117.991182 
L 653.86404 78.208391 
L 735.225657 59.092749 
L 755.566061 61.52108 
L 775.906465 61.872955 
L 796.246869 74.182536 
L 816.587273 156.235976 
" clip-path="url(#p2c149cc9da)" style="fill: none; stroke: #808080; stroke-opacity: 0.2; stroke-linecap: square"/>
   </g>
   <g id="line2d_33">
    <path d="M 84.332727 353.563734 
L 165.694343 322.131424 
L 247.05596 300.650156 
L 328.417576 274.667054 
L 409.779192 259.699421 
L 491.140808 240.032469 
L 572.502424 242.378954 
L 653.86404 242.106439 
L 735.225657 271.142026 
L 755.566061 285.636988 
L 775.906465 302.166374 
L 796.246869 319.15356 
L 816.587273 358.306931 
" clip-path="url(#p2c149cc9da)" style="fill: none; stroke: #808080; stroke-opacity: 0.2; stroke-linecap: square"/>
   </g>
   <g id="line2d_34">
    <path d="M 84.332727 350.622766 
L 165.694343 316.478579 
L 247.05596 282.853986 
L 328.417576 241.534597 
L 409.779192 201.027089 
L 491.140808 171.778944 
L 572.502424 153.605198 
L 653.86404 144.296468 
L 735.225657 181.708902 
L 755.566061 186.888609 
L 775.906465 208.571074 
L 796.246869 225.5018 
L 816.587273 286.778953 
" clip-path="url(#p2c149cc9da)" style="fill: none; stroke: #808080; stroke-opacity: 0.2; stroke-linecap: square"/>
   </g>
   <g id="line2d_35">
    <path d="M 84.332727 355.196677 
L 165.694343 320.733374 
L 247.05596 289.79859 
L 328.417576 248.742617 
L 409.779192 208.468334 
L 491.140808 174.583232 
L 572.502424 143.339972 
L 653.86404 110.451999 
L 735.225657 101.296414 
L 755.566061 100.052869 
L 775.906465 105.113656 
L 796.246869 122.390616 
L 816.587273 160.253653 
" clip-path="url(#p2c149cc9da)" style="fill: none; stroke: #808080; stroke-opacity: 0.2; stroke-linecap: square"/>
   </g>
   <g id="line2d_36">
    <path d="M 84.332727 338.353636 
L 165.694343 318.706379 
L 247.05596 291.132134 
L 328.417576 248.519893 
L 409.779192 205.925141 
L 491.140808 169.689916 
L 572.502424 141.363676 
L 653.86404 106.461033 
L 735.225657 95.194672 
L 755.566061 93.465429 
L 775.906465 93.143932 
L 796.246869 108.476671 
L 816.587273 167.656614 
" clip-path="url(#p2c149cc9da)" style="fill: none; stroke: #808080; stroke-opacity: 0.2; stroke-linecap: square"/>
   </g>
   <g id="line2d_37">
    <path d="M 84.332727 350.199256 
L 165.694343 323.015998 
L 247.05596 296.547092 
L 328.417576 257.809295 
L 409.779192 224.250638 
L 491.140808 190.820375 
L 572.502424 165.954248 
L 653.86404 136.566915 
L 735.225657 132.987386 
L 755.566061 137.703422 
L 775.906465 148.321088 
L 796.246869 161.115565 
L 816.587273 230.682506 
" clip-path="url(#p2c149cc9da)" style="fill: none; stroke: #808080; stroke-opacity: 0.2; stroke-linecap: square"/>
   </g>
   <g id="line2d_38">
    <path d="M 84.332727 334.047119 
L 165.694343 316.789807 
L 247.05596 289.113598 
L 328.417576 249.701658 
L 409.779192 222.310788 
L 491.140808 190.817374 
L 572.502424 162.883205 
L 653.86404 129.647315 
L 735.225657 111.114173 
L 755.566061 112.476051 
L 775.906465 127.94541 
L 796.246869 147.263807 
L 816.587273 212.878197 
" clip-path="url(#p2c149cc9da)" style="fill: none; stroke: #808080; stroke-opacity: 0.2; stroke-linecap: square"/>
   </g>
   <g id="line2d_39">
    <path d="M 84.332727 333.94266 
L 165.694343 312.318296 
L 247.05596 270.984177 
L 328.417576 225.070434 
L 409.779192 183.827412 
L 491.140808 142.35668 
L 572.502424 108.919642 
L 653.86404 81.612791 
L 735.225657 59.208336 
L 755.566061 56.574155 
L 775.906465 60.634451 
L 796.246869 66.379001 
L 816.587273 165.157601 
" clip-path="url(#p2c149cc9da)" style="fill: none; stroke: #808080; stroke-opacity: 0.2; stroke-linecap: square"/>
   </g>
   <g id="line2d_40">
    <path d="M 84.332727 339.16385 
L 165.694343 315.551637 
L 247.05596 275.264665 
L 328.417576 230.735778 
L 409.779192 192.184318 
L 491.140808 156.229921 
L 572.502424 124.960748 
L 653.86404 87.063711 
L 735.225657 70.061443 
L 755.566061 70.651786 
L 775.906465 70.675459 
L 796.246869 81.259844 
L 816.587273 119.280265 
" clip-path="url(#p2c149cc9da)" style="fill: none; stroke: #808080; stroke-opacity: 0.2; stroke-linecap: square"/>
   </g>
   <g id="line2d_41">
    <path d="M 84.332727 353.354512 
L 165.694343 329.470923 
L 247.05596 295.66968 
L 328.417576 256.000978 
L 409.779192 217.23899 
L 491.140808 185.140116 
L 572.502424 158.809016 
L 653.86404 131.028474 
L 735.225657 122.194969 
L 755.566061 123.994837 
L 775.906465 135.391305 
L 796.246869 155.446164 
L 816.587273 202.098827 
" clip-path="url(#p2c149cc9da)" style="fill: none; stroke: #808080; stroke-opacity: 0.2; stroke-linecap: square"/>
   </g>
   <g id="line2d_42">
    <path d="M 84.332727 334.160018 
L 165.694343 310.462507 
L 247.05596 270.760326 
L 328.417576 227.182978 
L 409.779192 187.975703 
L 491.140808 150.123382 
L 572.502424 117.37537 
L 653.86404 80.181916 
L 735.225657 60.02386 
L 755.566061 57.663394 
L 775.906465 57.15506 
L 796.246869 66.29573 
L 816.587273 124.800661 
" clip-path="url(#p2c149cc9da)" style="fill: none; stroke: #808080; stroke-opacity: 0.2; stroke-linecap: square"/>
   </g>
   <g id="line2d_43">
    <path d="M 84.332727 331.983687 
L 165.694343 311.525358 
L 247.05596 285.733111 
L 328.417576 244.722437 
L 409.779192 201.618733 
L 491.140808 164.539178 
L 572.502424 133.803104 
L 653.86404 98.444453 
L 735.225657 85.464351 
L 755.566061 88.841786 
L 775.906465 88.701264 
L 796.246869 104.581206 
L 816.587273 164.507081 
" clip-path="url(#p2c149cc9da)" style="fill: none; stroke: #808080; stroke-opacity: 0.2; stroke-linecap: square"/>
   </g>
   <g id="line2d_44">
    <path d="M 84.332727 335.182757 
L 165.694343 312.248138 
L 247.05596 271.595324 
L 328.417576 228.483851 
L 409.779192 198.465468 
L 491.140808 159.810027 
L 572.502424 125.789133 
L 653.86404 88.39509 
L 735.225657 70.470426 
L 755.566061 67.674385 
L 775.906465 66.152244 
L 796.246869 75.949695 
L 816.587273 119.264948 
" clip-path="url(#p2c149cc9da)" style="fill: none; stroke: #808080; stroke-opacity: 0.2; stroke-linecap: square"/>
   </g>
   <g id="line2d_45">
    <path d="M 84.332727 341.444753 
L 165.694343 318.746211 
L 247.05596 281.672167 
L 328.417576 240.115255 
L 409.779192 194.805275 
L 491.140808 155.744399 
L 572.502424 123.411396 
L 653.86404 93.115626 
L 735.225657 84.502706 
L 755.566061 87.696949 
L 775.906465 88.988103 
L 796.246869 100.829172 
L 816.587273 168.23781 
" clip-path="url(#p2c149cc9da)" style="fill: none; stroke: #808080; stroke-opacity: 0.2; stroke-linecap: square"/>
   </g>
   <g id="line2d_46">
    <path d="M 84.332727 334.805838 
L 165.694343 313.556774 
L 247.05596 282.050103 
L 328.417576 242.03143 
L 409.779192 204.913257 
L 491.140808 169.74214 
L 572.502424 138.841703 
L 653.86404 104.44387 
L 735.225657 99.38889 
L 755.566061 95.871857 
L 775.906465 102.509263 
L 796.246869 114.705624 
L 816.587273 192.225899 
" clip-path="url(#p2c149cc9da)" style="fill: none; stroke: #808080; stroke-opacity: 0.2; stroke-linecap: square"/>
   </g>
   <g id="line2d_47">
    <path d="M 84.332727 347.860579 
L 165.694343 317.486872 
L 247.05596 292.116217 
L 328.417576 256.195633 
L 409.779192 219.69629 
L 491.140808 190.046505 
L 572.502424 168.591405 
L 653.86404 156.489477 
L 735.225657 161.469594 
L 755.566061 164.350075 
L 775.906465 172.698961 
L 796.246869 187.641461 
L 816.587273 236.493379 
" clip-path="url(#p2c149cc9da)" style="fill: none; stroke: #808080; stroke-opacity: 0.2; stroke-linecap: square"/>
   </g>
   <g id="line2d_48">
    <path d="M 84.332727 337.076407 
L 165.694343 309.640293 
L 247.05596 274.34913 
L 328.417576 233.541441 
L 409.779192 192.327101 
L 491.140808 152.665472 
L 572.502424 118.955543 
L 653.86404 79.742671 
L 735.225657 67.812741 
L 755.566061 73.366118 
L 775.906465 75.83352 
L 796.246869 83.949324 
L 816.587273 134.097324 
" clip-path="url(#p2c149cc9da)" style="fill: none; stroke: #808080; stroke-opacity: 0.2; stroke-linecap: square"/>
   </g>
   <g id="line2d_49">
    <path d="M 84.332727 329.49574 
L 165.694343 308.25889 
L 247.05596 278.69998 
L 328.417576 234.702492 
L 409.779192 189.061589 
L 491.140808 151.006564 
L 572.502424 117.803597 
L 653.86404 84.439139 
L 735.225657 66.382052 
L 755.566061 65.193316 
L 775.906465 65.634265 
L 796.246869 72.878429 
L 816.587273 107.326003 
" clip-path="url(#p2c149cc9da)" style="fill: none; stroke: #808080; stroke-opacity: 0.2; stroke-linecap: square"/>
   </g>
   <g id="line2d_50">
    <path d="M 84.332727 332.596011 
L 165.694343 311.786329 
L 247.05596 292.264485 
L 328.417576 252.864152 
L 409.779192 206.896168 
L 491.140808 168.378693 
L 572.502424 134.71655 
L 653.86404 99.563946 
L 735.225657 81.49227 
L 755.566061 81.344119 
L 775.906465 80.442257 
L 796.246869 89.533927 
L 816.587273 122.706398 
" clip-path="url(#p2c149cc9da)" style="fill: none; stroke: #808080; stroke-opacity: 0.2; stroke-linecap: square"/>
   </g>
   <g id="line2d_51">
    <path d="M 84.332727 352.447605 
L 165.694343 316.618356 
L 247.05596 298.118723 
L 328.417576 261.749086 
L 409.779192 230.970412 
L 491.140808 197.310335 
L 572.502424 178.464412 
L 653.86404 156.055562 
L 735.225657 147.309612 
L 755.566061 146.350038 
L 775.906465 150.047834 
L 796.246869 166.365789 
L 816.587273 225.762632 
" clip-path="url(#p2c149cc9da)" style="fill: none; stroke: #808080; stroke-opacity: 0.2; stroke-linecap: square"/>
   </g>
   <g id="line2d_52">
    <path d="M 84.332727 354.686885 
L 165.694343 317.084266 
L 247.05596 284.460801 
L 328.417576 243.815338 
L 409.779192 207.925741 
L 491.140808 171.361806 
L 572.502424 143.730781 
L 653.86404 108.939151 
L 735.225657 96.553514 
L 755.566061 102.05595 
L 775.906465 111.533595 
L 796.246869 142.286458 
L 816.587273 239.175866 
" clip-path="url(#p2c149cc9da)" style="fill: none; stroke: #808080; stroke-opacity: 0.2; stroke-linecap: square"/>
   </g>
   <g id="line2d_53">
    <path d="M 84.332727 339.21899 
L 165.694343 316.331061 
L 247.05596 273.523597 
L 328.417576 230.854371 
L 409.779192 203.42496 
L 491.140808 166.106108 
L 572.502424 134.709212 
L 653.86404 97.675726 
L 735.225657 88.019203 
L 755.566061 84.4453 
L 775.906465 84.664338 
L 796.246869 97.557784 
L 816.587273 128.260839 
" clip-path="url(#p2c149cc9da)" style="fill: none; stroke: #808080; stroke-opacity: 0.2; stroke-linecap: square"/>
   </g>
   <g id="line2d_54">
    <path d="M 84.332727 340.19634 
L 165.694343 317.354835 
L 247.05596 278.321973 
L 328.417576 233.239212 
L 409.779192 192.968736 
L 491.140808 156.110065 
L 572.502424 124.226315 
L 653.86404 92.352188 
L 735.225657 76.340187 
L 755.566061 75.477835 
L 775.906465 77.340039 
L 796.246869 91.074627 
L 816.587273 152.760035 
" clip-path="url(#p2c149cc9da)" style="fill: none; stroke: #808080; stroke-opacity: 0.2; stroke-linecap: square"/>
   </g>
   <g id="line2d_55">
    <path d="M 84.332727 332.727968 
L 165.694343 308.417738 
L 247.05596 270.7993 
L 328.417576 228.188301 
L 409.779192 193.696956 
L 491.140808 154.762417 
L 572.502424 123.287188 
L 653.86404 92.090227 
L 735.225657 88.168236 
L 755.566061 91.222019 
L 775.906465 98.704972 
L 796.246869 104.406565 
L 816.587273 208.2993 
" clip-path="url(#p2c149cc9da)" style="fill: none; stroke: #808080; stroke-opacity: 0.2; stroke-linecap: square"/>
   </g>
   <g id="line2d_56">
    <path d="M 84.332727 326.228448 
L 165.694343 301.857716 
L 247.05596 272.335048 
L 328.417576 229.292804 
L 409.779192 186.567446 
L 491.140808 147.262183 
L 572.502424 117.138529 
L 653.86404 81.047742 
L 735.225657 68.408258 
L 755.566061 68.127483 
L 775.906465 65.801858 
L 796.246869 72.048978 
L 816.587273 119.434474 
" clip-path="url(#p2c149cc9da)" style="fill: none; stroke: #808080; stroke-opacity: 0.2; stroke-linecap: square"/>
   </g>
   <g id="line2d_57">
    <path d="M 84.332727 340.293954 
L 165.694343 314.285937 
L 247.05596 278.436085 
L 328.417576 234.896031 
L 409.779192 197.19308 
L 491.140808 158.370828 
L 572.502424 129.40136 
L 653.86404 93.118403 
L 735.225657 81.956151 
L 755.566061 80.658537 
L 775.906465 93.668301 
L 796.246869 121.798496 
L 816.587273 166.522109 
" clip-path="url(#p2c149cc9da)" style="fill: none; stroke: #808080; stroke-opacity: 0.2; stroke-linecap: square"/>
   </g>
   <g id="line2d_58">
    <path d="M 84.332727 334.501538 
L 165.694343 310.450325 
L 247.05596 276.847247 
L 328.417576 232.475147 
L 409.779192 192.685311 
L 491.140808 152.995224 
L 572.502424 123.226869 
L 653.86404 88.138401 
L 735.225657 72.289188 
L 755.566061 74.130352 
L 775.906465 76.004885 
L 796.246869 87.67408 
L 816.587273 140.579512 
" clip-path="url(#p2c149cc9da)" style="fill: none; stroke: #808080; stroke-opacity: 0.2; stroke-linecap: square"/>
   </g>
   <g id="line2d_59">
    <path d="M 84.332727 349.029337 
L 165.694343 315.790101 
L 247.05596 283.156675 
L 328.417576 241.742973 
L 409.779192 199.069832 
L 491.140808 163.533788 
L 572.502424 134.644215 
L 653.86404 112.413017 
L 735.225657 108.022892 
L 755.566061 106.075282 
L 775.906465 123.969414 
L 796.246869 139.952901 
L 816.587273 198.63611 
" clip-path="url(#p2c149cc9da)" style="fill: none; stroke: #808080; stroke-opacity: 0.2; stroke-linecap: square"/>
   </g>
   <g id="line2d_60">
    <path d="M 84.332727 335.221019 
L 165.694343 311.968162 
L 247.05596 286.697355 
L 328.417576 242.671812 
L 409.779192 199.452463 
L 491.140808 165.744829 
L 572.502424 138.600361 
L 653.86404 111.060382 
L 735.225657 112.288733 
L 755.566061 119.582946 
L 775.906465 122.863992 
L 796.246869 138.270445 
L 816.587273 228.473942 
" clip-path="url(#p2c149cc9da)" style="fill: none; stroke: #808080; stroke-opacity: 0.2; stroke-linecap: square"/>
   </g>
   <g id="line2d_61">
    <path d="M 84.332727 349.846687 
L 165.694343 321.560374 
L 247.05596 288.378106 
L 328.417576 249.193025 
L 409.779192 205.866554 
L 491.140808 170.412326 
L 572.502424 148.361056 
L 653.86404 122.814716 
L 735.225657 110.29883 
L 755.566061 115.689105 
L 775.906465 124.881878 
L 796.246869 139.478718 
L 816.587273 223.146674 
" clip-path="url(#p2c149cc9da)" style="fill: none; stroke: #808080; stroke-opacity: 0.2; stroke-linecap: square"/>
   </g>
   <g id="line2d_62">
    <path d="M 84.332727 348.472759 
L 165.694343 319.965568 
L 247.05596 289.587737 
L 328.417576 250.678798 
L 409.779192 212.7514 
L 491.140808 176.232617 
L 572.502424 146.548072 
L 653.86404 114.204183 
L 735.225657 105.816381 
L 755.566061 105.78568 
L 775.906465 108.20996 
L 796.246869 127.957765 
L 816.587273 212.708311 
" clip-path="url(#p2c149cc9da)" style="fill: none; stroke: #808080; stroke-opacity: 0.2; stroke-linecap: square"/>
   </g>
   <g id="line2d_63">
    <path d="M 84.332727 346.364498 
L 165.694343 319.785836 
L 247.05596 286.793886 
L 328.417576 247.505789 
L 409.779192 207.256604 
L 491.140808 170.101697 
L 572.502424 138.59962 
L 653.86404 104.448123 
L 735.225657 93.424118 
L 755.566061 92.907211 
L 775.906465 90.738521 
L 796.246869 98.656799 
L 816.587273 148.395259 
" clip-path="url(#p2c149cc9da)" style="fill: none; stroke: #808080; stroke-opacity: 0.2; stroke-linecap: square"/>
   </g>
   <g id="line2d_64">
    <path d="M 84.332727 328.844038 
L 165.694343 306.126936 
L 247.05596 282.79191 
L 328.417576 242.455134 
L 409.779192 198.595104 
L 491.140808 162.293356 
L 572.502424 131.801335 
L 653.86404 97.528439 
L 735.225657 80.911352 
L 755.566061 78.767436 
L 775.906465 83.484699 
L 796.246869 100.653766 
L 816.587273 151.493058 
" clip-path="url(#p2c149cc9da)" style="fill: none; stroke: #808080; stroke-opacity: 0.2; stroke-linecap: square"/>
   </g>
   <g id="line2d_65">
    <path d="M 84.332727 344.76664 
L 165.694343 317.571482 
L 247.05596 294.688565 
L 328.417576 259.036159 
L 409.779192 221.63444 
L 491.140808 193.894633 
L 572.502424 164.695505 
L 653.86404 141.288768 
L 735.225657 140.480778 
L 755.566061 147.309334 
L 775.906465 154.704088 
L 796.246869 172.960372 
L 816.587273 232.55887 
" clip-path="url(#p2c149cc9da)" style="fill: none; stroke: #808080; stroke-opacity: 0.2; stroke-linecap: square"/>
   </g>
   <g id="line2d_66">
    <path d="M 84.332727 336.897305 
L 165.694343 312.444812 
L 247.05596 276.435856 
L 328.417576 232.254917 
L 409.779192 187.378462 
L 491.140808 147.243078 
L 572.502424 113.256199 
L 653.86404 75.227907 
L 735.225657 62.187149 
L 755.566061 68.396785 
L 775.906465 67.385806 
L 796.246869 85.004674 
L 816.587273 130.586835 
" clip-path="url(#p2c149cc9da)" style="fill: none; stroke: #808080; stroke-opacity: 0.2; stroke-linecap: square"/>
   </g>
   <g id="line2d_67">
    <path d="M 84.332727 340.300937 
L 165.694343 317.714286 
L 247.05596 287.545917 
L 328.417576 245.822825 
L 409.779192 203.631182 
L 491.140808 165.880984 
L 572.502424 136.118084 
L 653.86404 107.379541 
L 735.225657 95.600151 
L 755.566061 96.220063 
L 775.906465 101.972436 
L 796.246869 117.461329 
L 816.587273 165.899712 
" clip-path="url(#p2c149cc9da)" style="fill: none; stroke: #808080; stroke-opacity: 0.2; stroke-linecap: square"/>
   </g>
   <g id="line2d_68">
    <path d="M 84.332727 373.532727 
L 165.694343 344.851408 
L 247.05596 315.067717 
L 328.417576 276.80696 
L 409.779192 241.917689 
L 491.140808 212.586517 
L 572.502424 187.915768 
L 653.86404 179.504293 
L 735.225657 166.820561 
L 755.566061 166.127617 
L 775.906465 181.051165 
L 796.246869 191.657119 
L 816.587273 221.4629 
" clip-path="url(#p2c149cc9da)" style="fill: none; stroke: #808080; stroke-opacity: 0.2; stroke-linecap: square"/>
   </g>
   <g id="line2d_69">
    <path d="M 84.332727 358.817522 
L 165.694343 315.083511 
L 247.05596 284.106162 
L 328.417576 244.193678 
L 409.779192 205.275424 
L 491.140808 168.413059 
L 572.502424 142.344845 
L 653.86404 118.158419 
L 735.225657 124.955412 
L 755.566061 126.750108 
L 775.906465 140.094909 
L 796.246869 169.090684 
L 816.587273 272.951932 
" clip-path="url(#p2c149cc9da)" style="fill: none; stroke: #808080; stroke-opacity: 0.2; stroke-linecap: square"/>
   </g>
   <g id="line2d_70">
    <path d="M 84.332727 366.026906 
L 165.694343 343.293655 
L 247.05596 327.464244 
L 328.417576 298.557942 
L 409.779192 269.230203 
L 491.140808 241.779766 
L 572.502424 222.830889 
L 653.86404 210.071726 
L 735.225657 216.965213 
L 755.566061 233.576358 
L 775.906465 235.389499 
L 796.246869 253.797844 
L 816.587273 313.66093 
" clip-path="url(#p2c149cc9da)" style="fill: none; stroke: #808080; stroke-opacity: 0.2; stroke-linecap: square"/>
   </g>
   <g id="line2d_71">
    <path d="M 84.332727 344.262423 
L 165.694343 320.488421 
L 247.05596 282.395352 
L 328.417576 241.629981 
L 409.779192 207.868418 
L 491.140808 169.511611 
L 572.502424 138.837156 
L 653.86404 103.044098 
L 735.225657 90.070102 
L 755.566061 93.679373 
L 775.906465 99.068256 
L 796.246869 116.034025 
L 816.587273 163.957467 
" clip-path="url(#p2c149cc9da)" style="fill: none; stroke: #808080; stroke-opacity: 0.2; stroke-linecap: square"/>
   </g>
   <g id="line2d_72">
    <path d="M 84.332727 364.894806 
L 165.694343 328.940899 
L 247.05596 312.182759 
L 328.417576 278.579624 
L 409.779192 239.821298 
L 491.140808 209.920015 
L 572.502424 186.309124 
L 653.86404 154.976575 
L 735.225657 146.060686 
L 755.566061 148.300873 
L 775.906465 156.014875 
L 796.246869 158.662024 
L 816.587273 215.947181 
" clip-path="url(#p2c149cc9da)" style="fill: none; stroke: #808080; stroke-opacity: 0.2; stroke-linecap: square"/>
   </g>
   <g id="line2d_73">
    <path d="M 84.332727 332.69867 
L 165.694343 307.998009 
L 247.05596 269.70999 
L 328.417576 227.639812 
L 409.779192 192.534148 
L 491.140808 154.249309 
L 572.502424 128.073548 
L 653.86404 93.388949 
L 735.225657 76.916011 
L 755.566061 76.58842 
L 775.906465 80.406588 
L 796.246869 100.097328 
L 816.587273 184.354423 
" clip-path="url(#p2c149cc9da)" style="fill: none; stroke: #808080; stroke-opacity: 0.2; stroke-linecap: square"/>
   </g>
   <g id="line2d_74">
    <path d="M 84.332727 335.142282 
L 165.694343 319.044829 
L 247.05596 291.161341 
L 328.417576 251.34799 
L 409.779192 219.9453 
L 491.140808 185.226437 
L 572.502424 161.129747 
L 653.86404 130.147954 
L 735.225657 111.761728 
L 755.566061 109.972555 
L 775.906465 119.547218 
L 796.246869 132.651946 
L 816.587273 187.881171 
" clip-path="url(#p2c149cc9da)" style="fill: none; stroke: #808080; stroke-opacity: 0.2; stroke-linecap: square"/>
   </g>
   <g id="line2d_75">
    <path d="M 84.332727 357.013754 
L 165.694343 327.83494 
L 247.05596 297.594098 
L 328.417576 256.613097 
L 409.779192 217.157794 
L 491.140808 184.82594 
L 572.502424 154.565217 
L 653.86404 133.836355 
L 735.225657 127.461596 
L 755.566061 126.603274 
L 775.906465 145.965453 
L 796.246869 155.28748 
L 816.587273 188.961459 
" clip-path="url(#p2c149cc9da)" style="fill: none; stroke: #808080; stroke-opacity: 0.2; stroke-linecap: square"/>
   </g>
   <g id="line2d_76">
    <path d="M 84.332727 335.972451 
L 165.694343 311.437334 
L 247.05596 269.974911 
L 328.417576 226.537005 
L 409.779192 199.314486 
L 491.140808 161.559808 
L 572.502424 125.5654 
L 653.86404 85.466257 
L 735.225657 67.553914 
L 755.566061 62.527356 
L 775.906465 64.110182 
L 796.246869 73.556313 
L 816.587273 118.492221 
" clip-path="url(#p2c149cc9da)" style="fill: none; stroke: #808080; stroke-opacity: 0.2; stroke-linecap: square"/>
   </g>
   <g id="line2d_77">
    <path d="M 84.332727 360.478829 
L 165.694343 330.05756 
L 247.05596 310.441988 
L 328.417576 275.567806 
L 409.779192 243.813699 
L 491.140808 217.735556 
L 572.502424 194.272154 
L 653.86404 164.408211 
L 735.225657 155.029 
L 755.566061 155.708321 
L 775.906465 156.851146 
L 796.246869 162.181222 
L 816.587273 234.610144 
" clip-path="url(#p2c149cc9da)" style="fill: none; stroke: #808080; stroke-opacity: 0.2; stroke-linecap: square"/>
   </g>
   <g id="line2d_78">
    <path d="M 84.332727 354.359844 
L 165.694343 321.110686 
L 247.05596 297.258606 
L 328.417576 260.220032 
L 409.779192 227.474012 
L 491.140808 199.241585 
L 572.502424 174.914083 
L 653.86404 159.408578 
L 735.225657 173.278558 
L 755.566061 184.856979 
L 775.906465 195.688163 
L 796.246869 223.576361 
L 816.587273 274.303025 
" clip-path="url(#p2c149cc9da)" style="fill: none; stroke: #808080; stroke-opacity: 0.2; stroke-linecap: square"/>
   </g>
   <g id="line2d_79">
    <path d="M 84.332727 338.435997 
L 165.694343 315.073506 
L 247.05596 272.876065 
L 328.417576 229.879448 
L 409.779192 201.332488 
L 491.140808 163.012059 
L 572.502424 130.931086 
L 653.86404 93.441059 
L 735.225657 74.398629 
L 755.566061 70.754642 
L 775.906465 74.206422 
L 796.246869 91.755052 
L 816.587273 141.060895 
" clip-path="url(#p2c149cc9da)" style="fill: none; stroke: #808080; stroke-opacity: 0.2; stroke-linecap: square"/>
   </g>
   <g id="line2d_80">
    <path d="M 84.332727 333.64569 
L 165.694343 313.701498 
L 247.05596 288.887551 
L 328.417576 246.074532 
L 409.779192 198.27308 
L 491.140808 160.460951 
L 572.502424 127.69201 
L 653.86404 92.411293 
L 735.225657 75.246527 
L 755.566061 77.149158 
L 775.906465 78.665879 
L 796.246869 85.961952 
L 816.587273 120.808087 
" clip-path="url(#p2c149cc9da)" style="fill: none; stroke: #808080; stroke-opacity: 0.2; stroke-linecap: square"/>
   </g>
   <g id="line2d_81">
    <path d="M 84.332727 349.990979 
L 165.694343 315.852066 
L 247.05596 281.833788 
L 328.417576 237.924034 
L 409.779192 203.598601 
L 491.140808 165.526004 
L 572.502424 135.436043 
L 653.86404 100.161429 
L 735.225657 87.085161 
L 755.566061 87.541017 
L 775.906465 90.475702 
L 796.246869 98.633159 
L 816.587273 167.626817 
" clip-path="url(#p2c149cc9da)" style="fill: none; stroke: #808080; stroke-opacity: 0.2; stroke-linecap: square"/>
   </g>
   <g id="line2d_82">
    <path d="M 84.332727 346.35034 
L 165.694343 323.665327 
L 247.05596 297.274418 
L 328.417576 261.988335 
L 409.779192 225.256269 
L 491.140808 193.481314 
L 572.502424 169.662293 
L 653.86404 150.73063 
L 735.225657 158.808558 
L 755.566061 159.341584 
L 775.906465 163.458701 
L 796.246869 166.857567 
L 816.587273 223.484845 
" clip-path="url(#p2c149cc9da)" style="fill: none; stroke: #808080; stroke-opacity: 0.2; stroke-linecap: square"/>
   </g>
   <g id="line2d_83">
    <path d="M 84.332727 337.899045 
L 165.694343 315.339244 
L 247.05596 276.050805 
L 328.417576 231.180782 
L 409.779192 188.085187 
L 491.140808 153.43541 
L 572.502424 119.300218 
L 653.86404 81.765455 
L 735.225657 62.347098 
L 755.566061 59.846897 
L 775.906465 59.348592 
L 796.246869 68.592926 
L 816.587273 118.193666 
" clip-path="url(#p2c149cc9da)" style="fill: none; stroke: #808080; stroke-opacity: 0.2; stroke-linecap: square"/>
   </g>
   <g id="line2d_84">
    <path d="M 84.332727 338.868339 
L 165.694343 320.76824 
L 247.05596 300.493826 
L 328.417576 265.440959 
L 409.779192 236.822108 
L 491.140808 202.665919 
L 572.502424 175.430845 
L 653.86404 140.628848 
L 735.225657 131.814252 
L 755.566061 128.917238 
L 775.906465 125.711632 
L 796.246869 137.142232 
L 816.587273 183.10321 
" clip-path="url(#p2c149cc9da)" style="fill: none; stroke: #808080; stroke-opacity: 0.2; stroke-linecap: square"/>
   </g>
   <g id="line2d_85">
    <path d="M 84.332727 339.861507 
L 165.694343 324.881767 
L 247.05596 301.551908 
L 328.417576 267.330965 
L 409.779192 230.677106 
L 491.140808 204.255789 
L 572.502424 176.582953 
L 653.86404 152.595766 
L 735.225657 138.1655 
L 755.566061 133.516157 
L 775.906465 132.323398 
L 796.246869 129.992195 
L 816.587273 149.129651 
" clip-path="url(#p2c149cc9da)" style="fill: none; stroke: #808080; stroke-opacity: 0.2; stroke-linecap: square"/>
   </g>
   <g id="line2d_86">
    <path d="M 84.332727 339.706405 
L 165.694343 316.608807 
L 247.05596 276.995938 
L 328.417576 234.231315 
L 409.779192 195.789079 
L 491.140808 161.383112 
L 572.502424 133.597207 
L 653.86404 97.240246 
L 735.225657 97.210049 
L 755.566061 95.535144 
L 775.906465 97.660246 
L 796.246869 121.878865 
L 816.587273 178.119567 
" clip-path="url(#p2c149cc9da)" style="fill: none; stroke: #808080; stroke-opacity: 0.2; stroke-linecap: square"/>
   </g>
   <g id="line2d_87">
    <path d="M 84.332727 344.725982 
L 165.694343 317.989578 
L 247.05596 277.79347 
L 328.417576 238.326503 
L 409.779192 197.239648 
L 491.140808 157.79971 
L 572.502424 127.24996 
L 653.86404 93.601391 
L 735.225657 77.680371 
L 755.566061 75.745762 
L 775.906465 73.155823 
L 796.246869 87.283952 
L 816.587273 138.2539 
" clip-path="url(#p2c149cc9da)" style="fill: none; stroke: #808080; stroke-opacity: 0.2; stroke-linecap: square"/>
   </g>
   <g id="line2d_88">
    <path d="M 84.332727 331.409469 
L 165.694343 306.425676 
L 247.05596 277.137584 
L 328.417576 234.820174 
L 409.779192 190.981413 
L 491.140808 154.266878 
L 572.502424 121.282995 
L 653.86404 84.29127 
L 735.225657 62.715771 
L 755.566061 58.320043 
L 775.906465 58.950421 
L 796.246869 72.747184 
L 816.587273 110.003856 
" clip-path="url(#p2c149cc9da)" style="fill: none; stroke: #808080; stroke-opacity: 0.2; stroke-linecap: square"/>
   </g>
   <g id="line2d_89">
    <path d="M 84.332727 334.569454 
L 165.694343 308.03392 
L 247.05596 281.863721 
L 328.417576 240.197602 
L 409.779192 196.716974 
L 491.140808 157.361626 
L 572.502424 124.346694 
L 653.86404 93.211882 
L 735.225657 73.867225 
L 755.566061 74.756033 
L 775.906465 78.451825 
L 796.246869 88.844786 
L 816.587273 139.958266 
" clip-path="url(#p2c149cc9da)" style="fill: none; stroke: #808080; stroke-opacity: 0.2; stroke-linecap: square"/>
   </g>
   <g id="line2d_90">
    <path d="M 84.332727 330.83946 
L 165.694343 304.666793 
L 247.05596 275.121564 
L 328.417576 233.407807 
L 409.779192 191.206887 
L 491.140808 154.981424 
L 572.502424 124.747647 
L 653.86404 90.56321 
L 735.225657 78.246711 
L 755.566061 75.698346 
L 775.906465 81.137253 
L 796.246869 86.476006 
L 816.587273 169.132553 
" clip-path="url(#p2c149cc9da)" style="fill: none; stroke: #808080; stroke-opacity: 0.2; stroke-linecap: square"/>
   </g>
   <g id="line2d_91">
    <path d="M 84.332727 344.120119 
L 165.694343 320.746155 
L 247.05596 288.089018 
L 328.417576 246.635438 
L 409.779192 209.560764 
L 491.140808 175.942791 
L 572.502424 147.131627 
L 653.86404 123.618769 
L 735.225657 112.995281 
L 755.566061 121.345923 
L 775.906465 122.122389 
L 796.246869 122.962583 
L 816.587273 152.44555 
" clip-path="url(#p2c149cc9da)" style="fill: none; stroke: #808080; stroke-opacity: 0.2; stroke-linecap: square"/>
   </g>
   <g id="line2d_92">
    <path d="M 84.332727 350.782349 
L 165.694343 325.234282 
L 247.05596 291.062697 
L 328.417576 250.668692 
L 409.779192 214.455469 
L 491.140808 177.570553 
L 572.502424 148.051653 
L 653.86404 113.177501 
L 735.225657 101.753989 
L 755.566061 101.223166 
L 775.906465 101.350125 
L 796.246869 110.581096 
L 816.587273 184.306306 
" clip-path="url(#p2c149cc9da)" style="fill: none; stroke: #808080; stroke-opacity: 0.2; stroke-linecap: square"/>
   </g>
   <g id="line2d_93">
    <path d="M 84.332727 328.498903 
L 165.694343 304.808832 
L 247.05596 279.40629 
L 328.417576 237.174923 
L 409.779192 192.492083 
L 491.140808 156.62896 
L 572.502424 123.442515 
L 653.86404 88.531588 
L 735.225657 74.891343 
L 755.566061 75.891452 
L 775.906465 77.218431 
L 796.246869 80.492211 
L 816.587273 153.426668 
" clip-path="url(#p2c149cc9da)" style="fill: none; stroke: #808080; stroke-opacity: 0.2; stroke-linecap: square"/>
   </g>
   <g id="line2d_94">
    <path d="M 84.332727 367.679162 
L 165.694343 327.953733 
L 247.05596 290.371983 
L 328.417576 249.650154 
L 409.779192 218.267011 
L 491.140808 183.39911 
L 572.502424 150.333781 
L 653.86404 131.96816 
L 735.225657 125.226823 
L 755.566061 122.068948 
L 775.906465 137.227022 
L 796.246869 180.25348 
L 816.587273 256.426333 
" clip-path="url(#p2c149cc9da)" style="fill: none; stroke: #808080; stroke-opacity: 0.2; stroke-linecap: square"/>
   </g>
   <g id="line2d_95">
    <path d="M 84.332727 372.878687 
L 165.694343 340.120895 
L 247.05596 307.075746 
L 328.417576 266.011984 
L 409.779192 230.169094 
L 491.140808 195.406646 
L 572.502424 163.706737 
L 653.86404 138.193538 
L 735.225657 132.183545 
L 755.566061 128.605619 
L 775.906465 134.19385 
L 796.246869 146.429592 
L 816.587273 189.754577 
" clip-path="url(#p2c149cc9da)" style="fill: none; stroke: #808080; stroke-opacity: 0.2; stroke-linecap: square"/>
   </g>
   <g id="line2d_96">
    <path d="M 84.332727 359.54909 
L 165.694343 342.800815 
L 247.05596 317.674581 
L 328.417576 289.499086 
L 409.779192 265.201608 
L 491.140808 243.231918 
L 572.502424 226.172159 
L 653.86404 220.222844 
L 735.225657 221.173941 
L 755.566061 227.309571 
L 775.906465 241.239127 
L 796.246869 267.252017 
L 816.587273 302.36412 
" clip-path="url(#p2c149cc9da)" style="fill: none; stroke: #808080; stroke-opacity: 0.2; stroke-linecap: square"/>
   </g>
   <g id="line2d_97">
    <path d="M 84.332727 334.989272 
L 165.694343 312.773236 
L 247.05596 282.243583 
L 328.417576 239.026216 
L 409.779192 200.219631 
L 491.140808 166.660153 
L 572.502424 137.27875 
L 653.86404 118.835582 
L 735.225657 118.345043 
L 755.566061 124.957649 
L 775.906465 128.454996 
L 796.246869 150.098856 
L 816.587273 222.779792 
" clip-path="url(#p2c149cc9da)" style="fill: none; stroke: #808080; stroke-opacity: 0.2; stroke-linecap: square"/>
   </g>
   <g id="line2d_98">
    <path d="M 84.332727 326.139334 
L 165.694343 301.108041 
L 247.05596 272.482731 
L 328.417576 230.799769 
L 409.779192 184.961331 
L 491.140808 146.478652 
L 572.502424 112.678047 
L 653.86404 78.66821 
L 735.225657 63.000218 
L 755.566061 64.717652 
L 775.906465 66.127874 
L 796.246869 69.674213 
L 816.587273 118.889999 
" clip-path="url(#p2c149cc9da)" style="fill: none; stroke: #808080; stroke-opacity: 0.2; stroke-linecap: square"/>
   </g>
   <g id="line2d_99">
    <path d="M 84.332727 349.66356 
L 165.694343 311.037804 
L 247.05596 280.921413 
L 328.417576 236.99366 
L 409.779192 194.151187 
L 491.140808 158.812466 
L 572.502424 127.332362 
L 653.86404 101.13498 
L 735.225657 92.14948 
L 755.566061 91.876768 
L 775.906465 97.478847 
L 796.246869 111.35376 
L 816.587273 178.323015 
" clip-path="url(#p2c149cc9da)" style="fill: none; stroke: #808080; stroke-opacity: 0.2; stroke-linecap: square"/>
   </g>
   <g id="line2d_100">
    <path d="M 84.332727 369.636849 
L 165.694343 337.454611 
L 247.05596 299.649023 
L 328.417576 264.90888 
L 409.779192 234.416418 
L 491.140808 198.197952 
L 572.502424 169.984565 
L 653.86404 135.344374 
L 735.225657 127.841909 
L 755.566061 128.958789 
L 775.906465 143.359163 
L 796.246869 158.045873 
L 816.587273 232.666183 
" clip-path="url(#p2c149cc9da)" style="fill: none; stroke: #808080; stroke-opacity: 0.2; stroke-linecap: square"/>
   </g>
   <g id="line2d_101">
    <path d="M 84.332727 336.542291 
L 165.694343 311.051353 
L 247.05596 271.13685 
L 328.417576 225.252645 
L 409.779192 182.833778 
L 491.140808 143.175654 
L 572.502424 108.89795 
L 653.86404 68.217814 
L 735.225657 51.296816 
L 755.566061 47.647934 
L 775.906465 43.387273 
L 796.246869 53.17363 
L 816.587273 99.734552 
" clip-path="url(#p2c149cc9da)" style="fill: none; stroke: #808080; stroke-opacity: 0.2; stroke-linecap: square"/>
   </g>
   <g id="line2d_102">
    <path d="M 84.332727 331.266573 
L 165.694343 309.423446 
L 247.05596 285.745306 
L 328.417576 241.83315 
L 409.779192 197.773197 
L 491.140808 162.185969 
L 572.502424 127.463607 
L 653.86404 89.020038 
L 735.225657 73.161649 
L 755.566061 72.388343 
L 775.906465 72.493732 
L 796.246869 83.742214 
L 816.587273 116.584938 
" clip-path="url(#p2c149cc9da)" style="fill: none; stroke: #808080; stroke-opacity: 0.2; stroke-linecap: square"/>
   </g>
   <g id="line2d_103">
    <path d="M 84.332727 325.200477 
L 165.694343 302.138602 
L 247.05596 271.296371 
L 328.417576 226.44759 
L 409.779192 185.044689 
L 491.140808 143.978958 
L 572.502424 108.8174 
L 653.86404 69.401035 
L 735.225657 52.919837 
L 755.566061 52.408916 
L 775.906465 56.318713 
L 796.246869 76.450439 
L 816.587273 154.218125 
" clip-path="url(#p2c149cc9da)" style="fill: none; stroke: #808080; stroke-opacity: 0.2; stroke-linecap: square"/>
   </g>
   <g id="line2d_104">
    <path d="M 84.332727 334.743228 
L 165.694343 313.975294 
L 247.05596 278.934204 
L 328.417576 234.226559 
L 409.779192 197.977025 
L 491.140808 157.193021 
L 572.502424 126.29673 
L 653.86404 92.00602 
L 735.225657 87.748627 
L 755.566061 86.633902 
L 775.906465 90.103105 
L 796.246869 106.241835 
L 816.587273 165.276933 
" clip-path="url(#p2c149cc9da)" style="fill: none; stroke: #808080; stroke-opacity: 0.2; stroke-linecap: square"/>
   </g>
   <g id="line2d_105">
    <path d="M 84.332727 340.853197 
L 165.694343 309.150733 
L 247.05596 281.212417 
L 328.417576 239.147347 
L 409.779192 195.339993 
L 491.140808 157.099296 
L 572.502424 126.662204 
L 653.86404 93.53867 
L 735.225657 81.599467 
L 755.566061 78.395316 
L 775.906465 79.15616 
L 796.246869 87.06104 
L 816.587273 146.59201 
" clip-path="url(#p2c149cc9da)" style="fill: none; stroke: #808080; stroke-opacity: 0.2; stroke-linecap: square"/>
   </g>
   <g id="line2d_106">
    <path d="M 84.332727 340.624687 
L 165.694343 325.826019 
L 247.05596 306.576731 
L 328.417576 271.876771 
L 409.779192 236.483885 
L 491.140808 208.448403 
L 572.502424 183.269935 
L 653.86404 149.684136 
L 735.225657 143.307822 
L 755.566061 140.817773 
L 775.906465 146.807258 
L 796.246869 154.116921 
L 816.587273 210.833672 
" clip-path="url(#p2c149cc9da)" style="fill: none; stroke: #808080; stroke-opacity: 0.2; stroke-linecap: square"/>
   </g>
   <g id="line2d_107">
    <path d="M 84.332727 336.27256 
L 165.694343 312.679961 
L 247.05596 277.472962 
L 328.417576 232.016498 
L 409.779192 191.445495 
L 491.140808 153.652628 
L 572.502424 120.47208 
L 653.86404 87.159239 
L 735.225657 86.565281 
L 755.566061 87.829063 
L 775.906465 93.22885 
L 796.246869 107.027127 
L 816.587273 167.806526 
" clip-path="url(#p2c149cc9da)" style="fill: none; stroke: #808080; stroke-opacity: 0.2; stroke-linecap: square"/>
   </g>
   <g id="line2d_108">
    <path d="M 84.332727 346.012798 
L 165.694343 324.511586 
L 247.05596 287.475083 
L 328.417576 247.011147 
L 409.779192 214.052507 
L 491.140808 179.593305 
L 572.502424 147.823397 
L 653.86404 117.036515 
L 735.225657 109.576883 
L 755.566061 110.255558 
L 775.906465 120.363324 
L 796.246869 148.273571 
L 816.587273 211.074991 
" clip-path="url(#p2c149cc9da)" style="fill: none; stroke: #808080; stroke-opacity: 0.2; stroke-linecap: square"/>
   </g>
   <g id="line2d_109">
    <path d="M 84.332727 334.130617 
L 165.694343 307.91781 
L 247.05596 279.698658 
L 328.417576 238.840848 
L 409.779192 199.49897 
L 491.140808 163.736443 
L 572.502424 137.031319 
L 653.86404 98.347459 
L 735.225657 83.322633 
L 755.566061 85.271056 
L 775.906465 90.366472 
L 796.246869 110.422334 
L 816.587273 172.13302 
" clip-path="url(#p2c149cc9da)" style="fill: none; stroke: #808080; stroke-opacity: 0.2; stroke-linecap: square"/>
   </g>
   <g id="line2d_110">
    <path d="M 84.332727 329.208483 
L 165.694343 306.819195 
L 247.05596 273.85372 
L 328.417576 228.144917 
L 409.779192 181.851028 
L 491.140808 140.457361 
L 572.502424 106.642248 
L 653.86404 74.527954 
L 735.225657 57.997498 
L 755.566061 53.529424 
L 775.906465 58.403229 
L 796.246869 64.372158 
L 816.587273 125.520108 
" clip-path="url(#p2c149cc9da)" style="fill: none; stroke: #8000ff; stroke-width: 1.5; stroke-linecap: square"/>
    <defs>
     <path id="me2f26769a3" d="M 0 3 
C 0.795609 3 1.55874 2.683901 2.12132 2.12132 
C 2.683901 1.55874 3 0.795609 3 0 
C 3 -0.795609 2.683901 -1.55874 2.12132 -2.12132 
C 1.55874 -2.683901 0.795609 -3 0 -3 
C -0.795609 -3 -1.55874 -2.683901 -2.12132 -2.12132 
C -2.683901 -1.55874 -3 -0.795609 -3 0 
C -3 0.795609 -2.683901 1.55874 -2.12132 2.12132 
C -1.55874 2.683901 -0.795609 3 0 3 
z
" style="stroke: #ffffff; stroke-width: 0.75"/>
    </defs>
    <g clip-path="url(#p2c149cc9da)">
     <use xlink:href="#me2f26769a3" x="84.332727" y="329.208483" style="fill: #8000ff; stroke: #ffffff; stroke-width: 0.75"/>
     <use xlink:href="#me2f26769a3" x="165.694343" y="306.819195" style="fill: #8000ff; stroke: #ffffff; stroke-width: 0.75"/>
     <use xlink:href="#me2f26769a3" x="247.05596" y="273.85372" style="fill: #8000ff; stroke: #ffffff; stroke-width: 0.75"/>
     <use xlink:href="#me2f26769a3" x="328.417576" y="228.144917" style="fill: #8000ff; stroke: #ffffff; stroke-width: 0.75"/>
     <use xlink:href="#me2f26769a3" x="409.779192" y="181.851028" style="fill: #8000ff; stroke: #ffffff; stroke-width: 0.75"/>
     <use xlink:href="#me2f26769a3" x="491.140808" y="140.457361" style="fill: #8000ff; stroke: #ffffff; stroke-width: 0.75"/>
     <use xlink:href="#me2f26769a3" x="572.502424" y="106.642248" style="fill: #8000ff; stroke: #ffffff; stroke-width: 0.75"/>
     <use xlink:href="#me2f26769a3" x="653.86404" y="74.527954" style="fill: #8000ff; stroke: #ffffff; stroke-width: 0.75"/>
     <use xlink:href="#me2f26769a3" x="735.225657" y="57.997498" style="fill: #8000ff; stroke: #ffffff; stroke-width: 0.75"/>
     <use xlink:href="#me2f26769a3" x="755.566061" y="53.529424" style="fill: #8000ff; stroke: #ffffff; stroke-width: 0.75"/>
     <use xlink:href="#me2f26769a3" x="775.906465" y="58.403229" style="fill: #8000ff; stroke: #ffffff; stroke-width: 0.75"/>
     <use xlink:href="#me2f26769a3" x="796.246869" y="64.372158" style="fill: #8000ff; stroke: #ffffff; stroke-width: 0.75"/>
     <use xlink:href="#me2f26769a3" x="816.587273" y="125.520108" style="fill: #8000ff; stroke: #ffffff; stroke-width: 0.75"/>
    </g>
   </g>
   <g id="line2d_111"/>
   <g id="line2d_112">
    <path d="M 84.332727 329.813396 
L 165.694343 306.989314 
L 247.05596 278.230003 
L 328.417576 234.583191 
L 409.779192 190.934227 
L 491.140808 153.022019 
L 572.502424 119.497178 
L 653.86404 85.035082 
L 735.225657 75.637288 
L 755.566061 78.093146 
L 775.906465 78.504822 
L 796.246869 92.059984 
L 816.587273 163.793977 
" clip-path="url(#p2c149cc9da)" style="fill: none; stroke: #2c7ef7; stroke-width: 1.5; stroke-linecap: square"/>
    <defs>
     <path id="m2e622c0783" d="M 0 3 
C 0.795609 3 1.55874 2.683901 2.12132 2.12132 
C 2.683901 1.55874 3 0.795609 3 0 
C 3 -0.795609 2.683901 -1.55874 2.12132 -2.12132 
C 1.55874 -2.683901 0.795609 -3 0 -3 
C -0.795609 -3 -1.55874 -2.683901 -2.12132 -2.12132 
C -2.683901 -1.55874 -3 -0.795609 -3 0 
C -3 0.795609 -2.683901 1.55874 -2.12132 2.12132 
C -1.55874 2.683901 -0.795609 3 0 3 
z
" style="stroke: #ffffff; stroke-width: 0.75"/>
    </defs>
    <g clip-path="url(#p2c149cc9da)">
     <use xlink:href="#m2e622c0783" x="84.332727" y="329.813396" style="fill: #2c7ef7; stroke: #ffffff; stroke-width: 0.75"/>
     <use xlink:href="#m2e622c0783" x="165.694343" y="306.989314" style="fill: #2c7ef7; stroke: #ffffff; stroke-width: 0.75"/>
     <use xlink:href="#m2e622c0783" x="247.05596" y="278.230003" style="fill: #2c7ef7; stroke: #ffffff; stroke-width: 0.75"/>
     <use xlink:href="#m2e622c0783" x="328.417576" y="234.583191" style="fill: #2c7ef7; stroke: #ffffff; stroke-width: 0.75"/>
     <use xlink:href="#m2e622c0783" x="409.779192" y="190.934227" style="fill: #2c7ef7; stroke: #ffffff; stroke-width: 0.75"/>
     <use xlink:href="#m2e622c0783" x="491.140808" y="153.022019" style="fill: #2c7ef7; stroke: #ffffff; stroke-width: 0.75"/>
     <use xlink:href="#m2e622c0783" x="572.502424" y="119.497178" style="fill: #2c7ef7; stroke: #ffffff; stroke-width: 0.75"/>
     <use xlink:href="#m2e622c0783" x="653.86404" y="85.035082" style="fill: #2c7ef7; stroke: #ffffff; stroke-width: 0.75"/>
     <use xlink:href="#m2e622c0783" x="735.225657" y="75.637288" style="fill: #2c7ef7; stroke: #ffffff; stroke-width: 0.75"/>
     <use xlink:href="#m2e622c0783" x="755.566061" y="78.093146" style="fill: #2c7ef7; stroke: #ffffff; stroke-width: 0.75"/>
     <use xlink:href="#m2e622c0783" x="775.906465" y="78.504822" style="fill: #2c7ef7; stroke: #ffffff; stroke-width: 0.75"/>
     <use xlink:href="#m2e622c0783" x="796.246869" y="92.059984" style="fill: #2c7ef7; stroke: #ffffff; stroke-width: 0.75"/>
     <use xlink:href="#m2e622c0783" x="816.587273" y="163.793977" style="fill: #2c7ef7; stroke: #ffffff; stroke-width: 0.75"/>
    </g>
   </g>
   <g id="line2d_113"/>
   <g id="line2d_114">
    <path d="M 84.332727 330.320564 
L 165.694343 308.23813 
L 247.05596 275.143673 
L 328.417576 229.450967 
L 409.779192 181.759136 
L 491.140808 141.627717 
L 572.502424 108.659601 
L 653.86404 80.070569 
L 735.225657 62.964644 
L 755.566061 61.147837 
L 775.906465 65.233691 
L 796.246869 75.819369 
L 816.587273 154.269388 
" clip-path="url(#p2c149cc9da)" style="fill: none; stroke: #2adddd; stroke-width: 1.5; stroke-linecap: square"/>
    <defs>
     <path id="mbbf6ebdad0" d="M 0 3 
C 0.795609 3 1.55874 2.683901 2.12132 2.12132 
C 2.683901 1.55874 3 0.795609 3 0 
C 3 -0.795609 2.683901 -1.55874 2.12132 -2.12132 
C 1.55874 -2.683901 0.795609 -3 0 -3 
C -0.795609 -3 -1.55874 -2.683901 -2.12132 -2.12132 
C -2.683901 -1.55874 -3 -0.795609 -3 0 
C -3 0.795609 -2.683901 1.55874 -2.12132 2.12132 
C -1.55874 2.683901 -0.795609 3 0 3 
z
" style="stroke: #ffffff; stroke-width: 0.75"/>
    </defs>
    <g clip-path="url(#p2c149cc9da)">
     <use xlink:href="#mbbf6ebdad0" x="84.332727" y="330.320564" style="fill: #2adddd; stroke: #ffffff; stroke-width: 0.75"/>
     <use xlink:href="#mbbf6ebdad0" x="165.694343" y="308.23813" style="fill: #2adddd; stroke: #ffffff; stroke-width: 0.75"/>
     <use xlink:href="#mbbf6ebdad0" x="247.05596" y="275.143673" style="fill: #2adddd; stroke: #ffffff; stroke-width: 0.75"/>
     <use xlink:href="#mbbf6ebdad0" x="328.417576" y="229.450967" style="fill: #2adddd; stroke: #ffffff; stroke-width: 0.75"/>
     <use xlink:href="#mbbf6ebdad0" x="409.779192" y="181.759136" style="fill: #2adddd; stroke: #ffffff; stroke-width: 0.75"/>
     <use xlink:href="#mbbf6ebdad0" x="491.140808" y="141.627717" style="fill: #2adddd; stroke: #ffffff; stroke-width: 0.75"/>
     <use xlink:href="#mbbf6ebdad0" x="572.502424" y="108.659601" style="fill: #2adddd; stroke: #ffffff; stroke-width: 0.75"/>
     <use xlink:href="#mbbf6ebdad0" x="653.86404" y="80.070569" style="fill: #2adddd; stroke: #ffffff; stroke-width: 0.75"/>
     <use xlink:href="#mbbf6ebdad0" x="735.225657" y="62.964644" style="fill: #2adddd; stroke: #ffffff; stroke-width: 0.75"/>
     <use xlink:href="#mbbf6ebdad0" x="755.566061" y="61.147837" style="fill: #2adddd; stroke: #ffffff; stroke-width: 0.75"/>
     <use xlink:href="#mbbf6ebdad0" x="775.906465" y="65.233691" style="fill: #2adddd; stroke: #ffffff; stroke-width: 0.75"/>
     <use xlink:href="#mbbf6ebdad0" x="796.246869" y="75.819369" style="fill: #2adddd; stroke: #ffffff; stroke-width: 0.75"/>
     <use xlink:href="#mbbf6ebdad0" x="816.587273" y="154.269388" style="fill: #2adddd; stroke: #ffffff; stroke-width: 0.75"/>
    </g>
   </g>
   <g id="line2d_115"/>
   <g id="line2d_116">
    <path d="M 84.332727 326.595537 
L 165.694343 305.033582 
L 247.05596 275.010285 
L 328.417576 232.479091 
L 409.779192 188.61632 
L 491.140808 149.153067 
L 572.502424 116.695151 
L 653.86404 83.872498 
L 735.225657 66.615089 
L 755.566061 63.391306 
L 775.906465 63.405818 
L 796.246869 78.90549 
L 816.587273 148.320363 
" clip-path="url(#p2c149cc9da)" style="fill: none; stroke: #80ffb4; stroke-width: 1.5; stroke-linecap: square"/>
    <defs>
     <path id="m33e7eefc1e" d="M 0 3 
C 0.795609 3 1.55874 2.683901 2.12132 2.12132 
C 2.683901 1.55874 3 0.795609 3 0 
C 3 -0.795609 2.683901 -1.55874 2.12132 -2.12132 
C 1.55874 -2.683901 0.795609 -3 0 -3 
C -0.795609 -3 -1.55874 -2.683901 -2.12132 -2.12132 
C -2.683901 -1.55874 -3 -0.795609 -3 0 
C -3 0.795609 -2.683901 1.55874 -2.12132 2.12132 
C -1.55874 2.683901 -0.795609 3 0 3 
z
" style="stroke: #ffffff; stroke-width: 0.75"/>
    </defs>
    <g clip-path="url(#p2c149cc9da)">
     <use xlink:href="#m33e7eefc1e" x="84.332727" y="326.595537" style="fill: #80ffb4; stroke: #ffffff; stroke-width: 0.75"/>
     <use xlink:href="#m33e7eefc1e" x="165.694343" y="305.033582" style="fill: #80ffb4; stroke: #ffffff; stroke-width: 0.75"/>
     <use xlink:href="#m33e7eefc1e" x="247.05596" y="275.010285" style="fill: #80ffb4; stroke: #ffffff; stroke-width: 0.75"/>
     <use xlink:href="#m33e7eefc1e" x="328.417576" y="232.479091" style="fill: #80ffb4; stroke: #ffffff; stroke-width: 0.75"/>
     <use xlink:href="#m33e7eefc1e" x="409.779192" y="188.61632" style="fill: #80ffb4; stroke: #ffffff; stroke-width: 0.75"/>
     <use xlink:href="#m33e7eefc1e" x="491.140808" y="149.153067" style="fill: #80ffb4; stroke: #ffffff; stroke-width: 0.75"/>
     <use xlink:href="#m33e7eefc1e" x="572.502424" y="116.695151" style="fill: #80ffb4; stroke: #ffffff; stroke-width: 0.75"/>
     <use xlink:href="#m33e7eefc1e" x="653.86404" y="83.872498" style="fill: #80ffb4; stroke: #ffffff; stroke-width: 0.75"/>
     <use xlink:href="#m33e7eefc1e" x="735.225657" y="66.615089" style="fill: #80ffb4; stroke: #ffffff; stroke-width: 0.75"/>
     <use xlink:href="#m33e7eefc1e" x="755.566061" y="63.391306" style="fill: #80ffb4; stroke: #ffffff; stroke-width: 0.75"/>
     <use xlink:href="#m33e7eefc1e" x="775.906465" y="63.405818" style="fill: #80ffb4; stroke: #ffffff; stroke-width: 0.75"/>
     <use xlink:href="#m33e7eefc1e" x="796.246869" y="78.90549" style="fill: #80ffb4; stroke: #ffffff; stroke-width: 0.75"/>
     <use xlink:href="#m33e7eefc1e" x="816.587273" y="148.320363" style="fill: #80ffb4; stroke: #ffffff; stroke-width: 0.75"/>
    </g>
   </g>
   <g id="line2d_117"/>
   <g id="line2d_118">
    <path d="M 84.332727 336.860507 
L 165.694343 314.154406 
L 247.05596 282.75602 
L 328.417576 239.757993 
L 409.779192 195.361912 
L 491.140808 156.146848 
L 572.502424 122.514545 
L 653.86404 88.999925 
L 735.225657 75.37556 
L 755.566061 76.333501 
L 775.906465 76.353358 
L 796.246869 85.11468 
L 816.587273 180.15115 
" clip-path="url(#p2c149cc9da)" style="fill: none; stroke: #d4dd80; stroke-width: 1.5; stroke-linecap: square"/>
    <defs>
     <path id="me4aeeed449" d="M 0 3 
C 0.795609 3 1.55874 2.683901 2.12132 2.12132 
C 2.683901 1.55874 3 0.795609 3 0 
C 3 -0.795609 2.683901 -1.55874 2.12132 -2.12132 
C 1.55874 -2.683901 0.795609 -3 0 -3 
C -0.795609 -3 -1.55874 -2.683901 -2.12132 -2.12132 
C -2.683901 -1.55874 -3 -0.795609 -3 0 
C -3 0.795609 -2.683901 1.55874 -2.12132 2.12132 
C -1.55874 2.683901 -0.795609 3 0 3 
z
" style="stroke: #ffffff; stroke-width: 0.75"/>
    </defs>
    <g clip-path="url(#p2c149cc9da)">
     <use xlink:href="#me4aeeed449" x="84.332727" y="336.860507" style="fill: #d4dd80; stroke: #ffffff; stroke-width: 0.75"/>
     <use xlink:href="#me4aeeed449" x="165.694343" y="314.154406" style="fill: #d4dd80; stroke: #ffffff; stroke-width: 0.75"/>
     <use xlink:href="#me4aeeed449" x="247.05596" y="282.75602" style="fill: #d4dd80; stroke: #ffffff; stroke-width: 0.75"/>
     <use xlink:href="#me4aeeed449" x="328.417576" y="239.757993" style="fill: #d4dd80; stroke: #ffffff; stroke-width: 0.75"/>
     <use xlink:href="#me4aeeed449" x="409.779192" y="195.361912" style="fill: #d4dd80; stroke: #ffffff; stroke-width: 0.75"/>
     <use xlink:href="#me4aeeed449" x="491.140808" y="156.146848" style="fill: #d4dd80; stroke: #ffffff; stroke-width: 0.75"/>
     <use xlink:href="#me4aeeed449" x="572.502424" y="122.514545" style="fill: #d4dd80; stroke: #ffffff; stroke-width: 0.75"/>
     <use xlink:href="#me4aeeed449" x="653.86404" y="88.999925" style="fill: #d4dd80; stroke: #ffffff; stroke-width: 0.75"/>
     <use xlink:href="#me4aeeed449" x="735.225657" y="75.37556" style="fill: #d4dd80; stroke: #ffffff; stroke-width: 0.75"/>
     <use xlink:href="#me4aeeed449" x="755.566061" y="76.333501" style="fill: #d4dd80; stroke: #ffffff; stroke-width: 0.75"/>
     <use xlink:href="#me4aeeed449" x="775.906465" y="76.353358" style="fill: #d4dd80; stroke: #ffffff; stroke-width: 0.75"/>
     <use xlink:href="#me4aeeed449" x="796.246869" y="85.11468" style="fill: #d4dd80; stroke: #ffffff; stroke-width: 0.75"/>
     <use xlink:href="#me4aeeed449" x="816.587273" y="180.15115" style="fill: #d4dd80; stroke: #ffffff; stroke-width: 0.75"/>
    </g>
   </g>
   <g id="line2d_119"/>
   <g id="line2d_120">
    <path d="M 84.332727 346.759491 
L 165.694343 332.917818 
L 247.05596 306.032548 
L 328.417576 272.249312 
L 409.779192 242.658772 
L 491.140808 216.052806 
L 572.502424 192.94566 
L 653.86404 156.255049 
L 735.225657 145.217345 
L 755.566061 145.823963 
L 775.906465 152.048629 
L 796.246869 162.833367 
L 816.587273 210.228565 
" clip-path="url(#p2c149cc9da)" style="fill: none; stroke: #ff7e41; stroke-width: 1.5; stroke-linecap: square"/>
    <defs>
     <path id="m3142cfeebc" d="M 0 3 
C 0.795609 3 1.55874 2.683901 2.12132 2.12132 
C 2.683901 1.55874 3 0.795609 3 0 
C 3 -0.795609 2.683901 -1.55874 2.12132 -2.12132 
C 1.55874 -2.683901 0.795609 -3 0 -3 
C -0.795609 -3 -1.55874 -2.683901 -2.12132 -2.12132 
C -2.683901 -1.55874 -3 -0.795609 -3 0 
C -3 0.795609 -2.683901 1.55874 -2.12132 2.12132 
C -1.55874 2.683901 -0.795609 3 0 3 
z
" style="stroke: #ffffff; stroke-width: 0.75"/>
    </defs>
    <g clip-path="url(#p2c149cc9da)">
     <use xlink:href="#m3142cfeebc" x="84.332727" y="346.759491" style="fill: #ff7e41; stroke: #ffffff; stroke-width: 0.75"/>
     <use xlink:href="#m3142cfeebc" x="165.694343" y="332.917818" style="fill: #ff7e41; stroke: #ffffff; stroke-width: 0.75"/>
     <use xlink:href="#m3142cfeebc" x="247.05596" y="306.032548" style="fill: #ff7e41; stroke: #ffffff; stroke-width: 0.75"/>
     <use xlink:href="#m3142cfeebc" x="328.417576" y="272.249312" style="fill: #ff7e41; stroke: #ffffff; stroke-width: 0.75"/>
     <use xlink:href="#m3142cfeebc" x="409.779192" y="242.658772" style="fill: #ff7e41; stroke: #ffffff; stroke-width: 0.75"/>
     <use xlink:href="#m3142cfeebc" x="491.140808" y="216.052806" style="fill: #ff7e41; stroke: #ffffff; stroke-width: 0.75"/>
     <use xlink:href="#m3142cfeebc" x="572.502424" y="192.94566" style="fill: #ff7e41; stroke: #ffffff; stroke-width: 0.75"/>
     <use xlink:href="#m3142cfeebc" x="653.86404" y="156.255049" style="fill: #ff7e41; stroke: #ffffff; stroke-width: 0.75"/>
     <use xlink:href="#m3142cfeebc" x="735.225657" y="145.217345" style="fill: #ff7e41; stroke: #ffffff; stroke-width: 0.75"/>
     <use xlink:href="#m3142cfeebc" x="755.566061" y="145.823963" style="fill: #ff7e41; stroke: #ffffff; stroke-width: 0.75"/>
     <use xlink:href="#m3142cfeebc" x="775.906465" y="152.048629" style="fill: #ff7e41; stroke: #ffffff; stroke-width: 0.75"/>
     <use xlink:href="#m3142cfeebc" x="796.246869" y="162.833367" style="fill: #ff7e41; stroke: #ffffff; stroke-width: 0.75"/>
     <use xlink:href="#m3142cfeebc" x="816.587273" y="210.228565" style="fill: #ff7e41; stroke: #ffffff; stroke-width: 0.75"/>
    </g>
   </g>
   <g id="line2d_121"/>
   <g id="line2d_122">
    <path d="M 84.332727 326.971829 
L 165.694343 304.141618 
L 247.05596 272.541775 
L 328.417576 226.839595 
L 409.779192 180.645313 
L 491.140808 141.135975 
L 572.502424 106.970491 
L 653.86404 75.455967 
L 735.225657 61.206356 
L 755.566061 58.000663 
L 775.906465 59.161843 
L 796.246869 66.674882 
L 816.587273 138.401186 
" clip-path="url(#p2c149cc9da)" style="fill: none; stroke: #ff0000; stroke-width: 1.5; stroke-linecap: square"/>
    <defs>
     <path id="mc7cb382c85" d="M 0 3 
C 0.795609 3 1.55874 2.683901 2.12132 2.12132 
C 2.683901 1.55874 3 0.795609 3 0 
C 3 -0.795609 2.683901 -1.55874 2.12132 -2.12132 
C 1.55874 -2.683901 0.795609 -3 0 -3 
C -0.795609 -3 -1.55874 -2.683901 -2.12132 -2.12132 
C -2.683901 -1.55874 -3 -0.795609 -3 0 
C -3 0.795609 -2.683901 1.55874 -2.12132 2.12132 
C -1.55874 2.683901 -0.795609 3 0 3 
z
" style="stroke: #ffffff; stroke-width: 0.75"/>
    </defs>
    <g clip-path="url(#p2c149cc9da)">
     <use xlink:href="#mc7cb382c85" x="84.332727" y="326.971829" style="fill: #ff0000; stroke: #ffffff; stroke-width: 0.75"/>
     <use xlink:href="#mc7cb382c85" x="165.694343" y="304.141618" style="fill: #ff0000; stroke: #ffffff; stroke-width: 0.75"/>
     <use xlink:href="#mc7cb382c85" x="247.05596" y="272.541775" style="fill: #ff0000; stroke: #ffffff; stroke-width: 0.75"/>
     <use xlink:href="#mc7cb382c85" x="328.417576" y="226.839595" style="fill: #ff0000; stroke: #ffffff; stroke-width: 0.75"/>
     <use xlink:href="#mc7cb382c85" x="409.779192" y="180.645313" style="fill: #ff0000; stroke: #ffffff; stroke-width: 0.75"/>
     <use xlink:href="#mc7cb382c85" x="491.140808" y="141.135975" style="fill: #ff0000; stroke: #ffffff; stroke-width: 0.75"/>
     <use xlink:href="#mc7cb382c85" x="572.502424" y="106.970491" style="fill: #ff0000; stroke: #ffffff; stroke-width: 0.75"/>
     <use xlink:href="#mc7cb382c85" x="653.86404" y="75.455967" style="fill: #ff0000; stroke: #ffffff; stroke-width: 0.75"/>
     <use xlink:href="#mc7cb382c85" x="735.225657" y="61.206356" style="fill: #ff0000; stroke: #ffffff; stroke-width: 0.75"/>
     <use xlink:href="#mc7cb382c85" x="755.566061" y="58.000663" style="fill: #ff0000; stroke: #ffffff; stroke-width: 0.75"/>
     <use xlink:href="#mc7cb382c85" x="775.906465" y="59.161843" style="fill: #ff0000; stroke: #ffffff; stroke-width: 0.75"/>
     <use xlink:href="#mc7cb382c85" x="796.246869" y="66.674882" style="fill: #ff0000; stroke: #ffffff; stroke-width: 0.75"/>
     <use xlink:href="#mc7cb382c85" x="816.587273" y="138.401186" style="fill: #ff0000; stroke: #ffffff; stroke-width: 0.75"/>
    </g>
   </g>
   <g id="line2d_123"/>
   <g id="patch_3">
    <path d="M 47.72 390.04 
L 47.72 26.88 
" style="fill: none; stroke: #000000; stroke-width: 0.8; stroke-linejoin: miter; stroke-linecap: square"/>
   </g>
   <g id="patch_4">
    <path d="M 853.2 390.04 
L 853.2 26.88 
" style="fill: none; stroke: #000000; stroke-width: 0.8; stroke-linejoin: miter; stroke-linecap: square"/>
   </g>
   <g id="patch_5">
    <path d="M 47.72 390.04 
L 853.2 390.04 
" style="fill: none; stroke: #000000; stroke-width: 0.8; stroke-linejoin: miter; stroke-linecap: square"/>
   </g>
   <g id="patch_6">
    <path d="M 47.72 26.88 
L 853.2 26.88 
" style="fill: none; stroke: #000000; stroke-width: 0.8; stroke-linejoin: miter; stroke-linecap: square"/>
   </g>
   <g id="text_15">
    <!-- WSS Value Progression for Each Combination -->
    <g transform="translate(315.184375 20.88) scale(0.12 -0.12)">
     <defs>
      <path id="DejaVuSans-50" d="M 1259 4147 
L 1259 2394 
L 2053 2394 
Q 2494 2394 2734 2622 
Q 2975 2850 2975 3272 
Q 2975 3691 2734 3919 
Q 2494 4147 2053 4147 
L 1259 4147 
z
M 628 4666 
L 2053 4666 
Q 2838 4666 3239 4311 
Q 3641 3956 3641 3272 
Q 3641 2581 3239 2228 
Q 2838 1875 2053 1875 
L 1259 1875 
L 1259 0 
L 628 0 
L 628 4666 
z
" transform="scale(0.015625)"/>
      <path id="DejaVuSans-67" d="M 2906 1791 
Q 2906 2416 2648 2759 
Q 2391 3103 1925 3103 
Q 1463 3103 1205 2759 
Q 947 2416 947 1791 
Q 947 1169 1205 825 
Q 1463 481 1925 481 
Q 2391 481 2648 825 
Q 2906 1169 2906 1791 
z
M 3481 434 
Q 3481 -459 3084 -895 
Q 2688 -1331 1869 -1331 
Q 1566 -1331 1297 -1286 
Q 1028 -1241 775 -1147 
L 775 -588 
Q 1028 -725 1275 -790 
Q 1522 -856 1778 -856 
Q 2344 -856 2625 -561 
Q 2906 -266 2906 331 
L 2906 616 
Q 2728 306 2450 153 
Q 2172 0 1784 0 
Q 1141 0 747 490 
Q 353 981 353 1791 
Q 353 2603 747 3093 
Q 1141 3584 1784 3584 
Q 2172 3584 2450 3431 
Q 2728 3278 2906 2969 
L 2906 3500 
L 3481 3500 
L 3481 434 
z
" transform="scale(0.015625)"/>
      <path id="DejaVuSans-69" d="M 603 3500 
L 1178 3500 
L 1178 0 
L 603 0 
L 603 3500 
z
M 603 4863 
L 1178 4863 
L 1178 4134 
L 603 4134 
L 603 4863 
z
" transform="scale(0.015625)"/>
      <path id="DejaVuSans-6e" d="M 3513 2113 
L 3513 0 
L 2938 0 
L 2938 2094 
Q 2938 2591 2744 2837 
Q 2550 3084 2163 3084 
Q 1697 3084 1428 2787 
Q 1159 2491 1159 1978 
L 1159 0 
L 581 0 
L 581 3500 
L 1159 3500 
L 1159 2956 
Q 1366 3272 1645 3428 
Q 1925 3584 2291 3584 
Q 2894 3584 3203 3211 
Q 3513 2838 3513 2113 
z
" transform="scale(0.015625)"/>
      <path id="DejaVuSans-66" d="M 2375 4863 
L 2375 4384 
L 1825 4384 
Q 1516 4384 1395 4259 
Q 1275 4134 1275 3809 
L 1275 3500 
L 2222 3500 
L 2222 3053 
L 1275 3053 
L 1275 0 
L 697 0 
L 697 3053 
L 147 3053 
L 147 3500 
L 697 3500 
L 697 3744 
Q 697 4328 969 4595 
Q 1241 4863 1831 4863 
L 2375 4863 
z
" transform="scale(0.015625)"/>
      <path id="DejaVuSans-45" d="M 628 4666 
L 3578 4666 
L 3578 4134 
L 1259 4134 
L 1259 2753 
L 3481 2753 
L 3481 2222 
L 1259 2222 
L 1259 531 
L 3634 531 
L 3634 0 
L 628 0 
L 628 4666 
z
" transform="scale(0.015625)"/>
      <path id="DejaVuSans-63" d="M 3122 3366 
L 3122 2828 
Q 2878 2963 2633 3030 
Q 2388 3097 2138 3097 
Q 1578 3097 1268 2742 
Q 959 2388 959 1747 
Q 959 1106 1268 751 
Q 1578 397 2138 397 
Q 2388 397 2633 464 
Q 2878 531 3122 666 
L 3122 134 
Q 2881 22 2623 -34 
Q 2366 -91 2075 -91 
Q 1284 -91 818 406 
Q 353 903 353 1747 
Q 353 2603 823 3093 
Q 1294 3584 2113 3584 
Q 2378 3584 2631 3529 
Q 2884 3475 3122 3366 
z
" transform="scale(0.015625)"/>
      <path id="DejaVuSans-43" d="M 4122 4306 
L 4122 3641 
Q 3803 3938 3442 4084 
Q 3081 4231 2675 4231 
Q 1875 4231 1450 3742 
Q 1025 3253 1025 2328 
Q 1025 1406 1450 917 
Q 1875 428 2675 428 
Q 3081 428 3442 575 
Q 3803 722 4122 1019 
L 4122 359 
Q 3791 134 3420 21 
Q 3050 -91 2638 -91 
Q 1578 -91 968 557 
Q 359 1206 359 2328 
Q 359 3453 968 4101 
Q 1578 4750 2638 4750 
Q 3056 4750 3426 4639 
Q 3797 4528 4122 4306 
z
" transform="scale(0.015625)"/>
      <path id="DejaVuSans-6d" d="M 3328 2828 
Q 3544 3216 3844 3400 
Q 4144 3584 4550 3584 
Q 5097 3584 5394 3201 
Q 5691 2819 5691 2113 
L 5691 0 
L 5113 0 
L 5113 2094 
Q 5113 2597 4934 2840 
Q 4756 3084 4391 3084 
Q 3944 3084 3684 2787 
Q 3425 2491 3425 1978 
L 3425 0 
L 2847 0 
L 2847 2094 
Q 2847 2600 2669 2842 
Q 2491 3084 2119 3084 
Q 1678 3084 1418 2786 
Q 1159 2488 1159 1978 
L 1159 0 
L 581 0 
L 581 3500 
L 1159 3500 
L 1159 2956 
Q 1356 3278 1631 3431 
Q 1906 3584 2284 3584 
Q 2666 3584 2933 3390 
Q 3200 3197 3328 2828 
z
" transform="scale(0.015625)"/>
      <path id="DejaVuSans-62" d="M 3116 1747 
Q 3116 2381 2855 2742 
Q 2594 3103 2138 3103 
Q 1681 3103 1420 2742 
Q 1159 2381 1159 1747 
Q 1159 1113 1420 752 
Q 1681 391 2138 391 
Q 2594 391 2855 752 
Q 3116 1113 3116 1747 
z
M 1159 2969 
Q 1341 3281 1617 3432 
Q 1894 3584 2278 3584 
Q 2916 3584 3314 3078 
Q 3713 2572 3713 1747 
Q 3713 922 3314 415 
Q 2916 -91 2278 -91 
Q 1894 -91 1617 61 
Q 1341 213 1159 525 
L 1159 0 
L 581 0 
L 581 4863 
L 1159 4863 
L 1159 2969 
z
" transform="scale(0.015625)"/>
      <path id="DejaVuSans-74" d="M 1172 4494 
L 1172 3500 
L 2356 3500 
L 2356 3053 
L 1172 3053 
L 1172 1153 
Q 1172 725 1289 603 
Q 1406 481 1766 481 
L 2356 481 
L 2356 0 
L 1766 0 
Q 1100 0 847 248 
Q 594 497 594 1153 
L 594 3053 
L 172 3053 
L 172 3500 
L 594 3500 
L 594 4494 
L 1172 4494 
z
" transform="scale(0.015625)"/>
     </defs>
     <use xlink:href="#DejaVuSans-57"/>
     <use xlink:href="#DejaVuSans-53" x="98.876953"/>
     <use xlink:href="#DejaVuSans-53" x="162.353516"/>
     <use xlink:href="#DejaVuSans-20" x="225.830078"/>
     <use xlink:href="#DejaVuSans-56" x="257.617188"/>
     <use xlink:href="#DejaVuSans-61" x="318.275391"/>
     <use xlink:href="#DejaVuSans-6c" x="379.554688"/>
     <use xlink:href="#DejaVuSans-75" x="407.337891"/>
     <use xlink:href="#DejaVuSans-65" x="470.716797"/>
     <use xlink:href="#DejaVuSans-20" x="532.240234"/>
     <use xlink:href="#DejaVuSans-50" x="564.027344"/>
     <use xlink:href="#DejaVuSans-72" x="622.580078"/>
     <use xlink:href="#DejaVuSans-6f" x="661.443359"/>
     <use xlink:href="#DejaVuSans-67" x="722.625"/>
     <use xlink:href="#DejaVuSans-72" x="786.101562"/>
     <use xlink:href="#DejaVuSans-65" x="824.964844"/>
     <use xlink:href="#DejaVuSans-73" x="886.488281"/>
     <use xlink:href="#DejaVuSans-73" x="938.587891"/>
     <use xlink:href="#DejaVuSans-69" x="990.6875"/>
     <use xlink:href="#DejaVuSans-6f" x="1018.470703"/>
     <use xlink:href="#DejaVuSans-6e" x="1079.652344"/>
     <use xlink:href="#DejaVuSans-20" x="1143.03125"/>
     <use xlink:href="#DejaVuSans-66" x="1174.818359"/>
     <use xlink:href="#DejaVuSans-6f" x="1210.023438"/>
     <use xlink:href="#DejaVuSans-72" x="1271.205078"/>
     <use xlink:href="#DejaVuSans-20" x="1312.318359"/>
     <use xlink:href="#DejaVuSans-45" x="1344.105469"/>
     <use xlink:href="#DejaVuSans-61" x="1407.289062"/>
     <use xlink:href="#DejaVuSans-63" x="1468.568359"/>
     <use xlink:href="#DejaVuSans-68" x="1523.548828"/>
     <use xlink:href="#DejaVuSans-20" x="1586.927734"/>
     <use xlink:href="#DejaVuSans-43" x="1618.714844"/>
     <use xlink:href="#DejaVuSans-6f" x="1688.539062"/>
     <use xlink:href="#DejaVuSans-6d" x="1749.720703"/>
     <use xlink:href="#DejaVuSans-62" x="1847.132812"/>
     <use xlink:href="#DejaVuSans-69" x="1910.609375"/>
     <use xlink:href="#DejaVuSans-6e" x="1938.392578"/>
     <use xlink:href="#DejaVuSans-61" x="2001.771484"/>
     <use xlink:href="#DejaVuSans-74" x="2063.050781"/>
     <use xlink:href="#DejaVuSans-69" x="2102.259766"/>
     <use xlink:href="#DejaVuSans-6f" x="2130.042969"/>
     <use xlink:href="#DejaVuSans-6e" x="2191.224609"/>
    </g>
   </g>
   <g id="legend_1">
    <g id="patch_7">
     <path d="M 54.72 137.626875 
L 167.86375 137.626875 
Q 169.86375 137.626875 169.86375 135.626875 
L 169.86375 33.88 
Q 169.86375 31.88 167.86375 31.88 
L 54.72 31.88 
Q 52.72 31.88 52.72 33.88 
L 52.72 135.626875 
Q 52.72 137.626875 54.72 137.626875 
z
" style="fill: #ffffff; opacity: 0.8; stroke: #cccccc; stroke-linejoin: miter"/>
    </g>
    <g id="line2d_124">
     <path d="M 56.72 39.978437 
L 66.72 39.978437 
L 76.72 39.978437 
" style="fill: none; stroke: #8000ff; stroke-width: 1.5; stroke-linecap: square"/>
     <g>
      <use xlink:href="#me2f26769a3" x="66.72" y="39.978437" style="fill: #8000ff; stroke: #ffffff; stroke-width: 0.75"/>
     </g>
    </g>
    <g id="text_16">
     <!-- logistic + tfidf -->
     <g transform="translate(84.72 43.478437) scale(0.1 -0.1)">
      <defs>
       <path id="DejaVuSans-2b" d="M 2944 4013 
L 2944 2272 
L 4684 2272 
L 4684 1741 
L 2944 1741 
L 2944 0 
L 2419 0 
L 2419 1741 
L 678 1741 
L 678 2272 
L 2419 2272 
L 2419 4013 
L 2944 4013 
z
" transform="scale(0.015625)"/>
      </defs>
      <use xlink:href="#DejaVuSans-6c"/>
      <use xlink:href="#DejaVuSans-6f" x="27.783203"/>
      <use xlink:href="#DejaVuSans-67" x="88.964844"/>
      <use xlink:href="#DejaVuSans-69" x="152.441406"/>
      <use xlink:href="#DejaVuSans-73" x="180.224609"/>
      <use xlink:href="#DejaVuSans-74" x="232.324219"/>
      <use xlink:href="#DejaVuSans-69" x="271.533203"/>
      <use xlink:href="#DejaVuSans-63" x="299.316406"/>
      <use xlink:href="#DejaVuSans-20" x="354.296875"/>
      <use xlink:href="#DejaVuSans-2b" x="386.083984"/>
      <use xlink:href="#DejaVuSans-20" x="469.873047"/>
      <use xlink:href="#DejaVuSans-74" x="501.660156"/>
      <use xlink:href="#DejaVuSans-66" x="540.869141"/>
      <use xlink:href="#DejaVuSans-69" x="576.074219"/>
      <use xlink:href="#DejaVuSans-64" x="603.857422"/>
      <use xlink:href="#DejaVuSans-66" x="667.333984"/>
     </g>
    </g>
    <g id="line2d_125">
     <path d="M 56.72 54.656563 
L 66.72 54.656563 
L 76.72 54.656563 
" style="fill: none; stroke: #2c7ef7; stroke-width: 1.5; stroke-linecap: square"/>
     <g>
      <use xlink:href="#m2e622c0783" x="66.72" y="54.656563" style="fill: #2c7ef7; stroke: #ffffff; stroke-width: 0.75"/>
     </g>
    </g>
    <g id="text_17">
     <!-- xgboost + tfidf -->
     <g transform="translate(84.72 58.156563) scale(0.1 -0.1)">
      <defs>
       <path id="DejaVuSans-78" d="M 3513 3500 
L 2247 1797 
L 3578 0 
L 2900 0 
L 1881 1375 
L 863 0 
L 184 0 
L 1544 1831 
L 300 3500 
L 978 3500 
L 1906 2253 
L 2834 3500 
L 3513 3500 
z
" transform="scale(0.015625)"/>
      </defs>
      <use xlink:href="#DejaVuSans-78"/>
      <use xlink:href="#DejaVuSans-67" x="59.179688"/>
      <use xlink:href="#DejaVuSans-62" x="122.65625"/>
      <use xlink:href="#DejaVuSans-6f" x="186.132812"/>
      <use xlink:href="#DejaVuSans-6f" x="247.314453"/>
      <use xlink:href="#DejaVuSans-73" x="308.496094"/>
      <use xlink:href="#DejaVuSans-74" x="360.595703"/>
      <use xlink:href="#DejaVuSans-20" x="399.804688"/>
      <use xlink:href="#DejaVuSans-2b" x="431.591797"/>
      <use xlink:href="#DejaVuSans-20" x="515.380859"/>
      <use xlink:href="#DejaVuSans-74" x="547.167969"/>
      <use xlink:href="#DejaVuSans-66" x="586.376953"/>
      <use xlink:href="#DejaVuSans-69" x="621.582031"/>
      <use xlink:href="#DejaVuSans-64" x="649.365234"/>
      <use xlink:href="#DejaVuSans-66" x="712.841797"/>
     </g>
    </g>
    <g id="line2d_126">
     <path d="M 56.72 69.334687 
L 66.72 69.334687 
L 76.72 69.334687 
" style="fill: none; stroke: #2adddd; stroke-width: 1.5; stroke-linecap: square"/>
     <g>
      <use xlink:href="#mbbf6ebdad0" x="66.72" y="69.334687" style="fill: #2adddd; stroke: #ffffff; stroke-width: 0.75"/>
     </g>
    </g>
    <g id="text_18">
     <!-- svm + tfidf -->
     <g transform="translate(84.72 72.834687) scale(0.1 -0.1)">
      <defs>
       <path id="DejaVuSans-76" d="M 191 3500 
L 800 3500 
L 1894 563 
L 2988 3500 
L 3597 3500 
L 2284 0 
L 1503 0 
L 191 3500 
z
" transform="scale(0.015625)"/>
      </defs>
      <use xlink:href="#DejaVuSans-73"/>
      <use xlink:href="#DejaVuSans-76" x="52.099609"/>
      <use xlink:href="#DejaVuSans-6d" x="111.279297"/>
      <use xlink:href="#DejaVuSans-20" x="208.691406"/>
      <use xlink:href="#DejaVuSans-2b" x="240.478516"/>
      <use xlink:href="#DejaVuSans-20" x="324.267578"/>
      <use xlink:href="#DejaVuSans-74" x="356.054688"/>
      <use xlink:href="#DejaVuSans-66" x="395.263672"/>
      <use xlink:href="#DejaVuSans-69" x="430.46875"/>
      <use xlink:href="#DejaVuSans-64" x="458.251953"/>
      <use xlink:href="#DejaVuSans-66" x="521.728516"/>
     </g>
    </g>
    <g id="line2d_127">
     <path d="M 56.72 84.012812 
L 66.72 84.012812 
L 76.72 84.012812 
" style="fill: none; stroke: #80ffb4; stroke-width: 1.5; stroke-linecap: square"/>
     <g>
      <use xlink:href="#m33e7eefc1e" x="66.72" y="84.012812" style="fill: #80ffb4; stroke: #ffffff; stroke-width: 0.75"/>
     </g>
    </g>
    <g id="text_19">
     <!-- rf + tfidf -->
     <g transform="translate(84.72 87.512812) scale(0.1 -0.1)">
      <use xlink:href="#DejaVuSans-72"/>
      <use xlink:href="#DejaVuSans-66" x="41.113281"/>
      <use xlink:href="#DejaVuSans-20" x="76.318359"/>
      <use xlink:href="#DejaVuSans-2b" x="108.105469"/>
      <use xlink:href="#DejaVuSans-20" x="191.894531"/>
      <use xlink:href="#DejaVuSans-74" x="223.681641"/>
      <use xlink:href="#DejaVuSans-66" x="262.890625"/>
      <use xlink:href="#DejaVuSans-69" x="298.095703"/>
      <use xlink:href="#DejaVuSans-64" x="325.878906"/>
      <use xlink:href="#DejaVuSans-66" x="389.355469"/>
     </g>
    </g>
    <g id="line2d_128">
     <path d="M 56.72 98.690938 
L 66.72 98.690938 
L 76.72 98.690938 
" style="fill: none; stroke: #d4dd80; stroke-width: 1.5; stroke-linecap: square"/>
     <g>
      <use xlink:href="#me4aeeed449" x="66.72" y="98.690938" style="fill: #d4dd80; stroke: #ffffff; stroke-width: 0.75"/>
     </g>
    </g>
    <g id="text_20">
     <!-- adaboost + tfidf -->
     <g transform="translate(84.72 102.190938) scale(0.1 -0.1)">
      <use xlink:href="#DejaVuSans-61"/>
      <use xlink:href="#DejaVuSans-64" x="61.279297"/>
      <use xlink:href="#DejaVuSans-61" x="124.755859"/>
      <use xlink:href="#DejaVuSans-62" x="186.035156"/>
      <use xlink:href="#DejaVuSans-6f" x="249.511719"/>
      <use xlink:href="#DejaVuSans-6f" x="310.693359"/>
      <use xlink:href="#DejaVuSans-73" x="371.875"/>
      <use xlink:href="#DejaVuSans-74" x="423.974609"/>
      <use xlink:href="#DejaVuSans-20" x="463.183594"/>
      <use xlink:href="#DejaVuSans-2b" x="494.970703"/>
      <use xlink:href="#DejaVuSans-20" x="578.759766"/>
      <use xlink:href="#DejaVuSans-74" x="610.546875"/>
      <use xlink:href="#DejaVuSans-66" x="649.755859"/>
      <use xlink:href="#DejaVuSans-69" x="684.960938"/>
      <use xlink:href="#DejaVuSans-64" x="712.744141"/>
      <use xlink:href="#DejaVuSans-66" x="776.220703"/>
     </g>
    </g>
    <g id="line2d_129">
     <path d="M 56.72 113.369062 
L 66.72 113.369062 
L 76.72 113.369062 
" style="fill: none; stroke: #ff7e41; stroke-width: 1.5; stroke-linecap: square"/>
     <g>
      <use xlink:href="#m3142cfeebc" x="66.72" y="113.369062" style="fill: #ff7e41; stroke: #ffffff; stroke-width: 0.75"/>
     </g>
    </g>
    <g id="text_21">
     <!-- knn + tfidf -->
     <g transform="translate(84.72 116.869062) scale(0.1 -0.1)">
      <defs>
       <path id="DejaVuSans-6b" d="M 581 4863 
L 1159 4863 
L 1159 1991 
L 2875 3500 
L 3609 3500 
L 1753 1863 
L 3688 0 
L 2938 0 
L 1159 1709 
L 1159 0 
L 581 0 
L 581 4863 
z
" transform="scale(0.015625)"/>
      </defs>
      <use xlink:href="#DejaVuSans-6b"/>
      <use xlink:href="#DejaVuSans-6e" x="57.910156"/>
      <use xlink:href="#DejaVuSans-6e" x="121.289062"/>
      <use xlink:href="#DejaVuSans-20" x="184.667969"/>
      <use xlink:href="#DejaVuSans-2b" x="216.455078"/>
      <use xlink:href="#DejaVuSans-20" x="300.244141"/>
      <use xlink:href="#DejaVuSans-74" x="332.03125"/>
      <use xlink:href="#DejaVuSans-66" x="371.240234"/>
      <use xlink:href="#DejaVuSans-69" x="406.445312"/>
      <use xlink:href="#DejaVuSans-64" x="434.228516"/>
      <use xlink:href="#DejaVuSans-66" x="497.705078"/>
     </g>
    </g>
    <g id="line2d_130">
     <path d="M 56.72 128.047187 
L 66.72 128.047187 
L 76.72 128.047187 
" style="fill: none; stroke: #ff0000; stroke-width: 1.5; stroke-linecap: square"/>
     <g>
      <use xlink:href="#mc7cb382c85" x="66.72" y="128.047187" style="fill: #ff0000; stroke: #ffffff; stroke-width: 0.75"/>
     </g>
    </g>
    <g id="text_22">
     <!-- nb + tfidf -->
     <g transform="translate(84.72 131.547187) scale(0.1 -0.1)">
      <use xlink:href="#DejaVuSans-6e"/>
      <use xlink:href="#DejaVuSans-62" x="63.378906"/>
      <use xlink:href="#DejaVuSans-20" x="126.855469"/>
      <use xlink:href="#DejaVuSans-2b" x="158.642578"/>
      <use xlink:href="#DejaVuSans-20" x="242.431641"/>
      <use xlink:href="#DejaVuSans-74" x="274.21875"/>
      <use xlink:href="#DejaVuSans-66" x="313.427734"/>
      <use xlink:href="#DejaVuSans-69" x="348.632812"/>
      <use xlink:href="#DejaVuSans-64" x="376.416016"/>
      <use xlink:href="#DejaVuSans-66" x="439.892578"/>
     </g>
    </g>
   </g>
  </g>
 </g>
 <defs>
  <clipPath id="p2c149cc9da">
   <rect x="47.72" y="26.88" width="805.48" height="363.16"/>
  </clipPath>
 </defs>
</svg>
